<?xml version="1.0" encoding="UTF-8" standalone="no"?>
<!-- Created with Inkscape (http://www.inkscape.org/) -->

<svg
   xmlns:dc="http://purl.org/dc/elements/1.1/"
   xmlns:cc="http://creativecommons.org/ns#"
   xmlns:rdf="http://www.w3.org/1999/02/22-rdf-syntax-ns#"
   xmlns:svg="http://www.w3.org/2000/svg"
   xmlns="http://www.w3.org/2000/svg"
   xmlns:sodipodi="http://sodipodi.sourceforge.net/DTD/sodipodi-0.dtd"
   xmlns:inkscape="http://www.inkscape.org/namespaces/inkscape"
   width="480"
   height="480"
   viewBox="0 0 127 127"
   version="1.1"
   id="svg8"
   inkscape:version="0.92.2 5c3e80d, 2017-08-06"
   sodipodi:docname="queen_back.svg">
  <sodipodi:namedview
     id="base"
     pagecolor="#ffffff"
     bordercolor="#666666"
     borderopacity="1.0"
     inkscape:pageopacity="0.0"
     inkscape:pageshadow="2"
     inkscape:zoom="0.98994949"
     inkscape:cx="131.89648"
     inkscape:cy="278.89047"
     inkscape:document-units="mm"
     inkscape:current-layer="layer1"
     showgrid="false"
     units="px"
     inkscape:window-width="1920"
     inkscape:window-height="956"
     inkscape:window-x="1280"
     inkscape:window-y="0"
     inkscape:window-maximized="1" />
  <defs
     id="defs2" />
  <metadata
     id="metadata5">
    <rdf:RDF>
      <cc:Work
         rdf:about="">
        <dc:format>image/svg+xml</dc:format>
        <dc:type
           rdf:resource="http://purl.org/dc/dcmitype/StillImage" />
        <dc:title></dc:title>
      </cc:Work>
    </rdf:RDF>
  </metadata>
  <g
     transform="translate(0,-169.99998)"
     id="layer1"
     inkscape:groupmode="layer"
     inkscape:label="Layer 1">
    <path
       style="fill:#ff0000;fill-rule:evenodd;stroke:#000000;stroke-width:0.26458332px;stroke-linecap:butt;stroke-linejoin:miter;stroke-opacity:1"
       d="m 37.311725,175.53877 c 1.847825,0.0698 3.088218,0.85462 3.224549,2.93924 2.813209,0.45272 2.963635,1.71274 3.224548,2.93925 -8.042358,2.21003 -4.325408,4.01289 0.750981,5.45848 0.251952,0.98265 0.825418,2.86889 -2.33849,2.91375 0.373018,1.4692 0.618564,2.87641 -2.230657,2.77939 -3.760446,-6.33926 -5.905729,-4.40399 -6.157011,1.80896 -2.658349,0.84447 -4.076934,-0.0571 -4.01237,-3.04749 -3.899812,1.19374 -3.683512,-1.28306 -4.149372,-3.15155 7.426661,-0.63329 6.952521,-6.13505 0.44533,-5.27629 -0.0557,-1.63315 -0.1244,-3.27423 2.446671,-3.31279 -0.445467,-2.59035 1.110965,-2.66019 2.330004,-3.15484 1.257927,7.62297 7.046686,4.45962 6.465817,-0.89611 z"
       id="path11517"
       class="custom_colour"
       inkscape:connector-curvature="0"
       sodipodi:nodetypes="ccccccccccccc" />
    <ellipse
       style="opacity:1;fill:#000000;fill-opacity:1;stroke:#00000b;stroke-width:0.79374999;stroke-linecap:butt;stroke-linejoin:round;stroke-miterlimit:4;stroke-dasharray:none;stroke-dashoffset:161.19683838;stroke-opacity:1"
       id="path11515"
       cx="-62.554855"
       cy="203.26189"
       rx="34.962795"
       ry="33.072918"
       transform="scale(-1,1)" />
    <path
       sodipodi:nodetypes="ccccc"
       inkscape:connector-curvature="0"
       id="path5851"
       class="custom_colour"
       d="M 79.744841,228.87046 100.53353,296.33921 27.20615,295.96124 47.0499,229.24843 Z"
       style="fill:#d40000;fill-rule:evenodd;stroke:#000000;stroke-width:1.76499999;stroke-linecap:butt;stroke-linejoin:miter;stroke-miterlimit:4;stroke-dasharray:none;stroke-opacity:1" />
  </g>
</svg>
