<?xml version="1.0" encoding="UTF-8" standalone="no"?>
<svg width="900" height="900" xmlns="http://www.w3.org/2000/svg">
  <style>
    .my_text {
      font: italic 32px sans-serif;
    }
  </style>

  <rect x="0" y="0" width="50" height="50"/>
  <rect x="0" y="850" width="50" height="50"/>
  <rect x="850" y="0" width="50" height="50"/>
  <rect x="850" y="850" width="50" height="50"/>

  <rect x="50" y="0" width="100" height="50" fill="none" stroke="black"/>
  <rect x="150" y="0" width="100" height="50" fill="none" stroke="black"/>
  <rect x="250" y="0" width="100" height="50" fill="none" stroke="black"/>
  <rect x="350" y="0" width="100" height="50" fill="none" stroke="black"/>
  <rect x="450" y="0" width="100" height="50" fill="none" stroke="black"/>
  <rect x="550" y="0" width="100" height="50" fill="none" stroke="black"/>
  <rect x="650" y="0" width="100" height="50" fill="none" stroke="black"/>
  <rect x="750" y="0" width="100" height="50" fill="none" stroke="black"/>

  <rect x="50" y="850" width="100" height="50" fill="none" stroke="black"/>
  <rect x="150" y="850" width="100" height="50" fill="none" stroke="black"/>
  <rect x="250" y="850" width="100" height="50" fill="none" stroke="black"/>
  <rect x="350" y="850" width="100" height="50" fill="none" stroke="black"/>
  <rect x="450" y="850" width="100" height="50" fill="none" stroke="black"/>
  <rect x="550" y="850" width="100" height="50" fill="none" stroke="black"/>
  <rect x="650" y="850" width="100" height="50" fill="none" stroke="black"/>
  <rect x="750" y="850" width="100" height="50" fill="none" stroke="black"/>

  <rect x="0" y="50" width="50" height="100" fill="none" stroke="black"/>
  <rect x="0" y="150" width="50" height="100" fill="none" stroke="black"/>
  <rect x="0" y="250" width="50" height="100" fill="none" stroke="black"/>
  <rect x="0" y="350" width="50" height="100" fill="none" stroke="black"/>
  <rect x="0" y="450" width="50" height="100" fill="none" stroke="black"/>
  <rect x="0" y="550" width="50" height="100" fill="none" stroke="black"/>
  <rect x="0" y="650" width="50" height="100" fill="none" stroke="black"/>
  <rect x="0" y="750" width="50" height="100" fill="none" stroke="black"/>

  <rect x="850" y="50" width="50" height="100" fill="none" stroke="black"/>
  <rect x="850" y="150" width="50" height="100" fill="none" stroke="black"/>
  <rect x="850" y="250" width="50" height="100" fill="none" stroke="black"/>
  <rect x="850" y="350" width="50" height="100" fill="none" stroke="black"/>
  <rect x="850" y="450" width="50" height="100" fill="none" stroke="black"/>
  <rect x="850" y="550" width="50" height="100" fill="none" stroke="black"/>
  <rect x="850" y="650" width="50" height="100" fill="none" stroke="black"/>
  <rect x="850" y="750" width="50" height="100" fill="none" stroke="black"/>

  <text x="110" y="14" class="my_text" rotate="180">A</text>
  <text x="210" y="14" class="my_text" rotate="180">B</text>
  <text x="310" y="14" class="my_text" rotate="180">C</text>
  <text x="410" y="14" class="my_text" rotate="180">D</text>
  <text x="510" y="14" class="my_text" rotate="180">E</text>
  <text x="610" y="14" class="my_text" rotate="180">F</text>
  <text x="710" y="14" class="my_text" rotate="180">G</text>
  <text x="810" y="14" class="my_text" rotate="180">H</text>

  <text x="886" y="92" class="my_text" rotate="180">8</text>
  <text x="886" y="192" class="my_text" rotate="180">7</text>
  <text x="886" y="292" class="my_text" rotate="180">6</text>
  <text x="886" y="392" class="my_text" rotate="180">5</text>
  <text x="886" y="492" class="my_text" rotate="180">4</text>
  <text x="886" y="592" class="my_text" rotate="180">3</text>
  <text x="886" y="692" class="my_text" rotate="180">2</text>
  <text x="886" y="792" class="my_text" rotate="180">1</text>

  <text x="90" y="886" class="my_text">A</text>
  <text x="190" y="886" class="my_text">B</text>
  <text x="290" y="886" class="my_text">C</text>
  <text x="390" y="886" class="my_text">D</text>
  <text x="490" y="886" class="my_text">E</text>
  <text x="590" y="886" class="my_text">F</text>
  <text x="690" y="886" class="my_text">G</text>
  <text x="790" y="886" class="my_text">H</text>

  <text x="14" y="110" class="my_text">8</text>
  <text x="14" y="210" class="my_text">7</text>
  <text x="14" y="310" class="my_text">6</text>
  <text x="14" y="410" class="my_text">5</text>
  <text x="14" y="510" class="my_text">4</text>
  <text x="14" y="610" class="my_text">3</text>
  <text x="14" y="710" class="my_text">2</text>
  <text x="14" y="810" class="my_text">1</text>
</svg>
