<?xml version="1.0" encoding="UTF-8" standalone="no"?>
<!-- Created with Inkscape (http://www.inkscape.org/) -->

<svg
   xmlns:dc="http://purl.org/dc/elements/1.1/"
   xmlns:cc="http://creativecommons.org/ns#"
   xmlns:rdf="http://www.w3.org/1999/02/22-rdf-syntax-ns#"
   xmlns:svg="http://www.w3.org/2000/svg"
   xmlns="http://www.w3.org/2000/svg"
   xmlns:sodipodi="http://sodipodi.sourceforge.net/DTD/sodipodi-0.dtd"
   xmlns:inkscape="http://www.inkscape.org/namespaces/inkscape"
   width="480"
   height="480"
   viewBox="0 0 127 127"
   version="1.1"
   id="svg8"
   inkscape:version="0.92.2 5c3e80d, 2017-08-06"
   sodipodi:docname="knight_back.svg">
  <defs
     id="defs2" />
  <sodipodi:namedview
     id="base"
     pagecolor="#ffffff"
     bordercolor="#666666"
     borderopacity="1.0"
     inkscape:pageopacity="0.0"
     inkscape:pageshadow="2"
     inkscape:zoom="0.98994949"
     inkscape:cx="222.85714"
     inkscape:cy="134.08246"
     inkscape:document-units="mm"
     inkscape:current-layer="layer1"
     showgrid="false"
     units="px"
     inkscape:window-width="1920"
     inkscape:window-height="956"
     inkscape:window-x="1280"
     inkscape:window-y="0"
     inkscape:window-maximized="1" />
  <metadata
     id="metadata5">
    <rdf:RDF>
      <cc:Work
         rdf:about="">
        <dc:format>image/svg+xml</dc:format>
        <dc:type
           rdf:resource="http://purl.org/dc/dcmitype/StillImage" />
        <dc:title></dc:title>
      </cc:Work>
    </rdf:RDF>
  </metadata>
  <g
     inkscape:label="Layer 1"
     inkscape:groupmode="layer"
     id="layer1"
     transform="translate(0,-169.99998)">
    <path
       style="fill:#803300;fill-opacity:1;fill-rule:evenodd;stroke:#000000;stroke-width:2.96420574;stroke-linecap:butt;stroke-linejoin:miter;stroke-miterlimit:4;stroke-dasharray:none;stroke-opacity:1"
       d="m 44.01818,218.16903 7.923916,5.2251 c 8.28629,-6.24782 17.035456,-8.61096 27.073369,-0.15834 l 6.603263,-5.38343 -2.311143,6.96678 c -13.619703,57.03952 -24.259576,56.80798 -35.987772,1.42504 z"
       id="path8901"
       inkscape:connector-curvature="0"
       sodipodi:nodetypes="ccccccc" />
    <path
       style="fill:#803300;fill-rule:evenodd;stroke:#000000;stroke-width:2.87865877;stroke-linecap:butt;stroke-linejoin:miter;stroke-miterlimit:4;stroke-dasharray:none;stroke-opacity:1"
       d="m 51.611931,247.77793 c -9.53722,32.4989 6.338414,69.8402 12.706061,29.68905 0.08303,-0.52357 1.573569,-0.21264 1.653136,0.30914 6.177739,40.51067 21.073729,0.6996 11.063357,-29.83965"
       id="path8922"
       inkscape:connector-curvature="0"
       sodipodi:nodetypes="cssc" />
    <path
       style="fill:#ff0000;fill-rule:evenodd;stroke:#000000;stroke-width:0.95254326;stroke-linecap:butt;stroke-linejoin:miter;stroke-miterlimit:4;stroke-dasharray:none;stroke-opacity:1"
       d="m 58.798904,213.17366 c -3.340945,0.34465 -8.847393,1.48543 -10.371109,5.89896 l -0.231523,28.21521 12.268311,7.86879 3.011338,-7.7648 3.705855,7.57103 13.659023,-7.45285 v -28.43738 c -3.437588,-4.91342 -8.828704,-5.64611 -11.675164,-6.02161"
       id="path5161"
       inkscape:connector-curvature="0"
       sodipodi:nodetypes="ccccccccc" />
    <path
       style="fill:#000000;fill-rule:evenodd;stroke:#000000;stroke-width:0.31751442px;stroke-linecap:butt;stroke-linejoin:miter;stroke-opacity:1"
       d="m 54.447353,205.29826 v -26.21569 c -0.156744,-11.04212 19.531035,-9.99531 19.216281,0 l -0.231524,26.43786 c -0.506399,11.59137 -19.149438,11.34504 -18.984757,-0.22217 z"
       id="path5110"
       inkscape:connector-curvature="0"
       sodipodi:nodetypes="ccccc" />
    <path
       style="fill:none;fill-rule:evenodd;stroke:#000000;stroke-width:0.6633926;stroke-linecap:butt;stroke-linejoin:miter;stroke-miterlimit:4;stroke-dasharray:none;stroke-opacity:1"
       d="m 55.171643,274.62972 c 0,-1.29374 0,-2.58746 0,-3.88119 0,-0.44783 0,-0.89567 0,-1.3435 0,-0.12936 -0.03474,-0.51064 0,-0.59711 0.0424,-0.10547 0.137522,-0.193 0.179927,-0.29855 0.04125,-0.1026 -0.05307,-0.35975 0,-0.44784 0.03793,-0.0629 0.141996,-0.0863 0.179926,-0.14927 0.0492,-0.0817 -0.0306,-0.34624 0,-0.44784 0.046,-0.15264 0.133923,-0.29517 0.179927,-0.44781 0.03607,-0.11968 -0.04611,-0.52057 0,-0.59712 0.03793,-0.0629 0.141997,-0.0863 0.179927,-0.14927 0.02682,-0.0445 -0.01896,-0.10205 0,-0.14928 0.08481,-0.21111 0.275034,-0.386 0.359852,-0.59711 0.03793,-0.0943 -0.05364,-0.20954 0,-0.29855 0.03793,-0.0629 0.119947,-0.0995 0.179925,-0.14928 0.05998,-0.0497 0.109352,-0.11021 0.179928,-0.14929 0.111585,-0.0616 0.265029,-0.0706 0.359853,-0.14925 0.09484,-0.0787 0.0851,-0.21989 0.179927,-0.29856 0.09484,-0.0786 0.265019,-0.0707 0.359853,-0.14928 0.0424,-0.0352 -0.02682,-0.1047 0,-0.14928 0.03793,-0.0629 0.119955,-0.0995 0.179925,-0.14927 0.172205,-0.14288 0.393831,-0.28639 0.539779,-0.44784 0.129748,-0.14353 0.239902,-0.29854 0.359853,-0.44782 0,-0.0497 -0.02682,-0.10481 0,-0.14929 0.03793,-0.0629 0.141999,-0.0863 0.179928,-0.14926 0.02682,-0.0444 -0.02682,-0.1047 0,-0.14929 0.07585,-0.12588 0.283993,-0.17268 0.359852,-0.29854 0.02682,-0.0445 -0.02682,-0.10481 0,-0.14928 0.03793,-0.0629 0.132875,-0.0907 0.179925,-0.14929 0.07439,-0.0926 0.105534,-0.20596 0.179927,-0.29855 0.176506,-0.21965 0.543201,-0.37745 0.719706,-0.59711 0.03327,-0.0413 -0.04241,-0.11399 0,-0.14927 0.09483,-0.0786 0.265028,-0.0707 0.359852,-0.14927 0.446061,-0.37007 0.255818,-0.39301 0.539781,-0.74639 0.154591,-0.19239 0.543686,-0.40239 0.719704,-0.59712 0.129747,-0.14352 0.230108,-0.30429 0.359855,-0.44781 0.172288,-0.19059 0.527969,-0.43804 0.719706,-0.59712 0.05998,-0.0497 0.141994,-0.0863 0.179925,-0.14927 0.09631,-0.1598 -0.155802,-0.31857 0.179927,-0.5971 0.09483,-0.0786 0.248267,-0.0876 0.359852,-0.14929 0.07057,-0.039 0.119949,-0.0995 0.179928,-0.14928 0.05998,-0.0498 0.141995,-0.0863 0.179925,-0.14927 0.02682,-0.0444 -0.02682,-0.1047 0,-0.14928 0.07586,-0.12588 0.258071,-0.18596 0.359852,-0.29854 0.129747,-0.14354 0.230107,-0.30432 0.359854,-0.44784 0.05089,-0.0563 0.153107,-0.0826 0.179927,-0.14928 0.01295,-0.0323 -0.03294,-0.55611 0,-0.5971 0.213021,-0.26511 0.479801,-0.4976 0.719703,-0.74639 -0.015,0.0872 -0.02998,0.17417 -0.04498,0.26124 0,0.0746 0.01116,0.14984 0,0.22391 -0.0041,0.0277 -0.03946,0.0472 -0.04499,0.0746 -0.01479,0.0736 0.01479,0.15028 0,0.22391 -0.01218,0.0606 -0.05941,0.19786 -0.08996,0.26123 -0.01246,0.0258 -0.03686,0.0476 -0.04499,0.0746 -0.0072,0.0242 0,0.0497 0,0.0746 0,0.0125 0.0055,0.0257 0,0.0374 -0.02491,0.0517 -0.06507,0.0977 -0.08996,0.14928 -0.0055,0.0115 0.0067,0.0261 0,0.0374 -0.0095,0.0157 -0.03551,0.0216 -0.04499,0.0374 -0.01341,0.0223 0.01341,0.0523 0,0.0746 -0.01849,0.0307 -0.157748,0.12167 -0.179926,0.14926 -0.0083,0.01 0.0048,0.0255 0,0.0374 -0.01061,0.0265 -0.02638,0.0516 -0.04499,0.0746 -0.02353,0.0293 -0.07099,0.0432 -0.08996,0.0746 -0.0067,0.0115 0.0067,0.0262 0,0.0374 -0.0095,0.0158 -0.03827,0.0207 -0.04499,0.0374 -0.0095,0.0237 0.0095,0.051 0,0.0746 -0.0067,0.0166 -0.03322,0.0226 -0.04499,0.0374 -0.110497,0.0133 -0.01868,0.0792 -0.04499,0.11192 -0.02353,0.0293 -0.06645,0.0454 -0.08996,0.0746 -0.0083,0.01 0.0048,0.0255 0,0.0374 -0.01061,0.0263 -0.03437,0.0482 -0.04499,0.0746 -0.0095,0.0237 0.01341,0.0524 0,0.0746 -0.02699,0.0447 -0.107957,0.0671 -0.134947,0.11193 -0.0067,0.0115 0,0.0249 0,0.0374 -0.015,0.0373 -0.02377,0.0768 -0.04499,0.11193 -0.102931,0.1708 0.01864,-0.15836 -0.08996,0.11193 -0.0048,0.0117 0.0089,0.0273 0,0.0373 -0.03817,0.0421 -0.102216,0.0667 -0.134946,0.11193 -0.01542,0.0214 0.0095,0.051 0,0.0746 -0.0067,0.0166 -0.03322,0.0226 -0.04499,0.0374 -0.01911,0.0238 -0.127651,0.19969 -0.134945,0.2239 -0.0072,0.0242 0,0.0498 0,0.0746 0,0.0123 0.0067,0.0262 0,0.0373 -0.0095,0.0157 -0.03551,0.0216 -0.04499,0.0374 -0.0067,0.0115 0,0.0249 0,0.0374 -0.015,0.0249 -0.02638,0.0516 -0.04499,0.0746 -0.02352,0.0293 -0.07655,0.0412 -0.08996,0.0746 -0.0095,0.0237 0.0095,0.051 0,0.0746 -0.0067,0.0166 -0.03322,0.0226 -0.04499,0.0373 -4.53e-4,5.4e-4 -0.08955,0.14875 -0.08996,0.14927 -0.02352,0.0293 -0.07099,0.0432 -0.08996,0.0746 -0.0212,0.0352 -0.02377,0.0768 -0.04499,0.11193 -0.02418,0.04 -0.05752,0.0762 -0.08996,0.11193 -0.01272,0.014 -0.03551,0.0216 -0.04499,0.0373 -0.0067,0.0115 0.0067,0.0262 0,0.0374 -0.0391,0.0649 -0.09584,0.12171 -0.134944,0.18659 -0.0212,0.0352 -0.02376,0.0768 -0.04499,0.11193 -0.0095,0.0158 -0.03551,0.0216 -0.04499,0.0373 -0.0067,0.0115 0,0.0249 0,0.0374 0,0.0249 0.0095,0.051 0,0.0746 -0.0067,0.0166 -0.03827,0.0207 -0.04499,0.0374 -0.0095,0.0237 0.0095,0.051 0,0.0746 -0.01182,0.0294 -0.158303,0.11342 -0.179926,0.14927 -0.128735,0.2136 0.02795,0.0236 -0.08996,0.18659 -0.09738,0.13465 -0.102727,0.10117 -0.179926,0.26124 -0.0056,0.0115 0.0083,0.027 0,0.0374 -0.02352,0.0293 -0.06452,0.0465 -0.08997,0.0746 -0.02012,0.0223 -0.02835,0.0505 -0.04499,0.0746 -0.04338,0.0629 -0.08645,0.12623 -0.134945,0.18658 -0.04159,0.0518 -0.09775,0.0953 -0.134945,0.14929 -0.02353,0.0341 -0.02376,0.0768 -0.04499,0.11193 -0.278864,0.46272 0.181865,-0.45157 -0.224909,0.33588 -0.01182,0.0229 0.01663,0.054 0,0.0746 -0.05326,0.0662 -0.129042,0.11904 -0.179926,0.18658 -0.02513,0.0333 -0.02376,0.0768 -0.04499,0.11192 -0.06859,0.11377 -0.03566,-0.0682 -0.08996,0.11193 -0.0072,0.0242 0.0095,0.0509 0,0.0746 -0.0067,0.0166 -0.0355,0.0216 -0.04499,0.0375 -0.02121,0.0352 -0.02378,0.0768 -0.04499,0.11193 -0.01896,0.0314 -0.071,0.0432 -0.08996,0.0746 -0.0067,0.0115 0,0.0249 0,0.0375 -0.02998,0.0249 -0.06452,0.0465 -0.08996,0.0746 -0.02432,0.027 -0.118035,0.18885 -0.134945,0.22391 -0.01761,0.0365 -0.01653,0.0805 -0.04499,0.11193 -0.05462,0.0226 -0.1006,0.032 -0.134945,0.0746 -0.07861,0.0979 -0.01682,0.0652 -0.08996,0.18659 -0.0095,0.0158 -0.03225,0.0232 -0.04499,0.0373 -0.03243,0.0358 -0.05752,0.0762 -0.08996,0.11194 -0.05761,0.0637 -0.126672,0.12031 -0.179928,0.1866 -0.0083,0.01 0,0.0249 0,0.0372 -0.07496,0.0872 -0.133702,0.18557 -0.224907,0.26124 -0.06182,0.0512 -0.152163,0.0717 -0.224909,0.11193 -0.05276,0.0292 -0.110846,0.12427 -0.134944,0.14926 -0.09118,0.0946 -0.207777,0.13507 -0.314871,0.22392 -0.03823,0.0317 -0.0562,0.0769 -0.08996,0.11194 -0.05622,0.0583 -0.157575,0.13073 -0.224907,0.18659 -0.015,0.0125 -0.03551,0.0216 -0.04499,0.0374 -0.0067,0.0115 0,0.0249 0,0.0374 -0.015,0.0249 -0.02487,0.0524 -0.04499,0.0746 -0.02545,0.0281 -0.05998,0.0498 -0.08996,0.0746 -0.015,0.0125 -0.03551,0.0216 -0.04499,0.0372 -0.0017,0.002 0.0017,0.0718 0,0.0746 -0.01896,0.0314 -0.07656,0.0412 -0.08996,0.0746 -0.0095,0.0237 0.0095,0.0509 0,0.0746 -0.0067,0.0166 -0.03551,0.0216 -0.04499,0.0372 -0.0067,0.0115 0.0067,0.0262 0,0.0374 -0.0095,0.0158 -0.0355,0.0216 -0.04499,0.0374 -0.01341,0.0223 0.01341,0.0523 0,0.0746 -0.0095,0.0158 -0.03711,0.0211 -0.04499,0.0375 -0.02297,0.0476 -0.009,0.10756 -0.04499,0.14925 -0.04357,0.0506 -0.119952,0.0746 -0.179927,0.11193 -0.05998,0.0623 -0.129042,0.11906 -0.179926,0.18659 -0.208703,0.27706 0.0053,0.0242 -0.04499,0.14929 -0.02553,0.0636 -0.06778,0.12219 -0.08996,0.18659 -0.0083,0.0239 0.0095,0.0509 0,0.0746 -0.0067,0.0166 -0.02998,0.0249 -0.04499,0.0373 -0.06694,0.0555 -0.06412,0.0421 -0.08996,0.14928 -0.0059,0.0245 0,0.0497 0,0.0746 0,0.0622 0,0.12439 0,0.1866 0,0.0249 0.0072,0.0505 0,0.0746 -0.113618,0.37704 0.01624,-0.027 -0.08996,0.14926 -0.0212,0.0353 -0.02737,0.0754 -0.04499,0.11193 -0.01246,0.0258 -0.03685,0.0476 -0.04499,0.0746 -0.01818,0.0604 0.01471,0.1256 0,0.1866 -0.02995,0.12426 -0.06427,0.0321 -0.134945,0.14927 -0.01306,0.0216 0.01326,0.20192 0,0.22392 -0.0095,0.0158 -0.03551,0.0216 -0.04499,0.0373 -0.0067,0.0115 0.0067,0.0262 0,0.0374 -0.106206,0.17622 0.02366,-0.22779 -0.08996,0.14928 -0.01091,0.0361 0.01092,0.0758 0,0.11193 -0.0082,0.027 -0.03438,0.0482 -0.04499,0.0746 -0.01437,0.0358 0.01389,0.15204 0,0.18661 -0.0067,0.0166 -0.03984,0.0202 -0.04499,0.0374 -0.0068,0.0223 0,0.23614 0,0.26124 0,0.0249 0.0095,0.051 0,0.0746 -0.0067,0.0166 -0.03827,0.0207 -0.04499,0.0372 -0.01423,0.0354 0,0.0746 0,0.11192 0,0.0746 0,0.14929 0,0.22393 0,0.2861 0,0.57222 0,0.85834 0,0.0872 0,0.17415 0,0.26123 0,0.0128 0.0082,0.12909 0,0.14928 -0.0212,0.0528 -0.06875,0.0965 -0.08996,0.14927 -0.01423,0.0354 0.01423,0.0766 0,0.11193 -0.0067,0.0166 -0.03551,0.0216 -0.04499,0.0374 -0.01438,0.0239 0.01207,0.11925 0,0.14928 -0.01061,0.0265 -0.03686,0.0476 -0.04499,0.0746 -0.0055,0.0182 0.01189,0.12955 0,0.14929 -0.0095,0.0158 -0.03551,0.0216 -0.04499,0.0372 -0.01291,0.0214 0.01207,0.19385 0,0.22389 -0.0067,0.0166 -0.03551,0.0216 -0.04499,0.0375 -0.0067,0.0115 0.0048,0.0255 0,0.0374 -0.015,0.0249 -0.02998,0.0497 -0.04499,0.0746 0,0.0125 0.0048,0.0254 0,0.0374 -0.01061,0.0265 -0.03686,0.0476 -0.04499,0.0746 -0.01004,0.0333 0,0.1434 0,0.1866 0,0.0125 0.0048,0.0255 0,0.0372 -0.01061,0.0265 -0.03438,0.0483 -0.04499,0.0746 -0.01577,0.0392 0.02152,0.15981 0,0.18659 -0.109574,0.13638 -0.06584,-0.0401 -0.134945,0.0746 -0.0067,0.0115 0.0067,0.0263 0,0.0374 -0.0095,0.0158 -0.03173,0.0237 -0.04499,0.0374 -0.04683,0.0486 -0.09638,0.096 -0.134944,0.14927 -0.0078,0.01 0.002,0.0249 0,0.0374 -0.01314,0.0873 -0.0242,0.17499 -0.04499,0.26124 -0.0093,0.0386 -0.03348,0.0738 -0.04499,0.11193 -0.0077,0.0254 0.0123,0.0915 0,0.11192 -0.0095,0.0158 -0.03827,0.0207 -0.04499,0.0373 -0.01423,0.0354 0.01423,0.0766 0,0.11194 -0.01061,0.0263 -0.03438,0.0482 -0.04499,0.0746 -0.0082,0.0202 0,0.13657 0,0.14928 0,0.11193 0,0.22392 0,0.33588 0,0.0373 0.0167,0.0774 0,0.11193 -0.01575,0.0327 -0.06643,0.0454 -0.08996,0.0746 -0.0083,0.01 0,0.0249 0,0.0375 0,0.0249 0,0.0497 0,0.0746 0,0.0621 0,0.1244 0,0.1866 0,0.17415 0,0.34829 0,0.52245 0,0.0622 0,0.1244 0,0.18661 0,0.0125 0,0.0249 0,0.0375 0,0.0125 -0.0067,0.0262 0,0.0374 0.0095,0.0158 0.03551,0.0216 0.04499,0.0375 0.018,0.0299 -0.018,0.0821 0,0.11192 0.05559,0.0921 0.04499,-0.0129 0.04499,0.0746"
       id="path4531"
       inkscape:connector-curvature="0" />
    <path
       style="fill:none;fill-rule:evenodd;stroke:#000000;stroke-width:0.6633926;stroke-linecap:butt;stroke-linejoin:miter;stroke-miterlimit:4;stroke-dasharray:none;stroke-opacity:1"
       d="m 65.607374,254.92518 c 0.01499,0.0249 0.03438,0.0483 0.04499,0.0746 0.0048,0.0117 0,0.0249 0,0.0374 0,0.0497 0,0.0995 0,0.14926 0,0.0123 -0.0067,0.0261 0,0.0374 0.109941,0.18242 0.07841,0.0364 0.134945,0.2239 0.01599,0.053 -0.01995,0.13696 0,0.18661 0.0067,0.0167 0.03984,0.0202 0.04499,0.0373 0.01092,0.0362 0,0.0746 0,0.11193 0,0.0746 0,0.14929 0,0.22393 0,0.21147 0,0.42294 0,0.63441 0,0.13685 0,0.27368 0,0.41051 0,0.0249 0,0.0498 0,0.0746 0,0.0249 0.01662,0.054 0,0.0746 -0.0186,0.0231 -0.06984,0.015 -0.08996,0.0373 -0.02844,0.0315 -0.02377,0.0768 -0.04499,0.11194 -0.0095,0.0157 -0.03827,0.0205 -0.04499,0.0373 -0.02844,0.0335 0.01424,0.0766 0,0.11192 -0.05437,0.13529 -0.02134,0.0266 -0.08997,0.11193 -0.01499,0.0249 -0.02998,0.0497 -0.04499,0.0746 0,0.0125 0.0067,0.0262 0,0.0374 -0.02419,0.0402 -0.06215,0.0736 -0.08996,0.11193 -0.0991,0.0188 -0.02378,0.0768 -0.04499,0.11192 -0.0095,0.0158 -0.03551,0.0216 -0.04499,0.0374 -0.0067,0.0115 0.0055,0.0257 0,0.0374 -0.02491,0.0517 -0.06507,0.0975 -0.08997,0.14925 -0.0055,0.0116 0.0067,0.0263 0,0.0374 -0.06367,0.10558 -0.171247,0.1794 -0.269889,0.26124 -0.01499,0.0125 -0.03551,0.0216 -0.04499,0.0374 -0.0067,0.0115 0.0067,0.0262 0,0.0373 -0.0094,0.0158 -0.02998,0.0249 -0.04499,0.0374 -0.02998,0.0373 -0.06867,0.0708 -0.08996,0.11192 -0.02436,0.0472 -0.01733,0.10338 -0.04499,0.14928 -0.146453,0.24302 -0.04507,-0.0744 -0.134946,0.14928 -0.0048,0.0117 0,0.0249 0,0.0374 0,0.0555 0.0067,0.0476 -0.04499,0.11192 -0.149185,0.12378 0.02121,-0.0353 -0.04499,0.0746 -0.0032,0.006 -0.08677,0.0693 -0.08996,0.0746 -0.0067,0.0115 0.0067,0.0262 0,0.0374 -0.0095,0.0158 -0.03985,0.0202 -0.04499,0.0374 -0.01092,0.0362 0.01091,0.0757 0,0.11192 -0.008,0.0263 -0.17661,0.10922 -0.179927,0.11194 -0.01061,0.009 0.0036,0.0252 0,0.0373 -0.01148,0.0381 -0.02737,0.0754 -0.04499,0.11193 -0.01244,0.0258 -0.02638,0.0516 -0.04499,0.0746 -0.06862,0.0854 -0.0356,-0.0234 -0.08997,0.11193 -0.0048,0.0117 0.0067,0.0262 0,0.0374 -0.0094,0.0158 -0.03322,0.0226 -0.04499,0.0373 -0.0186,0.0231 -0.02999,0.0497 -0.04499,0.0746 -0.01499,0.0249 -0.03253,0.0488 -0.04499,0.0746 -0.0176,0.0365 -0.02378,0.0768 -0.04499,0.11194 -0.05406,0.0896 -0.115026,0.17662 -0.179927,0.26123 -0.08049,0.10492 -0.195499,0.19054 -0.26989,0.29854 -0.02353,0.0341 -0.02378,0.0768 -0.04499,0.11193 -0.0094,0.0158 -0.03374,0.0224 -0.04499,0.0374 -0.06406,0.0851 -0.117731,0.17523 -0.179926,0.26124 -0.02781,0.0385 -0.06578,0.0718 -0.08997,0.11193 -0.07308,0.12126 -0.100854,0.25509 -0.179924,0.37318 0.153201,0.24035 -0.15473,0.19667 -0.224909,0.29855 -0.04991,0.0724 -0.08504,0.15146 -0.134943,0.22392 -0.01053,0.0152 -0.03551,0.0216 -0.04499,0.0372 -0.0134,0.0223 0.0072,0.0505 0,0.0746 -0.01149,0.0381 -0.02378,0.0768 -0.04499,0.11192 -0.102931,0.1708 0.01864,-0.15836 -0.08996,0.11193 -0.0094,0.0237 0.01339,0.0523 0,0.0746 -0.01896,0.0316 -0.07099,0.0432 -0.08996,0.0746 -0.0067,0.0115 0.0048,0.0255 0,0.0374 -0.01061,0.0265 -0.03438,0.0482 -0.04499,0.0746 -0.01955,0.0487 -0.01732,0.10349 -0.04499,0.14929 -0.01896,0.0314 -0.05997,0.0497 -0.08996,0.0746 -0.02998,0.0746 -0.04756,0.15354 -0.08996,0.22391 -0.01896,0.0314 -0.07099,0.0432 -0.08996,0.0746 -0.0134,0.0223 0.0094,0.0509 0,0.0746 -0.02121,0.0528 -0.06356,0.0982 -0.08997,0.14928 -0.01869,0.0361 -0.02377,0.0768 -0.04499,0.11193 -0.0095,0.0158 -0.03827,0.0206 -0.04499,0.0375 -0.02419,0.0602 -0.02398,0.12561 -0.04499,0.18661 -0.0092,0.0268 -0.03685,0.0476 -0.04499,0.0746 -0.0072,0.0242 0.0072,0.0505 0,0.0746 -0.01682,0.0558 -0.110759,0.14647 -0.134945,0.18659 -0.0067,0.0115 0.0083,0.027 0,0.0375 -0.02352,0.0293 -0.06452,0.0465 -0.08996,0.0746 -0.02013,0.0223 -0.02998,0.0497 -0.04499,0.0746 -0.01499,0.0249 -0.03438,0.0482 -0.04499,0.0746 -0.01955,0.0487 -0.03285,0.099 -0.04499,0.14927 -0.01123,0.0467 0.0225,0.056 0,0.11193 -0.0067,0.0166 -0.03551,0.0216 -0.04499,0.0374 -0.04499,0.0746 0.08997,0 0,0.11193 -0.0186,0.0231 -0.06626,0.0176 -0.08996,0.0373 -0.02121,0.0175 0.01339,0.0523 0,0.0746 -0.0095,0.0158 -0.03551,0.0216 -0.04499,0.0374 -0.0134,0.0223 0.0134,0.0523 0,0.0746 -0.0094,0.0158 -0.03827,0.0207 -0.04499,0.0374 -0.0085,0.0214 0,0.15156 0,0.1866 0,0.0249 0,0.0497 0,0.0746 -0.01499,0.0125 -0.03985,0.0202 -0.04499,0.0375 -0.0082,0.0269 0,0.18277 0,0.22392 0,0.0249 0.0072,0.0505 0,0.0746 -0.0082,0.027 -0.03686,0.0476 -0.04499,0.0746 -0.0072,0.0242 0.0072,0.0505 0,0.0746 -0.0082,0.027 -0.02998,0.0497 -0.04499,0.0746 -0.06247,0.1037 -0.141636,0.22468 -0.179925,0.33587 -0.0083,0.0239 0,0.0497 0,0.0746 0,0.0623 0.01627,0.12588 0,0.1866 -0.01456,0.0543 -0.05998,0.0995 -0.08996,0.14928 -0.01499,0.0249 -0.03946,0.0472 -0.04499,0.0746 -0.0098,0.049 0.0099,0.10018 0,0.14927 -0.0055,0.0274 -0.03438,0.0482 -0.04499,0.0746 -0.01423,0.0354 0.0088,0.0753 0,0.11193 -0.0093,0.0386 -0.03348,0.0738 -0.04499,0.11193 -0.0072,0.0242 0,0.0497 0,0.0746 0,0.0622 0,0.12439 0,0.18659 0,0.0249 0.0134,0.0523 0,0.0746 -0.03353,0.0555 -0.101417,0.0937 -0.134944,0.14928 -0.01339,0.0223 0.005,0.05 0,0.0746 -0.01018,0.0505 -0.03285,0.099 -0.04499,0.14929 -0.0225,0.0933 0.04499,-0.0375 0,0.11192 -0.0082,0.027 -0.03438,0.0482 -0.04499,0.0746 -0.0048,0.0117 0.0029,0.0251 0,0.0374 -0.08414,0.34903 -0.0041,-0.0233 -0.08996,0.26124 -0.0036,0.012 0,0.0249 0,0.0373 -0.01499,0.0622 -0.02644,0.12506 -0.04499,0.1866 -0.01149,0.0381 -0.02737,0.0754 -0.04499,0.11193 -0.01245,0.0258 -0.03841,0.0474 -0.04499,0.0746 -0.0088,0.0366 0.0088,0.0753 0,0.11193 -0.0066,0.0272 -0.03253,0.0488 -0.04499,0.0746 -0.01759,0.0365 -0.02377,0.0768 -0.04499,0.11194 -0.0094,0.0158 -0.03827,0.0207 -0.04499,0.0374 -0.0094,0.0237 0,0.0497 0,0.0746 0,0.0872 0,0.17415 0,0.26124 0,0.0621 0.01472,0.1256 0,0.18658 -0.0066,0.0272 -0.03946,0.0472 -0.04499,0.0746 -0.01295,0.0645 0,0.18476 0,0.26123 0,0.0249 0.0095,0.0509 0,0.0746 -0.01499,0.0249 -0.02998,0.0497 -0.04499,0.0746 0,0.0249 0.0095,0.0509 0,0.0746 -0.0067,0.0166 -0.03551,0.0216 -0.04499,0.0372 -0.0071,0.0119 0,0.15324 0,0.18661 0,0.18658 0,0.37319 0,0.55978 0,0.0284 0.0063,0.25073 0,0.26124 -0.01896,0.0314 -0.07099,0.0432 -0.08996,0.0746 -0.0134,0.0223 0.02121,0.0571 0,0.0746 -0.02371,0.0196 -0.07497,0.0125 -0.08997,0.0374 -0.02682,0.0444 0,0.0995 0,0.14929 0,0.0995 0,0.19902 0,0.29854 0,0.33588 0,0.67175 0,1.00762 0,0.11193 0,0.2239 0,0.33586 0,0.009 -0.0051,0.14093 0,0.14928 0.01896,0.0314 0.07099,0.0432 0.08997,0.0746 0.01413,0.0234 -0.01413,0.12581 0,0.14928 0.0094,0.0158 0.0355,0.0216 0.04499,0.0374 0.0134,0.0223 -0.0134,0.0523 0,0.0746 0.0094,0.0158 0.0355,0.0216 0.04499,0.0374 0.0067,0.0115 0,0.0249 0,0.0372 0,0.0125 0,0.0249 0,0.0374 0,0.0872 0,0.17415 0,0.26124 0,0.0137 0.0019,0.14776 0,0.14926 -0.05998,0.0497 -0.04317,-0.0792 -0.08996,0.0374 -0.0094,0.0237 0.0094,0.0509 0,0.0746 -0.0067,0.0166 -0.03322,0.0226 -0.04499,0.0374 -0.0186,0.0231 -0.02998,0.0497 -0.04499,0.0746 -0.01499,0.0249 -0.03686,0.0476 -0.04499,0.0746 -0.0072,0.0242 0,0.0498 0,0.0746 0,0.0123 -0.01499,-0.0374 0,-0.0374 0.01499,0 0,0.0249 0,0.0374"
       id="path4533"
       inkscape:connector-curvature="0" />
    <path
       style="fill:none;fill-rule:evenodd;stroke:#000000;stroke-width:0.6633926;stroke-linecap:butt;stroke-linejoin:miter;stroke-miterlimit:4;stroke-dasharray:none;stroke-opacity:1"
       d="m 62.323666,274.74139 c 0,-0.53491 0,-1.06981 0,-1.60473 0,-0.16172 0,-0.32342 0,-0.48514 0,-0.0386 -0.0085,-0.23281 0,-0.26124 0.0082,-0.027 0.03438,-0.0482 0.04499,-0.0746 0.0095,-0.0237 0,-0.0498 0,-0.0746 0,-0.0746 0,-0.14928 0,-0.22392 0,-0.1866 0,-0.3732 0,-0.55979 0,-0.0249 0,-0.0497 0,-0.0746 0,-0.0123 -0.0048,-0.0255 0,-0.0373 0.01061,-0.0264 0.03438,-0.0482 0.04499,-0.0746 0.0072,-0.0182 0,-0.24441 0,-0.26124 0,-0.14927 0,-0.29856 0,-0.44782 0,-0.12441 0,-0.2488 0,-0.37319 0,-0.0576 0.01061,-0.13384 0,-0.18661 -0.0079,-0.0388 -0.03566,-0.0734 -0.04499,-0.11192 -0.0059,-0.0245 0,-0.0497 0,-0.0746 0,-0.0497 0,-0.0995 0,-0.14927 0,-0.16172 0,-0.32344 0,-0.48514 0,-0.1244 0,-0.24881 0,-0.3732 0,-0.0257 -0.0068,-0.13789 0,-0.14928 0.01896,-0.0314 0.07099,-0.0432 0.08996,-0.0746 0.0067,-0.0115 0,-0.0249 0,-0.0374 0,-0.0284 -0.0043,-0.21483 0,-0.22391 0.01575,-0.0327 0.071,-0.0432 0.08997,-0.0746 0.0134,-0.0223 -0.0041,-0.05 0,-0.0746 0.05526,-0.32099 0.02019,-0.067 0.08996,-0.29855 0.0036,-0.012 0,-0.0249 0,-0.0374 0,-0.0622 -0.0083,-0.12474 0,-0.1866 0.02294,-0.17135 0.07638,-0.15769 0.134944,-0.33588 0.153274,-0.46626 -0.0048,-0.0468 0.04499,-0.33586 0.02256,-0.13098 0.134141,-0.35287 0.179925,-0.44783 0.01245,-0.0258 0.02639,-0.0516 0.04499,-0.0746 0.01177,-0.0145 0.03985,-0.0202 0.04499,-0.0374 0.0025,-0.008 -0.01023,-0.16963 0,-0.18661 0.0095,-0.0159 0.03556,-0.0216 0.04499,-0.0373 0.01084,-0.0181 -0.0062,-0.24086 0,-0.26124 0.0052,-0.0171 0.03547,-0.0216 0.04499,-0.0374 0.01799,-0.0299 -0.01799,-0.0821 0,-0.11192 0.0095,-0.0159 0.03547,-0.0217 0.04499,-0.0375 0.0067,-0.0115 0,-0.0249 0,-0.0373 0,-0.0249 0,-0.0497 0,-0.0746 0,-0.0273 -0.0089,-0.18686 0,-0.2239 0.02565,-0.10646 0.103232,-0.19333 0.134945,-0.29857 0.01411,-0.0468 -0.01411,-0.10238 0,-0.14927 0.01627,-0.054 0.0737,-0.0953 0.08997,-0.14928 0.0072,-0.0242 -0.005,-0.05 0,-0.0746 0.01017,-0.0506 0.03286,-0.099 0.04499,-0.14929 0.0029,-0.0122 0,-0.0249 0,-0.0374 0,-0.0592 -0.0095,-0.24334 0,-0.29855 0.0087,-0.0508 0.02999,-0.0995 0.04499,-0.14928 0.015,-0.0498 0.02999,-0.0995 0.04499,-0.14928 0.015,-0.0497 0.02205,-0.10162 0.04499,-0.14928 0.008,-0.0163 0.02999,-0.0249 0.04499,-0.0374 0.02999,-0.0249 0.06815,-0.0444 0.08997,-0.0746 0.03249,-0.045 0.07525,-0.22466 0.08996,-0.26124 0.02553,-0.0636 0.06777,-0.12221 0.08996,-0.18658 0.0083,-0.024 -0.0095,-0.0511 0,-0.0746 0.0067,-0.0166 0.03831,-0.0207 0.04499,-0.0374 0.02419,-0.0602 0.02645,-0.12508 0.04499,-0.1866 0.0115,-0.0381 0.03196,-0.0741 0.04499,-0.11193 8.56e-4,-0.002 0.0897,-0.29793 0.08996,-0.29857 0.008,-0.0163 0.03985,-0.0202 0.04499,-0.0372 0.01091,-0.0361 0,-0.0746 0,-0.11192 0,-0.0125 -0.0053,-0.0257 0,-0.0374 0.04008,-0.0887 0.107248,-0.16931 0.134943,-0.26123 0.01819,-0.0604 0,-0.12442 0,-0.18659 0,-0.0125 0,-0.0249 0,-0.0374 0,-0.0125 -0.0067,-0.0262 0,-0.0373 0.0095,-0.0158 0.03556,-0.0216 0.04499,-0.0374 0.0067,-0.0115 -0.0048,-0.0255 0,-0.0374 0.01061,-0.0264 0.03946,-0.0473 0.04499,-0.0746 0.0098,-0.049 -0.01647,-0.10139 0,-0.14929 0.01485,-0.0431 0.06577,-0.0718 0.08996,-0.11193 0.0067,-0.0115 -0.0025,-0.025 0,-0.0372 0.01258,-0.0626 0.02645,-0.12507 0.04499,-0.1866 0.01151,-0.0381 0.02377,-0.0768 0.04499,-0.11194 0.0095,-0.0159 0.0408,-0.0201 0.04499,-0.0373 0.01177,-0.0488 -0.0098,-0.10018 0,-0.14928 0.02716,-0.13518 0.03856,-0.0267 0.08997,-0.11192 0.0134,-0.0223 -0.0072,-0.0505 0,-0.0746 0.01151,-0.0381 0.03347,-0.0738 0.04499,-0.11193 0.0072,-0.0242 -0.0134,-0.0523 0,-0.0746 0.0095,-0.0158 0.03556,-0.0216 0.04499,-0.0374 0.0134,-0.0223 -0.0094,-0.0509 0,-0.0746 0.04895,-0.12181 0.05876,-0.0312 0.08996,-0.18658 0.0075,-0.0368 0,-0.0746 0,-0.11193 0,-0.0126 -0.0048,-0.0256 0,-0.0374 0.0318,-0.0792 0.103139,-0.14477 0.134947,-0.22392 0.0094,-0.0237 0,-0.0497 0,-0.0746 0,-0.0249 0,-0.0497 0,-0.0746 0,-0.0374 -0.01092,-0.0757 0,-0.11193 0.0052,-0.0171 0.03661,-0.0212 0.04499,-0.0374 0.03735,-0.0723 0.05474,-0.15086 0.08996,-0.22392 0.0249,-0.0517 0.06356,-0.0982 0.08996,-0.14928 0.01868,-0.036 0.02376,-0.0768 0.04499,-0.11193 0.0095,-0.0158 0.0408,-0.0201 0.04499,-0.0373 0.01177,-0.0488 0,-0.0995 0,-0.14927 0,-0.0249 -0.0095,-0.0509 0,-0.0746 0.0067,-0.0166 0.03832,-0.0207 0.04499,-0.0374 0.01424,-0.0354 0,-0.0746 0,-0.11193 0,-0.0221 -0.0084,-0.20993 0,-0.22391 0.01896,-0.0314 0.06643,-0.0454 0.08996,-0.0746 0.0083,-0.01 0,-0.0249 0,-0.0374 0,-0.0374 0,-0.0746 0,-0.11193 0,-0.0249 -0.0059,-0.0503 0,-0.0746 0.0186,-0.0771 0.06695,-0.14761 0.08996,-0.22391 0.0036,-0.012 0,-0.0249 0,-0.0374 0,-0.0374 -0.0088,-0.0753 0,-0.11192 0.0066,-0.0272 0.03438,-0.0483 0.04499,-0.0746 0.0048,-0.0117 -0.0029,-0.025 0,-0.0374 0.08415,-0.34902 0.0041,0.0232 0.08996,-0.26124 0.0036,-0.012 0,-0.0249 0,-0.0373 0,-0.0497 0,-0.0995 0,-0.14928 0,-0.0622 0,-0.12442 0,-0.18659 0,-0.28611 0,-0.57223 0,-0.85835 0,-0.23634 0,-0.47271 0,-0.70906 0,-0.0758 0,-0.0745 0,-0.22391 0,-0.0249 0.01053,-0.0513 0,-0.0746 -0.03532,-0.078 -0.08996,-0.14927 -0.134948,-0.22392 -0.015,0.0622 -0.03736,0.12348 -0.04498,0.18659 -0.01044,0.0867 0,0.17417 0,0.26124 0,0.016 0,0.60557 0,0.63445 0,0.58465 0,1.16932 0,1.754 0,0.21799 0.0064,0.0324 -0.04499,0.37318 -0.002,0.0122 0.0025,0.025 0,0.0373 -0.01256,0.0626 -0.03551,0.12365 -0.04499,0.18659 -0.01302,0.0864 0.01302,0.17484 0,0.26124 -0.0078,0.0509 -0.03731,0.0984 -0.04499,0.14929 -0.0075,0.0494 0,0.0995 0,0.14926 0,0.0374 0.01236,0.0762 0,0.11193 -0.01842,0.0534 -0.07154,0.0958 -0.08996,0.14927 -0.01236,0.0358 0.0064,0.0751 0,0.11193 -0.0087,0.0507 -0.03731,0.0984 -0.04499,0.14927 -0.0111,0.0738 0,0.18172 0,0.26124 0,0.0374 0.0088,0.0753 0,0.11192 -0.0066,0.0272 -0.03438,0.0482 -0.04499,0.0746 -0.0048,0.0117 0,0.0249 0,0.0374 0,0.0995 0,0.19904 0,0.29856 0,0.003 0,0.24677 0,0.26123 0,0.0125 0.0029,0.0251 0,0.0372 -0.01212,0.0503 -0.03482,0.0986 -0.04499,0.14927 -0.0099,0.049 0,0.0995 0,0.14929 0,0.12439 0,0.24879 0,0.37318 0,0.0249 0,0.0498 0,0.0746 0,0.0249 0.0095,0.0511 0,0.0746 -0.0067,0.0166 -0.03551,0.0216 -0.04499,0.0375 -0.0067,0.0115 0,0.0249 0,0.0374 0,0.0249 0,0.0498 0,0.0746 0,0.0746 0,0.14928 0,0.22391 0,0.0374 0,0.0746 0,0.11193 0,0.0126 0.0036,0.0252 0,0.0374 -0.0115,0.0381 -0.03568,0.0734 -0.04499,0.11193 -0.0089,0.037 0,0.19658 0,0.2239 0,0.13684 0,0.27367 0,0.41052 0,0.0497 0,0.0995 0,0.14928 0,0.0374 0.0082,0.0752 0,0.11192 -0.02212,0.10095 -0.06784,0.19763 -0.08996,0.29856 -0.0082,0.0367 0,0.0746 0,0.11192 0,0.0746 0.0089,0.14965 0,0.22392 -0.01497,0.12413 -0.106761,0.25628 -0.134944,0.37319 -0.01176,0.0488 0,0.0995 0,0.14929 -0.05998,0.13683 -0.128315,0.27134 -0.179926,0.4105 -0.0088,0.0238 0.0059,0.0503 0,0.0746 -0.0093,0.0386 -0.03569,0.0734 -0.04499,0.11194 -0.01176,0.0488 0,0.0995 0,0.14926 0,0.0622 0,0.1244 0,0.18659 0,0.0374 0,0.0746 0,0.11194 0,0.0125 0.0048,0.0255 0,0.0374 -0.01061,0.0265 -0.03438,0.0482 -0.04499,0.0746 -0.0048,0.0117 0.0048,0.0255 0,0.0372 -0.01061,0.0265 -0.0384,0.0474 -0.04499,0.0746 -0.0088,0.0366 0.02012,0.0786 0,0.11193 -0.015,0.0249 -0.07496,0.0123 -0.08996,0.0372 -0.02682,0.0445 0,0.0995 0,0.14928 0,0.0995 0,0.19903 0,0.29856 0,0.3483 0,0.69661 0,1.04493 0,0.46028 0,0.92055 0,1.38081 0,0.17416 0,0.34832 0,0.52247 0,0.0391 -0.0091,0.19356 0,0.22392 0.0082,0.027 0.03438,0.0482 0.04499,0.0746 0.0082,0.0202 0,0.13657 0,0.14929 0,0.0872 0,0.17415 0,0.26124 0,0.26123 0,0.52246 0,0.7837 0,0.0872 0,0.17416 0,0.26123 0,0.0497 -0.01176,0.1004 0,0.14928 -0.02712,0.0675 0.07287,0.0694 0.08997,0.11193 0.0095,0.0237 0,0.0497 0,0.0746 0,0.0125 0,0.0249 0,0.0373 0,0.0498 0,0.0995 0,0.14928 0,0.0249 -0.0059,0.0503 0,0.0746 0.0093,0.0386 0.03719,0.0732 0.04499,0.11194 0.0075,0.0368 0,0.0746 0,0.11193 0,0.0872 0,0.17415 0,0.26124 0,0.0249 0,0.0497 0,0.0746 0,0.0125 -0.0036,0.0252 0,0.0373 0.02301,0.0764 0.07136,0.14677 0.08996,0.22392 0.0059,0.0245 0,0.0497 0,0.0746 0,0.0746 0,0.14929 0,0.22393 0,0.14928 0,0.29854 0,0.44782 0,0.11192 0,0.22391 0,0.33588 0,0.0357 0.0061,0.0766 0,0.11192 -0.01291,0.0748 -0.02285,0.15052 -0.04499,0.22394 -0.0082,0.027 -0.02998,0.0497 -0.04499,0.0746 -0.02998,0.0872 -0.06629,0.17282 -0.08997,0.26123 -0.0065,0.0244 0.0083,0.0507 0,0.0746 -0.02218,0.0644 -0.07037,0.12161 -0.08996,0.1866 -0.01455,0.0482 0,0.0995 0,0.14928"
       id="path4535"
       inkscape:connector-curvature="0" />
    <path
       style="fill:none;fill-rule:evenodd;stroke:#000000;stroke-width:0.6633926;stroke-linecap:butt;stroke-linejoin:miter;stroke-miterlimit:4;stroke-dasharray:none;stroke-opacity:1"
       d="m 65.607374,254.92518 c 0.04499,0.0125 0.101421,0.009 0.134947,0.0374 0.02121,0.0176 -0.0072,0.0505 0,0.0746 0.01983,0.0658 0.10592,0.13039 0.134945,0.18659 0.02435,0.0472 0.02542,0.10062 0.04499,0.14929 0.01061,0.0263 0.03253,0.0488 0.04499,0.0746 0.0176,0.0365 0.02377,0.0768 0.04499,0.11193 0.0094,0.0158 0.03551,0.0216 0.04499,0.0375 0.0067,0.0115 -0.0029,0.0251 0,0.0374 0.01212,0.0503 0.028,0.1 0.04499,0.14926 0.01303,0.0379 0.03348,0.0738 0.04499,0.11194 0.0036,0.012 0,0.0249 0,0.0374 0.01499,0.0497 0.028,0.1 0.04499,0.14928 0.01303,0.0379 0.03719,0.0731 0.04499,0.11192 0.0075,0.0368 0,0.0746 0,0.11193 0,0.0995 -0.01488,0.19981 0,0.29855 0.0059,0.039 0.04135,0.0729 0.04499,0.11194 0.01148,0.12403 0,0.24879 0,0.3732 0,0.28611 0,0.57221 0,0.85834 0,0.6593 0,1.31861 0,1.97791 0,0.0872 0,0.17416 0,0.26124 0,0.0374 0,0.0746 0,0.11192 0,0.0249 -0.01114,0.0516 0,0.0746 0.02008,0.0417 0.07287,0.0694 0.08996,0.11193 0.01424,0.0354 0,0.0746 0,0.11193 0,0.0623 0,0.1244 0,0.1866 0,0.0123 -0.0029,0.0251 0,0.0372 0.01212,0.0503 0.03482,0.0987 0.04499,0.14929 0.005,0.0246 0,0.0497 0,0.0746 0,0.0746 0,0.14928 0,0.22393 0,0.0249 -0.0059,0.0503 0,0.0746 0.0093,0.0386 0.03827,0.0731 0.04499,0.11193 0.0084,0.0493 0,0.0995 0,0.14929 0,0.0995 0,0.19902 0,0.29854 0,0.0123 -0.0025,0.025 0,0.0373 0.01257,0.0626 0.03551,0.12366 0.04499,0.18661 0.0055,0.037 0,0.0746 0,0.11193 0,0.0746 0,0.14926 0,0.22391 0,0.24879 0,0.49759 0,0.74639 0,0.17415 0,0.34831 0,0.52246 0,0.0746 0.02368,0.15191 0,0.22391 -0.02301,0.07 -0.105067,0.11843 -0.134944,0.18661 -0.03116,0.0711 -0.02287,0.15051 -0.04499,0.22392 -0.023,0.0764 -0.07137,0.14676 -0.08997,0.22389 -0.01177,0.0488 0.0033,0.0996 0,0.14929 -0.01166,0.17434 -0.03186,0.34821 -0.04499,0.52247 -0.0041,0.0553 0.0063,0.13477 0,0.18659 -0.01056,0.0875 -0.03617,0.17357 -0.04499,0.26123 -0.0062,0.062 0,0.12442 0,0.18661 0,0.11193 0,0.22392 0,0.33587 0,0.0995 0,0.19903 0,0.29856 0,0.0249 -0.0072,0.0505 0,0.0746 0.0082,0.027 0.02638,0.0516 0.04499,0.0746 0.01177,0.0145 0.03985,0.0202 0.04499,0.0374 0.02181,0.0724 -0.02181,0.15149 0,0.22391 0.0052,0.0171 0.02998,0.0249 0.04499,0.0372 0,0.0249 0,0.0497 0,0.0746 0,0.0497 -0.02226,0.10304 0,0.14929 0.01244,0.0258 0.07136,0.0141 0.08996,0.0374 0.0098,0.0122 0,0.15841 0,0.18661 0,0.11645 0,0.13151 0,0.22391 0,0.0372 0,0.0746 0,0.11193 0,0.0249 0.0094,0.0509 0,0.0746 -0.0067,0.0166 -0.03827,0.0207 -0.04499,0.0374 -0.0095,0.0237 0.0033,0.0499 0,0.0746 -0.01171,0.0874 -0.01927,0.17591 -0.04499,0.26124 -0.0052,0.0171 -0.02998,0.0249 -0.04499,0.0374 -0.01499,0.0249 -0.04127,0.0469 -0.04499,0.0746 -0.01158,0.0865 0,0.17416 0,0.26124 0,0.0249 0.0072,0.0505 0,0.0746 -0.0082,0.027 -0.03947,0.0472 -0.04499,0.0746 -0.0098,0.049 0,0.0995 0,0.14928 0,0.0249 0.0059,0.0503 0,0.0746 -0.0093,0.0386 -0.03348,0.0738 -0.04499,0.11194 -0.0036,0.012 0,0.0249 0,0.0374 0,0.0498 0.006,0.0997 0,0.14928 -0.02406,0.19959 -0.06327,0.39775 -0.08996,0.5971 -0.0033,0.0247 0,0.0497 0,0.0746 0,0.0872 0,0.17416 0,0.26123 0,0.11193 0,0.22392 0,0.33588 0,0.0373 -0.0096,0.15466 0,0.18658 0.01149,0.0381 0.03568,0.0734 0.04499,0.11193 0.0059,0.0245 0,0.0497 0,0.0746 0.01499,0.0372 0.03348,0.0738 0.04499,0.11193 0.0036,0.012 0,0.0249 0,0.0375 0,0.0497 0,0.0995 0,0.14928 0,0.0249 -0.0094,0.051 0,0.0746 0.0067,0.0166 0.03551,0.0216 0.04499,0.0374 0.0067,0.0115 -0.0067,0.0263 0,0.0374 0.0095,0.0158 0.0355,0.0216 0.04499,0.0374 0.0067,0.0115 0,0.0249 0,0.0375 0,0.0249 -0.0072,0.0505 0,0.0746 0.0082,0.027 0.03438,0.0482 0.04499,0.0746 0.0133,0.0331 -0.01474,0.16215 0,0.18659 0.02419,0.0402 0.06578,0.0717 0.08997,0.11193 0.0134,0.0223 -0.0095,0.051 0,0.0746 0.01061,0.0265 0.03685,0.0476 0.04499,0.0746 0.0072,0.0242 0,0.0497 0,0.0746 0.01499,0.0249 0.03438,0.0482 0.04499,0.0746 0.01443,0.0359 -0.01177,0.11021 0,0.14928 0.01148,0.0381 0.0372,0.0731 0.04499,0.11192 0.0075,0.0368 0,0.0746 0,0.11193 0,0.0746 0,0.14928 0,0.22392 0,0.0497 -0.0098,0.10018 0,0.14928 0.0055,0.0274 0.03438,0.0482 0.04499,0.0746 0.01397,0.0348 -0.01385,0.15211 0,0.18661 0.0067,0.0166 0.04199,0.0198 0.04499,0.0372 0.01688,0.0981 0,0.22956 0,0.33588 0,0.13683 0,0.27368 0,0.41052 0,0.01 0,0.23173 0,0.11192"
       id="path4537"
       inkscape:connector-curvature="0" />
    <path
       style="fill:none;fill-rule:evenodd;stroke:#000000;stroke-width:0.6633926;stroke-linecap:butt;stroke-linejoin:miter;stroke-miterlimit:4;stroke-dasharray:none;stroke-opacity:1"
       d="m 65.562399,255.18642 c -0.0028,0.10503 -0.101421,0.009 -0.134949,0.0374 -0.01061,0.009 0.0083,0.027 0,0.0374 -0.02352,0.0293 -0.05998,0.0498 -0.08996,0.0746 -0.01499,0.0123 -0.02601,0.0295 -0.04499,0.0374 -0.0134,0.006 -0.03158,-0.006 -0.04499,0 -0.01896,0.008 -0.02603,0.0295 -0.04499,0.0374 -0.0134,0.006 -0.03438,-0.009 -0.04499,0 -0.01061,0.009 0.01061,0.0284 0,0.0374 -0.09307,0.0773 0.0036,-0.11798 -0.08996,0.0374 -0.0067,0.0115 0.0134,0.0317 0,0.0374 -0.0291,0.012 -0.163768,-0.0135 -0.179927,0 -0.02371,0.0196 -0.02638,0.0516 -0.04499,0.0746 -0.0746,0.0929 -0.01033,0.003 -0.08996,0.0374 -0.01896,0.008 -0.02998,0.0249 -0.04499,0.0374 -0.02999,0.0249 -0.05998,0.0498 -0.08997,0.0746 -0.02998,0.0249 -0.05604,0.0536 -0.08996,0.0746 -0.02682,0.0166 -0.06207,0.0219 -0.08996,0.0374 -0.06239,0.0346 -0.117546,0.0775 -0.179927,0.11193 -0.242398,0.13406 0.127778,-0.13353 -0.269889,0.14927 -0.0483,0.0343 -0.08996,0.0746 -0.134945,0.11194 -0.104957,0.0622 -0.213059,0.12089 -0.31487,0.18659 -0.03347,0.0216 -0.05545,0.0542 -0.08996,0.0746 -0.07114,0.0421 -0.159112,0.0641 -0.224908,0.11193 -0.09147,0.10117 -0.120928,0.14842 -0.224908,0.2239 -0.806693,0.55774 0.182889,-0.15172 -0.449817,0.37321 -0.142638,0.11833 -0.307177,0.21752 -0.449816,0.33585 -0.06789,0.0564 -0.104956,0.13685 -0.179925,0.1866 -0.07854,0.0521 -0.188043,0.0635 -0.26989,0.11193 -0.02728,0.0162 -0.02638,0.0516 -0.04499,0.0746 -0.02352,0.0293 -0.07655,0.0412 -0.08997,0.0746 -0.0094,0.0237 0.0095,0.0509 0,0.0746 -0.01015,0.0252 -0.117764,0.0834 -0.134944,0.11192 -0.0134,0.0223 0.0134,0.0524 0,0.0746 -0.01896,0.0314 -0.06643,0.0453 -0.08996,0.0746 -0.03719,0.0463 -0.05277,0.10294 -0.08997,0.14927 -0.02352,0.0293 -0.07099,0.0432 -0.08996,0.0746 -0.0067,0.0115 0,0.0249 0,0.0374 -0.01499,0.0249 -0.02403,0.0529 -0.04499,0.0746 -0.210294,0.2181 -0.07045,-0.003 -0.269891,0.26124 -0.05331,0.0708 -0.07915,0.15449 -0.134942,0.22392 -0.01177,0.0145 -0.02998,0.0249 -0.04499,0.0372 -0.01499,0.0249 -0.02639,0.0516 -0.04499,0.0746 -0.01177,0.0146 -0.03551,0.0216 -0.04499,0.0373 -0.0067,0.0115 0,0.0249 0,0.0374 0,0.0249 0.0094,0.0511 0,0.0746 -0.0067,0.0166 -0.02998,0.0249 -0.04499,0.0374 -0.04499,0.0373 -0.08996,0.0746 -0.134945,0.11193 -0.01499,0.0126 -0.03322,0.0227 -0.04499,0.0375 -0.0186,0.0231 -0.02999,0.0497 -0.04499,0.0746 0,0.0373 0.02316,0.08 0,0.11193 -0.02782,0.0385 -0.101752,0.0392 -0.134944,0.0746 -0.269468,0.28744 -0.105645,0.17096 -0.224907,0.33587 -0.02782,0.0385 -0.06094,0.0741 -0.08996,0.11193 -0.07595,0.0991 -0.148967,0.19955 -0.224909,0.29856 -0.02903,0.0379 -0.05752,0.0761 -0.08996,0.11192 -0.01272,0.014 -0.02999,0.0249 -0.04499,0.0374 -0.04499,0.0374 -0.08996,0.0746 -0.134945,0.11193 -0.02999,0.0249 -0.06452,0.0465 -0.08996,0.0746 -0.04023,0.0445 -0.05546,0.10161 -0.08996,0.14927 -0.02782,0.0385 -0.06579,0.0717 -0.08996,0.11192 -0.0067,0.0115 0.0083,0.027 0,0.0374 -0.02353,0.0293 -0.06452,0.0465 -0.08997,0.0746 -0.02013,0.0223 -0.02638,0.0516 -0.04499,0.0746 -0.01177,0.0145 -0.02999,0.0249 -0.04499,0.0374 -0.01499,0.0249 -0.02638,0.0516 -0.04499,0.0746 -0.01232,0.0154 -0.116466,0.10172 -0.134947,0.11192 -0.02789,0.0154 -0.06984,0.015 -0.08996,0.0373 -0.02844,0.0314 -0.02737,0.0754 -0.04499,0.11193 -0.01245,0.0258 -0.02638,0.0516 -0.04499,0.0746 -0.02353,0.0293 -0.06645,0.0453 -0.08996,0.0746 -0.0186,0.0231 -0.02773,0.0507 -0.04499,0.0746 -0.08309,0.11487 -0.191481,0.21877 -0.269885,0.33586 -0.04885,0.0731 -0.07915,0.15449 -0.134948,0.22392 -0.03528,0.044 -0.101229,0.0672 -0.134943,0.11193 -0.0428,0.0569 -0.04717,0.12979 -0.08997,0.1866 -0.03372,0.0447 -0.09678,0.0698 -0.134946,0.11193 -0.0089,0.01 0.0067,0.0262 0,0.0375 -0.0391,0.0649 -0.09156,0.12362 -0.134944,0.18658 -0.01662,0.0242 -0.02486,0.0523 -0.04499,0.0746 -0.02545,0.0281 -0.06643,0.0454 -0.08996,0.0746 -0.0083,0.01 0.0067,0.0262 0,0.0373 -0.102384,0.085 -0.01189,-0.008 -0.04499,0.0746 -0.01061,0.0265 -0.02638,0.0516 -0.04499,0.0746 -0.01177,0.0145 -0.02999,0.0497 -0.04499,0.0374 -0.01499,-0.0125 0.04499,-0.0549 0.04499,-0.0374 0,0.0278 -0.02638,0.0516 -0.04499,0.0746 -0.04509,0.0561 -0.143549,0.0516 -0.179928,0.11193 -0.0067,0.0115 0.0067,0.0262 0,0.0374 -0.0095,0.0158 -0.03322,0.0226 -0.04499,0.0375 -0.0372,0.0463 -0.05276,0.10294 -0.08996,0.14927 -0.01177,0.0145 -0.03551,0.0216 -0.04499,0.0375 -0.0067,0.0115 0.0067,0.0262 0,0.0374 -0.02419,0.0402 -0.06578,0.0717 -0.08997,0.11193 -0.13715,0.0265 -0.01733,0.10337 -0.04499,0.14927 -0.01896,0.0314 -0.07099,0.0432 -0.08996,0.0746 -0.0067,0.0115 0.0048,0.0255 0,0.0375 -0.01061,0.0265 -0.03686,0.0476 -0.04499,0.0746 -0.0072,0.0242 0.0134,0.0523 0,0.0746 -0.01896,0.0314 -0.06644,0.0453 -0.08997,0.0746 -0.01304,0.0163 0.01186,0.0924 0,0.11192 -0.0094,0.0158 -0.03827,0.0207 -0.04499,0.0374 -0.01424,0.0354 0.01424,0.0766 0,0.11193 -0.05169,0.12865 -0.04499,0.0277 -0.04499,0.11193"
       id="path4539"
       inkscape:connector-curvature="0" />
    <path
       style="fill:none;fill-rule:evenodd;stroke:#000000;stroke-width:0.6633926;stroke-linecap:butt;stroke-linejoin:miter;stroke-miterlimit:4;stroke-dasharray:none;stroke-opacity:1"
       d="m 68.351336,273.84603 c 0,-0.036 0.0067,-0.21286 0,-0.22392 -0.0095,-0.0159 -0.03831,-0.0207 -0.04499,-0.0373 -0.0094,-0.0237 0,-0.0497 0,-0.0746 0,-0.0123 0.0067,-0.0261 0,-0.0373 -0.0095,-0.0158 -0.03832,-0.0207 -0.04499,-0.0374 -0.01806,-0.045 0.01582,-0.13842 0,-0.1866 -0.04118,-0.12528 -0.08996,-0.24879 -0.134946,-0.37318 -0.015,-0.0124 -0.03555,-0.0216 -0.04499,-0.0373 -0.0067,-0.0115 0,-0.0249 0,-0.0374 0,-0.0374 0.0088,-0.0753 0,-0.11192 -0.0066,-0.0272 -0.02999,-0.0497 -0.04499,-0.0746 -0.015,-0.0125 -0.04003,-0.0202 -0.04499,-0.0374 -0.08578,-0.29655 -0.152819,-0.59662 -0.224909,-0.89566 -0.0029,-0.0122 0.0048,-0.0256 0,-0.0374 -0.01061,-0.0265 -0.03438,-0.0482 -0.04499,-0.0746 -0.0048,-0.0117 0,-0.0249 0,-0.0374 0,-0.0497 0,-0.0995 0,-0.14928 0,-0.0249 0.0041,-0.05 0,-0.0746 -0.01291,-0.0748 -0.03594,-0.14866 -0.04499,-0.22393 -0.006,-0.0495 0,-0.0995 0,-0.14928 0,-0.11193 0,-0.22391 0,-0.33587 0,-0.17361 -0.0068,-0.34899 0,-0.52246 0.0295,-0.75883 0.06137,-1.51763 0.08996,-2.27647 0.0028,-0.074 0,-0.14976 0,-0.22392 0,-0.0374 0.01092,-0.0758 0,-0.11193 -0.0082,-0.027 -0.03841,-0.0474 -0.04499,-0.0746 -0.0095,-0.0393 0,-0.20728 0,-0.26124 0,-0.19902 0,-0.39806 0,-0.5971 0,-0.0498 0,-0.0995 0,-0.14927 0,-0.0249 0.0072,-0.0505 0,-0.0746 -0.113609,-0.37706 0.01624,0.027 -0.08996,-0.14929 -0.02766,-0.046 0.09216,-0.1228 -0.04499,-0.14926 -0.06858,-0.11354 -0.03566,0.0682 -0.08997,-0.11194 -0.01091,-0.0362 0,-0.0746 0,-0.11193 0,-0.0872 0,-0.17416 0,-0.26123 0,-0.26105 -0.02138,-0.52675 0.04499,-0.78371 0.08521,-0.32989 0.08659,-0.16707 0.134943,-0.44783 0.01909,-0.11078 -0.0668,-0.22786 0,-0.33588 0.01199,-0.0548 0.07797,-0.0944 0.08996,-0.14927 0.02413,-0.1102 0,-0.22392 0,-0.33587 0,-0.12439 0,-0.2488 0,-0.37319 0,-0.0497 0.0084,-0.1 0,-0.14928 -0.0068,-0.0389 -0.03565,-0.0734 -0.04499,-0.11193 -0.0059,-0.0245 0,-0.0497 0,-0.0746 0,-0.0125 0.0067,-0.0262 0,-0.0373 -0.02418,-0.0401 -0.06577,-0.0717 -0.08996,-0.11193 -0.0067,-0.0115 0.0048,-0.0255 0,-0.0374 -0.01061,-0.0265 -0.03254,-0.0488 -0.04499,-0.0746 -0.03431,-0.0712 -0.07292,-0.19046 -0.08997,-0.26123 -0.0059,-0.0245 0,-0.0497 0,-0.0746 0,-0.0746 0,-0.14929 0,-0.22393 0,-0.70906 0,-1.41813 0,-2.12719 0,-0.21148 0,-0.42295 0,-0.63442 0,-0.0872 0,-0.17416 0,-0.26124 0,-0.0374 0.0088,-0.0753 0,-0.11194 -0.0066,-0.0272 -0.03946,-0.0472 -0.04499,-0.0746 -0.0098,-0.049 0.0099,-0.10018 0,-0.14927 -0.0055,-0.0274 -0.03438,-0.0482 -0.04499,-0.0746 -0.0048,-0.0118 0.0048,-0.0256 0,-0.0374 -0.01061,-0.0264 -0.03841,-0.0474 -0.04499,-0.0746 -0.0088,-0.0366 0.0056,-0.0748 0,-0.11193 -0.02617,-0.17381 -0.05144,-0.17607 -0.08996,-0.33588 -0.0029,-0.0122 0.0036,-0.0252 0,-0.0373 -0.01151,-0.0381 -0.03718,-0.0732 -0.04499,-0.11194 -0.0075,-0.0368 0,-0.0746 0,-0.11193 0,-0.13683 0,-0.27368 0,-0.4105 0,-0.0746 0.02471,-0.15212 0,-0.22392 -0.0092,-0.0268 -0.08188,-0.01 -0.08997,-0.0374 -0.02546,-0.0845 0.01303,-0.17483 0,-0.26124 -0.0027,-0.0174 -0.0408,-0.02 -0.04499,-0.0374 -0.01177,-0.0488 0.0075,-0.0998 0,-0.14927 -0.0078,-0.0508 -0.03286,-0.099 -0.04499,-0.14928 -0.01788,-0.0742 -0.02286,-0.15053 -0.04499,-0.22392 -0.0082,-0.027 -0.03254,-0.0488 -0.04499,-0.0746 -0.01762,-0.0365 -0.0335,-0.0738 -0.04499,-0.11194 -0.0036,-0.012 0.0048,-0.0256 0,-0.0374 -0.03783,-0.0941 -0.115026,-0.1148 -0.179927,-0.1866 -0.07662,-0.0848 -0.133692,-0.18557 -0.224909,-0.26124 -0.03823,-0.0318 -0.09672,-0.043 -0.134944,-0.0746 -0.0237,-0.0196 -0.02486,-0.0523 -0.04499,-0.0746 -0.02545,-0.0281 -0.06815,-0.0444 -0.08997,-0.0746 -0.02439,-0.0337 -0.0064,-0.0891 -0.04499,-0.11194 -0.180146,-0.10679 -0.38984,-0.17416 -0.584761,-0.26123 0.08997,0.0123 0.179928,0.0249 0.269892,0.0374 0.015,0.0123 0.02603,0.0295 0.04499,0.0374 0.01341,0.006 0.02998,0 0.04499,0 0.015,0 0.02998,0 0.04499,0 0.015,0 0.03438,-0.009 0.04499,0 0.139942,0.11611 -0.06497,0.0456 0.134943,0.11192 0.124309,0.0412 0.09539,0.0374 0.179927,0.0374 0.04499,0 0.09227,-0.0118 0.134946,0 0.05132,0.0283 0.155749,0.0929 0.224908,0.11193 0.05864,0.0162 0.122525,0.0183 0.179926,0.0374 0.01969,0.007 0.02733,0.0275 0.04499,0.0374 0.07275,0.0402 0.148999,0.076 0.224908,0.11193 0.05822,0.0277 0.122427,0.0461 0.179927,0.0746 0.04636,0.023 0.08859,0.0516 0.134944,0.0746 0.0079,0.003 0.178313,0.0734 0.179926,0.0746 0.03823,0.0318 0.05174,0.0802 0.08996,0.11193 0.03823,0.0318 0.08859,0.0516 0.134945,0.0746 0.02875,0.0143 0.06626,0.0175 0.08996,0.0374 0.02371,0.0196 0.02773,0.0508 0.04499,0.0746 0.02781,0.0385 0.05173,0.0802 0.08996,0.11193 0.03823,0.0318 0.09169,0.0477 0.134945,0.0746 0.01696,0.01 0.02999,0.0249 0.04499,0.0374 0.04499,0.0374 0.08996,0.0746 0.134945,0.11192 0.05998,0.0498 0.126941,0.0943 0.179927,0.14927 0.02095,0.0217 0.02638,0.0516 0.04499,0.0746 0.02352,0.0293 0.07656,0.0412 0.08996,0.0746 0.0095,0.0237 -0.0072,0.0505 0,0.0746 0.01626,0.054 0.06875,0.0965 0.08996,0.14928 0.0048,0.0117 -0.0029,0.0251 0,0.0374 0.01212,0.0503 0.03731,0.0984 0.04499,0.14927 0.0075,0.0494 0,0.0995 0,0.14927 0,0.0117 0,0.25857 0,0.26124 0,0.0249 -0.0042,0.0499 0,0.0746 0.01082,0.0628 0.03807,0.12342 0.04499,0.18659 0.0083,0.0743 0,0.14928 0,0.22392 0,0.13682 0,0.27367 0,0.4105 0,0.23636 0,0.47272 0,0.70907 0,0.0995 0.0085,0.1993 0,0.29856 -0.0065,0.0755 -0.03798,0.14847 -0.04499,0.2239 -0.0082,0.0867 0.0058,0.1743 0,0.26124 -0.0091,0.13719 -0.03465,0.27338 -0.04499,0.41052 -0.0066,0.0868 0,0.17416 0,0.26124 0,0.24879 0,0.49758 0,0.74637 0,0.21147 0,0.42295 0,0.63444 0,0.0995 0,0.19902 0,0.29854 0,0.0373 -0.0088,0.0753 0,0.11193 0.0066,0.0272 0.03438,0.0482 0.04499,0.0746 0.0048,0.0118 -0.0022,0.025 0,0.0374 0.01291,0.0748 0.03492,0.1487 0.04499,0.22391 0.0099,0.0742 -0.01272,0.15003 0,0.22391 -0.04652,0.0963 0.07137,0.14677 0.08996,0.22392 0.01764,0.0733 -0.01479,0.15029 0,0.22393 0.0079,0.0388 0.03348,0.0738 0.04499,0.11193 0.01092,0.0361 -0.0088,0.0753 0,0.11192 0.0093,0.0386 0.03569,0.0734 0.04499,0.11193 0.0059,0.0245 0,0.0498 0,0.0746 0,0.0375 0,0.0746 0,0.11193 0,0.19904 0,0.39808 0,0.59712 0,0.12439 0,0.2488 0,0.37319 0,0.0746 0,0.14928 0,0.22392 0,0.0125 0.0025,0.025 0,0.0374 -0.01257,0.0626 -0.03551,0.12366 -0.04499,0.18659 -0.0056,0.037 0,0.0746 0,0.11193 0,0.0746 0,0.14929 0,0.22392 0,0.21148 0,0.42296 0,0.63442 0,0.16172 0,0.32345 0,0.48517 0,0.0856 0,0.1172 0,0.22391 0,0.0374 -0.0088,0.0753 0,0.11193 0.07575,0.31422 7.05e-4,7.9e-4 0.08996,0.14929 0.0067,0.0115 -0.0067,0.0262 0,0.0374 0.01896,0.0314 0.06645,0.0453 0.08996,0.0746 0.0186,0.0231 0.02128,0.055 0.04499,0.0746 0.02371,0.0196 0.06626,0.0176 0.08996,0.0372 0.02937,0.0244 0.08645,0.1691 0.08996,0.1866 0.0075,0.0368 -0.0088,0.0753 0,0.11193 0.0066,0.0272 0.03438,0.0483 0.04499,0.0746 0.0048,0.0117 -0.0048,0.0255 0,0.0372 0.01061,0.0265 0.03438,0.0483 0.04499,0.0746 0.0095,0.0237 0,0.0497 0,0.0746 0,0.0497 -0.0099,0.10018 0,0.14927 0.0055,0.0274 0.03438,0.0482 0.04499,0.0746 0.0048,0.0117 0,0.0249 0,0.0374 0,0.0498 0,0.0995 0,0.14927 0,0.0203 0,0.19548 0,0.22392 0,0.23635 0,0.47272 0,0.70907 0,0.0995 0,0.19903 0,0.29855 0,0.0374 0,0.0746 0,0.11193 0,0.0125 -0.0036,0.0252 0,0.0374 0.09361,0.31062 -0.0031,-0.045 0.08996,0.18659 0.0048,0.0117 -0.0048,0.0255 0,0.0374 0.01061,0.0265 0.03686,0.0476 0.04499,0.0746 0.0075,0.0247 0,0.32021 0,0.33587 0,0.0126 -0.0048,0.0255 0,0.0375 0.127427,0.21142 -0.01677,-0.0555 0.04499,0.14927 0.0082,0.027 0.03686,0.0476 0.04499,0.0746 0.01455,0.0482 -0.01176,0.1004 0,0.14929 0.0093,0.0386 0.03348,0.0738 0.04499,0.11192 0.0072,0.0242 0,0.0497 0,0.0746 0,0.0498 0,0.0995 0,0.14928 0,0.16172 0,0.32344 0,0.48515 0,0.1244 0,0.2488 0,0.37319 0,0.0131 0.009,0.22367 0,0.26124 -0.01212,0.0503 -0.028,0.1 -0.04499,0.14927 -0.01303,0.0379 -0.03568,0.0734 -0.04499,0.11193 -0.0059,0.0245 0,0.0497 0,0.0746 0,0.0497 0,0.0995 0,0.14926 0,0.0249 0.0059,0.0502 0,0.0746 -0.0093,0.0386 -0.03569,0.0734 -0.04499,0.11192 -0.0059,0.0245 0,0.0497 0,0.0746 0,0.0872 0,0.17417 0,0.26124 0,0.22392 0,0.44783 0,0.67175"
       id="path4541"
       inkscape:connector-curvature="0" />
    <path
       style="fill:none;fill-rule:evenodd;stroke:#000000;stroke-width:0.6633926;stroke-linecap:butt;stroke-linejoin:miter;stroke-miterlimit:4;stroke-dasharray:none;stroke-opacity:1"
       d="m 65.607374,254.92518 c 0.07496,-0.0375 0.146711,-0.0796 0.22491,-0.11193 0.0134,-0.006 0.02998,0 0.04499,0 0.02998,0 0.05998,0 0.08997,0 0.07496,0 0.149936,0 0.224905,0 0.01499,0 0.02999,0 0.04499,0 0.01499,0 0.03158,-0.006 0.04499,0 0.01896,0.008 0.02602,0.0295 0.04499,0.0374 0.0134,0.006 0.02998,0 0.04499,0 0.02998,0 0.06088,-0.006 0.08996,0 0.03253,0.007 0.05816,0.0284 0.08996,0.0374 0.04292,0.0118 0.175095,-0.01 0.224908,0 0.046,0.009 0.08893,0.0278 0.134946,0.0374 0.01454,0.003 0.02998,0 0.04499,0 0.04499,0 0.09084,-0.007 0.134943,0 0.03287,0.006 0.05817,0.0284 0.08996,0.0374 0.01424,0.003 0.03158,-0.006 0.04499,0 0.04836,0.0201 0.08475,0.058 0.134943,0.0746 0.02784,0.009 0.05998,0 0.08996,0 0.0172,0 0.222622,0 0.224909,0 0.01499,0 0.03044,-0.003 0.04499,0 0.046,0.009 0.09255,0.0197 0.134945,0.0374 0.137173,0.0569 -0.08227,0.0297 0.134945,0.0746 0.02909,0.007 0.06151,-0.008 0.08996,0 0.06361,0.0175 0.119953,0.0497 0.179928,0.0746 0.02998,0.0123 0.05743,0.0305 0.08996,0.0374 0.156771,0.0326 0.03085,-0.0593 0.224909,0.0374 0.03637,0.0182 0.05468,0.0551 0.08996,0.0746 0.01247,0.007 0.03076,-0.003 0.04499,0 0.03181,0.009 0.05816,0.0284 0.08997,0.0374 0.02844,0.008 0.06314,-0.0115 0.08996,0 0.03793,0.0158 0.05468,0.0551 0.08996,0.0746 0.273087,0.15105 -0.140843,-0.10745 0.22491,0.0746 0.06662,0.0332 0.199489,0.19756 0.224907,0.22392 0.05062,0.0525 0.138861,0.0926 0.179926,0.14927 0.02437,0.0337 0.02058,0.0781 0.04499,0.11194 0.02181,0.0302 0.06452,0.0465 0.08997,0.0746 0.02013,0.0223 0.02638,0.0516 0.04499,0.0746 0.01177,0.0146 0.0371,0.0211 0.04499,0.0374 0.02295,0.0476 0.01431,0.1047 0.04499,0.14926 0.03157,0.0459 0.09677,0.0697 0.134943,0.11193 0.0089,0.01 -0.004,0.0254 0,0.0374 0.02605,0.0756 0.05145,0.15201 0.08997,0.22391 0.02196,0.041 0.07098,0.07 0.08996,0.11194 0.02685,0.0594 0.0324,0.12402 0.04499,0.18658 0.0025,0.0122 -0.0083,0.027 0,0.0373 0.02352,0.0293 0.07099,0.0432 0.08996,0.0746 0.01339,0.0223 0,0.0498 0,0.0746 0,0.0498 -0.01177,0.1004 0,0.14927 0.0041,0.0173 0.03551,0.0216 0.04499,0.0374 0.0067,0.0115 0,0.0249 0,0.0373 0,0.0374 -0.0088,0.0753 0,0.11193 0.0066,0.0272 0.02998,0.0498 0.04499,0.0746 0.01499,0.0497 0.03482,0.0987 0.04499,0.14928 0.005,0.0246 0,0.0497 0,0.0746 0,0.0872 -0.02059,0.17585 0,0.26124 0.01314,0.0546 0.07154,0.0958 0.08996,0.14928 0.01927,0.0559 -0.01799,0.20157 0,0.26123 0.0082,0.027 0.03947,0.0472 0.04499,0.0746 0.0099,0.0491 0,0.0995 0,0.14928 0,0.0372 0,0.0746 0,0.11193 0,0.24879 0,0.49757 0,0.74637 0,0.0702 -0.0092,0.23733 0,0.29855 0.0077,0.0508 0.03285,0.099 0.04499,0.14928 0.0099,0.041 0,0.14154 0,0.18659 0,0.0995 0,0.19905 0,0.29856 0,0.0872 0,0.17415 0,0.26124 0,0.0249 0,0.0497 0,0.0746 0,0.0123 -0.0055,0.0257 0,0.0373 0.02492,0.0517 0.06875,0.0965 0.08997,0.14929 0.0087,0.0218 0,0.19187 0,0.22391 0,0.18659 0,0.37318 0,0.55979 0,0.0497 0,0.0995 0,0.14927 0,0.0374 0,0.0746 0,0.11193 0,0.0123 -0.0036,0.0252 0,0.0374 0.06395,0.21222 0.04499,0.006 0.04499,0.26123 0,0.31099 0,0.62199 0,0.93297 0,0.0872 0,0.17416 0,0.26124 0,0.0497 -0.01454,0.10106 0,0.14929 0.0052,0.0171 0.03827,0.0205 0.04499,0.0374 0.01799,0.0447 -0.01123,0.1026 0,0.14927 0.01212,0.0503 0.03285,0.099 0.04499,0.14928 0.01029,0.0426 0,0.14415 0,0.1866 0,0.0995 0,0.19903 0,0.29854 0,0.0623 -0.01232,0.12525 0,0.18661 0.0079,0.0388 0.03348,0.0738 0.04499,0.11192 0.0072,0.0242 0,0.0498 0,0.0746 0,0.0622 0,0.12439 0,0.18659 0,0.14927 0,0.29855 0,0.44783 0,0.0995 0,0.19903 0,0.29855 0,0.0374 0.0075,0.0751 0,0.11193 -0.0079,0.0388 -0.03348,0.0738 -0.04499,0.11192 -0.0036,0.012 0,0.0249 0,0.0374 0,0.0249 0,0.0497 0,0.0746 0,0.11192 0,0.22389 0,0.33585 0,0.0872 0,0.17416 0,0.26124 0,0.0249 0.0072,0.0505 0,0.0746 -0.0082,0.027 -0.03685,0.0476 -0.04499,0.0746 -0.0072,0.0242 0,0.0498 0,0.0746 0,0.0746 0,0.14928 0,0.22392 0,0.14928 0,0.29855 0,0.44782 0,0.0623 0.0206,0.1268 0,0.18661 -0.01166,0.0337 -0.07099,0.0432 -0.08996,0.0746 -0.0134,0.0223 0,0.0498 0,0.0746 0,0.0249 0,0.0497 0,0.0746 0,0.11192 0,0.22391 0,0.33587 0,0.16171 0,0.32343 0,0.48514 0,0.0486 -0.009,0.18653 0,0.22393 0.0066,0.0272 0.02998,0.0497 0.04499,0.0746 0.01499,0.0249 0.02638,0.0516 0.04499,0.0746 0.01177,0.0145 0.04149,0.0199 0.04499,0.0374 0.01232,0.0614 0,0.1244 0,0.18661 0,0.0374 -0.01091,0.0758 0,0.11192 0.0052,0.0171 0.04149,0.0199 0.04499,0.0374 0.01232,0.0614 0,0.1244 0,0.1866 0,0.0249 -0.01113,0.0516 0,0.0746 0.02008,0.0417 0.06989,0.0703 0.08997,0.11194 0.01114,0.023 0,0.0498 0,0.0746 0,0.0125 -0.0067,0.0262 0,0.0374 0.0094,0.0158 0.0355,0.0216 0.04499,0.0374 0.02121,0.0353 0.03348,0.0738 0.04499,0.11193 0.0036,0.012 -0.0067,0.0263 0,0.0374 0.0094,0.0158 0.03984,0.0202 0.04499,0.0372 0.01091,0.0361 -0.01092,0.0758 0,0.11192 0.0052,0.0171 0.03827,0.0207 0.04499,0.0374 0.01424,0.0354 -0.01423,0.0766 0,0.11193 0.01061,0.0265 0.03685,0.0476 0.04499,0.0746 0.0072,0.0242 -0.0094,0.0509 0,0.0746 0.0067,0.0166 0.03827,0.0207 0.04499,0.0374 0.0094,0.0237 0,0.0497 0,0.0746 0.01499,0.0249 0.03438,0.0482 0.04499,0.0746 0.0094,0.0237 -0.0134,0.0523 0,0.0746 0.02419,0.04 0.06579,0.0719 0.08996,0.11193 0.01493,0.0248 -0.0166,0.12863 0,0.14929 0.0186,0.0231 0.07496,0.0125 0.08996,0.0374 0.119952,0.19905 -0.03999,0.0497 0,0.14929 0.01061,0.0264 0.03438,0.0483 0.04499,0.0746 0.01443,0.0359 -0.01177,0.11021 0,0.14927 0.0936,0.31062 -0.0031,-0.045 0.08997,0.1866 0.0048,0.0117 0,0.0249 0,0.0375 0,0.0374 0,0.0746 0,0.11194 0,0.0872 0,0.17416 0,0.26123 0,0.0249 -0.0059,0.0503 0,0.0746 0.0093,0.0386 0.03347,0.0738 0.04499,0.11194 0.0036,0.012 -0.0048,0.0255 0,0.0373 0.01061,0.0265 0.03685,0.0476 0.04499,0.0746 0.0072,0.0242 -0.0094,0.0509 0,0.0746 0.0067,0.0166 0.03827,0.0207 0.04499,0.0374 0.01424,0.0354 0,0.0746 0,0.11193 0,0.0995 0,0.19903 0,0.29855 0,0.1244 0,0.2488 0,0.3732 0,0.009 -0.0051,0.1409 0,0.14928 0.01896,0.0314 0.07968,0.0405 0.08996,0.0746 0.01091,0.0361 -0.01091,0.0758 0,0.11192 0.0052,0.0171 0.03551,0.0216 0.04499,0.0375 0.0059,0.01 0,0.12976 0,0.14928"
       id="path4543"
       inkscape:connector-curvature="0" />
    <path
       style="fill:none;fill-rule:evenodd;stroke:#000000;stroke-width:0.6633926;stroke-linecap:butt;stroke-linejoin:miter;stroke-miterlimit:4;stroke-dasharray:none;stroke-opacity:1"
       d="m 55.171643,274.62972 c 0,0.0249 0.02998,0.0746 0,0.0746 -0.02998,0 -0.02998,-0.0746 0,-0.0746 0.01791,0 0.275633,0.098 0.359853,0.0746 0.0318,-0.009 0.05817,-0.0284 0.08997,-0.0374 0.04382,-0.0121 0.182058,0.0118 0.224905,0 0.03181,-0.009 0.05743,-0.0305 0.08997,-0.0374 0.03509,-0.007 0.217387,0 0.269891,0 0.08996,0 0.179925,0 0.269887,0 0.04499,0 0.09131,0.009 0.134945,0 0.150253,-0.0312 0.08322,-0.10921 0.179926,-0.14928 0.01339,-0.006 0.02998,0 0.04499,0 0.01499,0 0.02998,0 0.04499,0 0.08996,0 0.179924,0 0.269889,0 0.01499,0 0.02998,0 0.04499,0 0.01499,0 0.03438,-0.009 0.04499,0 0.02371,0.0196 0.02126,0.055 0.04499,0.0746 0.0016,10e-4 0.124037,0 0.134945,0 0.119951,0 0.239901,0 0.359854,0 0.04499,0 0.09227,-0.0117 0.134943,0 0.02013,0.006 0.02486,0.0319 0.04499,0.0374 0.02845,0.008 0.06088,-0.007 0.08996,0 0.03253,0.007 0.05817,0.0284 0.08997,0.0374 0.01423,0.003 0.03158,-0.006 0.04499,0 0.01896,0.008 0.02603,0.0295 0.04499,0.0375 0.01923,0.008 0.207127,0 0.224908,0 0.149937,0 0.299877,0 0.449816,0 0.02352,0 0.168099,-0.004 0.179928,0 0.01896,0.008 0.02486,0.0319 0.04499,0.0374 0.02487,0.007 0.224592,0 0.269891,0 0.01499,0 0.02998,0 0.04499,0 0.01499,0 0.03438,-0.009 0.04499,0 0.01061,0.009 -0.01061,0.0284 0,0.0374 0.01061,0.009 0.02998,0 0.04499,0 0.08996,0 0.179927,0 0.269889,0 0.02514,0 0.198364,0.007 0.22491,0 0.0318,-0.009 0.05815,-0.0284 0.08996,-0.0374 0.01424,-0.003 0.02999,0 0.04499,0 0.03047,0 0.294379,0.006 0.314871,0 0.02013,-0.006 0.02602,-0.0295 0.04499,-0.0374 0.0134,-0.006 0.02998,0 0.04499,0 0.02998,0 0.05998,0 0.08997,0 0.08996,0 0.179924,0 0.269889,0 0.02998,0 0.05998,0 0.08996,0 0.01499,0 0.03044,0.003 0.04499,0 0.046,-0.009 0.08893,-0.0278 0.134944,-0.0375 0.04066,-0.008 0.217024,0 0.269889,0 0.05998,0 0.119952,0 0.179929,0 0.02998,0 0.06502,0.0138 0.08996,0 0.02789,-0.0154 0.02129,-0.055 0.04499,-0.0746 0.02121,-0.0175 0.06314,0.0115 0.08997,0 0.01896,-0.008 0.02602,-0.0295 0.04499,-0.0374 0.01433,-0.007 0.184705,0 0.224905,0 0.258834,0 0.242011,0 0.494799,0 0.03676,0 0.292071,0.006 0.314871,0 0.140402,-0.0389 -0.01499,-0.0249 0.04499,-0.0746 0.01061,-0.009 0.02998,0 0.04499,0 0.04236,0 0.199322,0.007 0.224909,0 0.02013,-0.006 0.02603,-0.0295 0.04499,-0.0375 0.0134,-0.006 0.03158,0.006 0.04499,0 0.01896,-0.008 0.02603,-0.0295 0.04499,-0.0374 0.0134,-0.006 0.03158,0.006 0.04499,0 0.01896,-0.008 0.02601,-0.0295 0.04499,-0.0372 0.02682,-0.0115 0.06313,0.0115 0.08996,0 0.01896,-0.008 0.02603,-0.0295 0.04499,-0.0374 0.02655,-0.0115 0.104005,0.008 0.134945,0 0.325819,-0.0901 -0.07091,0.01 0.134944,-0.0746 0.0134,-0.006 0.02999,0 0.04499,0 0.02998,0 0.06151,0.008 0.08996,0 0.02013,-0.006 0.02603,-0.0295 0.04499,-0.0374 0.01339,-0.006 0.03158,0.006 0.04499,0 0.03793,-0.0158 0.05203,-0.0589 0.08996,-0.0746 0.01339,-0.006 0.02998,0 0.04499,0 0.02998,-0.0125 0.06207,-0.0219 0.08996,-0.0375 0.03528,-0.0195 0.05203,-0.0589 0.08997,-0.0746 0.07997,-0.0332 0.02498,0.0208 0.04499,0.0375 0.01061,0.009 0.04499,-0.0123 0.04499,0 0,0.0125 -0.05169,-0.0115 -0.04499,0 0.01896,0.0314 0.05998,0.0497 0.08996,0.0746 0.01499,0.0123 0.02486,0.0317 0.04499,0.0372 0.02675,0.007 0.216758,0 0.26989,0 0.179928,0 0.359852,0 0.539781,0 0.631722,0 1.03976,0 1.709298,0 0.134948,0 0.269891,0 0.404837,0 0.02998,0 0.05998,0 0.08996,0 0.04499,0 0.09471,0.0166 0.134944,0 0.02998,-0.0123 0.02129,-0.055 0.04499,-0.0746 4.4e-5,-3e-5 0.134744,8e-5 0.134947,0 0.02013,-0.006 0.02603,-0.0295 0.04499,-0.0374 0.0134,-0.006 0.02998,0 0.04499,0 0.01499,0 0.02998,0 0.04499,0 0.07496,0 0.149938,0 0.224908,0 0.01499,0 0.03158,0.006 0.04499,0 0.09946,-0.0412 0.01395,-0.0231 0.04499,-0.0746 0.01896,-0.0314 0.07656,-0.0412 0.08997,-0.0746 0.0094,-0.0237 -0.0134,-0.0523 0,-0.0746 0.0134,-0.0223 0.06875,0.0176 0.08996,0 0.01061,-0.009 -0.01061,-0.0284 0,-0.0374 0.01061,-0.009 0.02999,0 0.04499,0 0.07496,0 0.149938,0 0.224908,0 0.179924,0 0.359852,0 0.539777,0 0.02998,0 0.05998,0 0.08997,0 0.01499,0 0.04499,-0.0125 0.04499,0 0,0.0123 -0.05998,0 -0.04499,0 0.05998,0 0.119951,0 0.179925,0 0.01499,0 0.03438,-0.009 0.04499,0 0.02371,0.0196 0.02129,0.055 0.04499,0.0746 0.01061,0.009 0.03158,-0.006 0.04499,0 0.01896,0.008 0.02602,0.0295 0.04499,0.0374 0.0134,0.006 0.02999,0 0.04499,0 0.01499,0 0.02998,0 0.04499,0 0.02025,0 0.121256,-0.006 0.134947,0 0.01896,0.008 0.02486,0.0319 0.04499,0.0374 0.02844,0.008 0.05998,0 0.08996,0 0.01499,0 0.03158,-0.006 0.04499,0 0.01896,0.008 0.02603,0.0295 0.04499,0.0374 0.02682,0.0115 0.06151,-0.008 0.08997,0 0.0318,0.009 0.05815,0.0284 0.08996,0.0374 0.01424,0.003 0.02998,0 0.04499,0 0.08996,0 0.179927,0 0.269889,0 0.02998,0 0.06087,-0.006 0.08996,0 0.03253,0.007 0.05816,0.0284 0.08996,0.0375 0.0377,0.01 0.150117,-0.0125 0.179927,0 0.01896,0.008 0.02603,0.0295 0.04499,0.0374 0.02682,0.0115 0.08996,-0.0249 0.08996,0 0,0.0124 -0.05998,0 -0.04499,0 0.338313,0 0.376459,0 0.53978,0 0.02998,0 0.05998,0 0.08996,0 0.01499,0 0.04499,-0.0125 0.04499,0 0,0.0124 -0.05998,0 -0.04499,0 0.104926,0 0.11995,6e-5 0.04506,-6e-5"
       id="path4547"
       inkscape:connector-curvature="0" />
  </g>
</svg>
