<?xml version="1.0" encoding="UTF-8" standalone="no"?>
<!-- Created with Inkscape (http://www.inkscape.org/) -->

<svg
   xmlns:dc="http://purl.org/dc/elements/1.1/"
   xmlns:cc="http://creativecommons.org/ns#"
   xmlns:rdf="http://www.w3.org/1999/02/22-rdf-syntax-ns#"
   xmlns:svg="http://www.w3.org/2000/svg"
   xmlns="http://www.w3.org/2000/svg"
   xmlns:sodipodi="http://sodipodi.sourceforge.net/DTD/sodipodi-0.dtd"
   xmlns:inkscape="http://www.inkscape.org/namespaces/inkscape"
   width="480"
   height="480"
   viewBox="0 0 127 127"
   version="1.1"
   id="svg8"
   inkscape:version="0.92.2 2405546, 2018-03-11"
   sodipodi:docname="knight_back.svg">
  <defs
     id="defs2">
    <marker
       inkscape:stockid="SemiCircleIn"
       orient="auto"
       refY="0.0"
       refX="0.0"
       id="SemiCircleIn"
       style="overflow:visible"
       inkscape:isstock="true">
      <path
         id="path2857"
         d="M -0.37450702,-0.045692580 C -0.37450702,2.7143074 1.8654930,4.9543074 4.6254930,4.9543074 L 4.6254930,-5.0456926 C 1.8654930,-5.0456926 -0.37450702,-2.8056926 -0.37450702,-0.045692580 z "
         style="fill-rule:evenodd;stroke:#000000;stroke-width:1pt;stroke-opacity:1;fill:#000000;fill-opacity:1"
         transform="scale(0.6)" />
    </marker>
    <marker
       inkscape:stockid="StopS"
       orient="auto"
       refY="0.0"
       refX="0.0"
       id="StopS"
       style="overflow:visible"
       inkscape:isstock="true">
      <path
         id="path2854"
         d="M 0.0,5.65 L 0.0,-5.65"
         style="fill:none;fill-opacity:0.75;fill-rule:evenodd;stroke:#000000;stroke-width:1pt;stroke-opacity:1"
         transform="scale(0.2)" />
    </marker>
    <marker
       inkscape:stockid="Arrow1Lstart"
       orient="auto"
       refY="0.0"
       refX="0.0"
       id="marker4019"
       style="overflow:visible"
       inkscape:isstock="true">
      <path
         id="path4017"
         d="M 0.0,0.0 L 5.0,-5.0 L -12.5,0.0 L 5.0,5.0 L 0.0,0.0 z "
         style="fill-rule:evenodd;stroke:#000000;stroke-width:1pt;stroke-opacity:1;fill:#000000;fill-opacity:1"
         transform="scale(0.8) translate(12.5,0)" />
    </marker>
    <marker
       inkscape:stockid="Arrow1Lstart"
       orient="auto"
       refY="0.0"
       refX="0.0"
       id="marker3919"
       style="overflow:visible"
       inkscape:isstock="true">
      <path
         id="path3917"
         d="M 0.0,0.0 L 5.0,-5.0 L -12.5,0.0 L 5.0,5.0 L 0.0,0.0 z "
         style="fill-rule:evenodd;stroke:#000000;stroke-width:1pt;stroke-opacity:1;fill:#000000;fill-opacity:1"
         transform="scale(0.8) translate(12.5,0)" />
    </marker>
    <marker
       inkscape:stockid="Arrow1Lstart"
       orient="auto"
       refY="0.0"
       refX="0.0"
       id="marker3825"
       style="overflow:visible"
       inkscape:isstock="true">
      <path
         id="path3823"
         d="M 0.0,0.0 L 5.0,-5.0 L -12.5,0.0 L 5.0,5.0 L 0.0,0.0 z "
         style="fill-rule:evenodd;stroke:#000000;stroke-width:1pt;stroke-opacity:1;fill:#000000;fill-opacity:1"
         transform="scale(0.8) translate(12.5,0)" />
    </marker>
    <marker
       inkscape:stockid="Arrow1Lstart"
       orient="auto"
       refY="0.0"
       refX="0.0"
       id="marker3737"
       style="overflow:visible"
       inkscape:isstock="true">
      <path
         id="path3735"
         d="M 0.0,0.0 L 5.0,-5.0 L -12.5,0.0 L 5.0,5.0 L 0.0,0.0 z "
         style="fill-rule:evenodd;stroke:#000000;stroke-width:1pt;stroke-opacity:1;fill:#000000;fill-opacity:1"
         transform="scale(0.8) translate(12.5,0)" />
    </marker>
    <marker
       inkscape:stockid="Arrow1Lstart"
       orient="auto"
       refY="0.0"
       refX="0.0"
       id="marker3655"
       style="overflow:visible"
       inkscape:isstock="true">
      <path
         id="path3653"
         d="M 0.0,0.0 L 5.0,-5.0 L -12.5,0.0 L 5.0,5.0 L 0.0,0.0 z "
         style="fill-rule:evenodd;stroke:#000000;stroke-width:1pt;stroke-opacity:1;fill:#000000;fill-opacity:1"
         transform="scale(0.8) translate(12.5,0)" />
    </marker>
    <marker
       inkscape:stockid="Arrow1Lstart"
       orient="auto"
       refY="0.0"
       refX="0.0"
       id="marker3579"
       style="overflow:visible"
       inkscape:isstock="true">
      <path
         id="path3577"
         d="M 0.0,0.0 L 5.0,-5.0 L -12.5,0.0 L 5.0,5.0 L 0.0,0.0 z "
         style="fill-rule:evenodd;stroke:#000000;stroke-width:1pt;stroke-opacity:1;fill:#000000;fill-opacity:1"
         transform="scale(0.8) translate(12.5,0)" />
    </marker>
    <marker
       inkscape:stockid="Arrow1Lstart"
       orient="auto"
       refY="0.0"
       refX="0.0"
       id="marker3509"
       style="overflow:visible"
       inkscape:isstock="true">
      <path
         id="path3507"
         d="M 0.0,0.0 L 5.0,-5.0 L -12.5,0.0 L 5.0,5.0 L 0.0,0.0 z "
         style="fill-rule:evenodd;stroke:#000000;stroke-width:1pt;stroke-opacity:1;fill:#000000;fill-opacity:1"
         transform="scale(0.8) translate(12.5,0)" />
    </marker>
    <marker
       inkscape:stockid="Arrow1Lstart"
       orient="auto"
       refY="0.0"
       refX="0.0"
       id="marker3445"
       style="overflow:visible"
       inkscape:isstock="true">
      <path
         id="path3443"
         d="M 0.0,0.0 L 5.0,-5.0 L -12.5,0.0 L 5.0,5.0 L 0.0,0.0 z "
         style="fill-rule:evenodd;stroke:#000000;stroke-width:1pt;stroke-opacity:1;fill:#000000;fill-opacity:1"
         transform="scale(0.8) translate(12.5,0)" />
    </marker>
    <marker
       inkscape:stockid="Arrow1Lstart"
       orient="auto"
       refY="0.0"
       refX="0.0"
       id="marker3387"
       style="overflow:visible"
       inkscape:isstock="true">
      <path
         id="path3385"
         d="M 0.0,0.0 L 5.0,-5.0 L -12.5,0.0 L 5.0,5.0 L 0.0,0.0 z "
         style="fill-rule:evenodd;stroke:#000000;stroke-width:1pt;stroke-opacity:1;fill:#000000;fill-opacity:1"
         transform="scale(0.8) translate(12.5,0)" />
    </marker>
    <marker
       inkscape:stockid="Arrow1Lstart"
       orient="auto"
       refY="0.0"
       refX="0.0"
       id="marker3335"
       style="overflow:visible"
       inkscape:isstock="true">
      <path
         id="path3333"
         d="M 0.0,0.0 L 5.0,-5.0 L -12.5,0.0 L 5.0,5.0 L 0.0,0.0 z "
         style="fill-rule:evenodd;stroke:#000000;stroke-width:1pt;stroke-opacity:1;fill:#000000;fill-opacity:1"
         transform="scale(0.8) translate(12.5,0)" />
    </marker>
    <marker
       inkscape:stockid="Arrow1Lstart"
       orient="auto"
       refY="0.0"
       refX="0.0"
       id="marker3289"
       style="overflow:visible"
       inkscape:isstock="true">
      <path
         id="path3287"
         d="M 0.0,0.0 L 5.0,-5.0 L -12.5,0.0 L 5.0,5.0 L 0.0,0.0 z "
         style="fill-rule:evenodd;stroke:#000000;stroke-width:1pt;stroke-opacity:1;fill:#000000;fill-opacity:1"
         transform="scale(0.8) translate(12.5,0)" />
    </marker>
    <marker
       inkscape:stockid="Arrow1Lstart"
       orient="auto"
       refY="0.0"
       refX="0.0"
       id="marker3135"
       style="overflow:visible"
       inkscape:isstock="true">
      <path
         id="path3133"
         d="M 0.0,0.0 L 5.0,-5.0 L -12.5,0.0 L 5.0,5.0 L 0.0,0.0 z "
         style="fill-rule:evenodd;stroke:#000000;stroke-width:1pt;stroke-opacity:1;fill:#000000;fill-opacity:1"
         transform="scale(0.8) translate(12.5,0)" />
    </marker>
    <marker
       inkscape:stockid="Arrow1Lstart"
       orient="auto"
       refY="0.0"
       refX="0.0"
       id="marker3059"
       style="overflow:visible"
       inkscape:isstock="true">
      <path
         id="path3057"
         d="M 0.0,0.0 L 5.0,-5.0 L -12.5,0.0 L 5.0,5.0 L 0.0,0.0 z "
         style="fill-rule:evenodd;stroke:#000000;stroke-width:1pt;stroke-opacity:1;fill:#000000;fill-opacity:1"
         transform="scale(0.8) translate(12.5,0)" />
    </marker>
    <marker
       inkscape:stockid="Arrow1Lstart"
       orient="auto"
       refY="0.0"
       refX="0.0"
       id="marker3001"
       style="overflow:visible"
       inkscape:isstock="true">
      <path
         id="path2999"
         d="M 0.0,0.0 L 5.0,-5.0 L -12.5,0.0 L 5.0,5.0 L 0.0,0.0 z "
         style="fill-rule:evenodd;stroke:#000000;stroke-width:1pt;stroke-opacity:1;fill:#000000;fill-opacity:1"
         transform="scale(0.8) translate(12.5,0)" />
    </marker>
    <marker
       inkscape:stockid="DiamondS"
       orient="auto"
       refY="0.0"
       refX="0.0"
       id="DiamondS"
       style="overflow:visible"
       inkscape:isstock="true">
      <path
         id="path2764"
         d="M 0,-7.0710768 L -7.0710894,0 L 0,7.0710589 L 7.0710462,0 L 0,-7.0710768 z "
         style="fill-rule:evenodd;stroke:#000000;stroke-width:1pt;stroke-opacity:1;fill:#000000;fill-opacity:1"
         transform="scale(0.2)" />
    </marker>
    <marker
       inkscape:stockid="Arrow1Lstart"
       orient="auto"
       refY="0.0"
       refX="0.0"
       id="Arrow1Lstart"
       style="overflow:visible"
       inkscape:isstock="true">
      <path
         id="path2679"
         d="M 0.0,0.0 L 5.0,-5.0 L -12.5,0.0 L 5.0,5.0 L 0.0,0.0 z "
         style="fill-rule:evenodd;stroke:#000000;stroke-width:1pt;stroke-opacity:1;fill:#000000;fill-opacity:1"
         transform="scale(0.8) translate(12.5,0)" />
    </marker>
  </defs>
  <sodipodi:namedview
     id="base"
     pagecolor="#ffffff"
     bordercolor="#666666"
     borderopacity="1.0"
     inkscape:pageopacity="0.0"
     inkscape:pageshadow="2"
     inkscape:zoom="0.98994949"
     inkscape:cx="-3.2413588"
     inkscape:cy="211.46586"
     inkscape:document-units="mm"
     inkscape:current-layer="layer1"
     showgrid="false"
     units="px"
     inkscape:window-width="1920"
     inkscape:window-height="942"
     inkscape:window-x="0"
     inkscape:window-y="0"
     inkscape:window-maximized="1" />
  <metadata
     id="metadata5">
    <rdf:RDF>
      <cc:Work
         rdf:about="">
        <dc:format>image/svg+xml</dc:format>
        <dc:type
           rdf:resource="http://purl.org/dc/dcmitype/StillImage" />
        <dc:title />
      </cc:Work>
    </rdf:RDF>
  </metadata>
  <g
     inkscape:label="Layer 1"
     inkscape:groupmode="layer"
     id="layer1"
     transform="translate(0,-169.99998)">
    <path
       style="fill:#ffffff;fill-rule:evenodd;stroke:#000000;stroke-width:1.63228595;stroke-linecap:butt;stroke-linejoin:miter;stroke-miterlimit:4;stroke-dasharray:none;stroke-opacity:1"
       d="m 60.577324,170.26074 12.473474,2.46847 9.895258,6.34764 0.401834,24.30384 c -20.55635,14.00857 -23.785376,11.56415 -44.335632,0.23829 l 0.535779,-24.06559 8.933828,-6.1484 z"
       id="path8282"
       inkscape:connector-curvature="0"
       sodipodi:nodetypes="cccccccc" />
    <path
       style="fill:#ffffff;fill-opacity:1;fill-rule:evenodd;stroke:#000000;stroke-width:3.24807024;stroke-linecap:butt;stroke-linejoin:miter;stroke-miterlimit:4;stroke-dasharray:none;stroke-opacity:1"
       d="m 85.115032,213.26633 -8.775919,5.66469 c -9.177258,-6.77345 -18.867161,-9.3354 -29.984379,-0.17166 l -7.313267,-5.83634 2.559644,7.5529 c 15.084134,61.83825 26.86804,61.58723 39.857286,1.54492 z"
       id="path8901"
       inkscape:connector-curvature="0"
       sodipodi:nodetypes="ccccccc" />
    <path
       style="fill:#ffffff;fill-rule:evenodd;stroke:#000000;stroke-width:2.0508678;stroke-linecap:butt;stroke-linejoin:miter;stroke-miterlimit:4;stroke-dasharray:none;stroke-opacity:1"
       d="m 73.307045,209.88763 c 38.258475,70.97426 -58.703221,75.29068 -23.140933,0 9.277012,4.24326 15.02726,4.29953 23.140933,0 z"
       id="path819"
       inkscape:connector-curvature="0"
       sodipodi:nodetypes="ccc" />
    <path
       style="fill:#ffffff;fill-rule:evenodd;stroke:#000000;stroke-width:3.15433097;stroke-linecap:butt;stroke-linejoin:miter;stroke-miterlimit:4;stroke-dasharray:none;stroke-opacity:1"
       d="m 76.704778,245.36623 c 10.562691,35.23303 -7.01994,75.71585 -14.072254,32.18679 -0.09196,-0.56762 -1.742767,-0.23053 -1.830888,0.33514 -6.841986,43.91883 -23.339638,0.75846 -12.252923,-32.35005"
       id="path8922"
       inkscape:connector-curvature="0"
       sodipodi:nodetypes="cssc" />
    <path
       style="fill:none;fill-rule:evenodd;stroke:#000000;stroke-width:3.16499996;stroke-linecap:butt;stroke-linejoin:round;stroke-miterlimit:4;stroke-dasharray:none;stroke-opacity:1"
       d="m 48.265231,246.48305 c 3.708933,-13.04444 23.925405,-15.49569 28.912015,0.25334"
       id="path2677"
       inkscape:connector-curvature="0"
       sodipodi:nodetypes="cc" />
    <path
       style="fill:none;fill-rule:evenodd;stroke:#000000;stroke-width:0.765;stroke-linecap:butt;stroke-linejoin:miter;stroke-opacity:1;stroke-miterlimit:4;stroke-dasharray:none"
       d="m 51.971725,272.99849 c 0,-1.6379 0,-3.27579 0,-4.91369 0,-0.56696 0,-1.13393 0,-1.70089 0,-0.16378 -0.03649,-0.64648 0,-0.75596 0.04454,-0.13363 0.144449,-0.24434 0.188989,-0.37797 0.04333,-0.12999 -0.05575,-0.45546 0,-0.56697 0.03984,-0.0797 0.149147,-0.10928 0.188987,-0.18898 0.05168,-0.10336 -0.03215,-0.43835 0,-0.56697 0.04832,-0.19326 0.140669,-0.3737 0.188989,-0.56696 0.03788,-0.15151 -0.04843,-0.65905 0,-0.75595 0.03984,-0.0797 0.149149,-0.10929 0.188989,-0.18899 0.02817,-0.0564 -0.01992,-0.12919 0,-0.18899 0.08909,-0.26727 0.288886,-0.48868 0.377976,-0.75595 0.03984,-0.11953 -0.05635,-0.26529 0,-0.37798 0.03984,-0.0797 0.125987,-0.12599 0.188987,-0.18899 0.063,-0.063 0.114859,-0.13959 0.188989,-0.18899 0.117205,-0.0781 0.278376,-0.0894 0.377976,-0.18898 0.09961,-0.0996 0.08938,-0.27838 0.188989,-0.37798 0.09961,-0.0996 0.278366,-0.0894 0.377976,-0.18899 0.04454,-0.0445 -0.02817,-0.13259 0,-0.18899 0.03984,-0.0797 0.125996,-0.12598 0.188986,-0.18898 0.180878,-0.18088 0.413666,-0.36257 0.566965,-0.56697 0.136282,-0.18171 0.251984,-0.37797 0.377976,-0.56696 0,-0.063 -0.02817,-0.13269 0,-0.18899 0.03984,-0.0797 0.14915,-0.10929 0.18899,-0.18899 0.02817,-0.0563 -0.02817,-0.13259 0,-0.18899 0.07968,-0.15937 0.298295,-0.21861 0.377975,-0.37797 0.02817,-0.0564 -0.02817,-0.13269 0,-0.18899 0.03984,-0.0797 0.139567,-0.11489 0.188987,-0.18899 0.07814,-0.11721 0.110849,-0.26077 0.188989,-0.37798 0.185394,-0.27809 0.570558,-0.47786 0.755952,-0.75595 0.03494,-0.0524 -0.04455,-0.14439 0,-0.18899 0.0996,-0.0996 0.278376,-0.0894 0.377976,-0.18898 0.468525,-0.46853 0.268702,-0.49755 0.566965,-0.94494 0.162377,-0.24357 0.571068,-0.50944 0.755951,-0.75596 0.136282,-0.18171 0.241697,-0.38525 0.377979,-0.56696 0.180964,-0.24129 0.554558,-0.55456 0.755951,-0.75595 0.063,-0.063 0.149147,-0.10929 0.188987,-0.18899 0.101159,-0.20231 -0.163648,-0.40332 0.188989,-0.75595 0.0996,-0.0996 0.260771,-0.11089 0.377976,-0.18899 0.07413,-0.0494 0.125989,-0.12599 0.188989,-0.18899 0.063,-0.063 0.149147,-0.10929 0.188987,-0.18899 0.02817,-0.0563 -0.02817,-0.13259 0,-0.18899 0.07968,-0.15936 0.271068,-0.23543 0.377976,-0.37797 0.136281,-0.18171 0.241696,-0.38526 0.377978,-0.56697 0.05345,-0.0713 0.160817,-0.10449 0.188987,-0.18899 0.0136,-0.0408 -0.0346,-0.70405 0,-0.75595 0.22375,-0.33562 0.503967,-0.62996 0.755951,-0.94494 -0.01575,0.11024 -0.0315,0.22049 -0.04724,0.33073 0,0.0945 0.01172,0.18972 0,0.28348 -0.0044,0.035 -0.04146,0.0598 -0.04725,0.0945 -0.01553,0.0932 0.01553,0.19027 0,0.28348 -0.0128,0.0768 -0.0624,0.25049 -0.09449,0.33073 -0.01308,0.0327 -0.03871,0.0603 -0.04725,0.0945 -0.0076,0.0306 0,0.063 0,0.0945 0,0.0157 0.0058,0.0326 0,0.0472 -0.02616,0.0654 -0.06834,0.1236 -0.09449,0.18899 -0.0058,0.0146 0.007,0.0332 0,0.0473 -0.01,0.0199 -0.03729,0.0273 -0.04725,0.0472 -0.01409,0.0282 0.01409,0.0663 0,0.0945 -0.01943,0.0389 -0.165693,0.15405 -0.188988,0.18899 -0.0087,0.0131 0.005,0.0323 0,0.0472 -0.01114,0.0334 -0.02771,0.0652 -0.04725,0.0945 -0.02471,0.0371 -0.07457,0.0547 -0.09449,0.0945 -0.007,0.0141 0.007,0.0332 0,0.0472 -0.01,0.0199 -0.0402,0.0261 -0.04725,0.0472 -0.01,0.0299 0.01,0.0646 0,0.0945 -0.007,0.0211 -0.03489,0.0287 -0.04725,0.0473 -0.116063,0.0168 -0.01962,0.1003 -0.04725,0.14174 -0.02471,0.0371 -0.06979,0.0574 -0.09449,0.0945 -0.0087,0.0131 0.005,0.0323 0,0.0473 -0.01114,0.0334 -0.03611,0.0611 -0.04725,0.0945 -0.01,0.0299 0.01409,0.0663 0,0.0945 -0.02835,0.0567 -0.113393,0.085 -0.141742,0.14174 -0.007,0.0141 0,0.0315 0,0.0472 -0.01575,0.0472 -0.02497,0.0972 -0.04725,0.14174 -0.108115,0.21623 0.01958,-0.20049 -0.09449,0.14174 -0.005,0.0149 0.0094,0.0346 0,0.0473 -0.04009,0.0534 -0.107363,0.0844 -0.141741,0.14174 -0.0162,0.027 0.01,0.0646 0,0.0945 -0.007,0.0211 -0.03489,0.0287 -0.04725,0.0472 -0.02007,0.0301 -0.134079,0.25283 -0.141741,0.28348 -0.0076,0.0306 0,0.063 0,0.0945 0,0.0157 0.007,0.0332 0,0.0472 -0.01,0.0199 -0.03729,0.0273 -0.04725,0.0472 -0.007,0.0141 0,0.0315 0,0.0473 -0.01575,0.0315 -0.02771,0.0652 -0.04725,0.0945 -0.02471,0.0371 -0.08041,0.0522 -0.09449,0.0945 -0.01,0.0299 0.01,0.0646 0,0.0945 -0.007,0.0211 -0.03489,0.0287 -0.04725,0.0472 -4.65e-4,6.9e-4 -0.09405,0.18832 -0.09449,0.18898 -0.02471,0.0371 -0.07457,0.0547 -0.09449,0.0945 -0.02227,0.0445 -0.02498,0.0972 -0.04725,0.14174 -0.02539,0.0508 -0.06042,0.0963 -0.09449,0.14174 -0.01336,0.0178 -0.03729,0.0273 -0.04725,0.0473 -0.007,0.0141 0.007,0.0332 0,0.0472 -0.04107,0.0821 -0.100673,0.1541 -0.141741,0.23624 -0.02227,0.0445 -0.02497,0.0972 -0.04725,0.14174 -0.01,0.0199 -0.03729,0.0273 -0.04725,0.0472 -0.007,0.0141 0,0.0315 0,0.0472 0,0.0315 0.01,0.0646 0,0.0945 -0.007,0.0211 -0.0402,0.0261 -0.04725,0.0472 -0.01,0.0299 0.01,0.0646 0,0.0945 -0.01241,0.0372 -0.166275,0.14356 -0.188988,0.18899 -0.135218,0.27043 0.02936,0.0298 -0.09449,0.23623 -0.102281,0.17047 -0.1079,0.12801 -0.188988,0.33073 -0.0059,0.0146 0.0087,0.0341 0,0.0472 -0.02471,0.0371 -0.06777,0.0589 -0.0945,0.0945 -0.02113,0.0282 -0.02978,0.0639 -0.04725,0.0945 -0.04556,0.0797 -0.0908,0.15982 -0.141741,0.23623 -0.04368,0.0655 -0.102672,0.12062 -0.141741,0.18899 -0.02471,0.0432 -0.02497,0.0972 -0.04725,0.14174 -0.292909,0.58582 0.191025,-0.57171 -0.236235,0.42522 -0.01241,0.029 0.01747,0.0683 0,0.0945 -0.05594,0.0839 -0.135541,0.15072 -0.188988,0.23623 -0.0264,0.0422 -0.02497,0.0972 -0.04725,0.14174 -0.07204,0.14409 -0.03746,-0.0864 -0.09449,0.14175 -0.0076,0.0306 0.01,0.0646 0,0.0945 -0.007,0.0211 -0.03729,0.0273 -0.04725,0.0473 -0.02227,0.0445 -0.02497,0.0972 -0.04725,0.14174 -0.01992,0.0398 -0.07457,0.0546 -0.09449,0.0945 -0.007,0.0141 0,0.0315 0,0.0473 -0.0315,0.0315 -0.06777,0.0589 -0.09449,0.0945 -0.02555,0.0341 -0.123978,0.23908 -0.141741,0.28348 -0.0185,0.0462 -0.01737,0.1019 -0.04725,0.14175 -0.05738,0.0287 -0.105667,0.0404 -0.141741,0.0945 -0.08257,0.12385 -0.01766,0.0826 -0.09449,0.23624 -0.01,0.0199 -0.03388,0.0294 -0.04725,0.0472 -0.03407,0.0454 -0.06042,0.0963 -0.09449,0.14174 -0.06051,0.0807 -0.133051,0.15233 -0.188989,0.23624 -0.0087,0.0131 0,0.0315 0,0.0472 -0.07874,0.11024 -0.140437,0.23493 -0.236235,0.33072 -0.06493,0.0649 -0.159826,0.0908 -0.236235,0.14175 -0.05542,0.0369 -0.116429,0.15734 -0.141741,0.18898 -0.09577,0.11972 -0.218242,0.171 -0.330729,0.28349 -0.04015,0.0401 -0.05902,0.0974 -0.09449,0.14174 -0.05906,0.0738 -0.165511,0.16551 -0.236235,0.23623 -0.01575,0.0157 -0.03729,0.0273 -0.04725,0.0472 -0.007,0.0141 0,0.0315 0,0.0473 -0.01575,0.0315 -0.02612,0.0663 -0.04725,0.0945 -0.02673,0.0356 -0.063,0.063 -0.09449,0.0945 -0.01575,0.0157 -0.03729,0.0273 -0.04725,0.0472 -0.0017,0.003 0.0017,0.091 0,0.0945 -0.01992,0.0398 -0.08041,0.0522 -0.09449,0.0945 -0.01,0.0299 0.01,0.0646 0,0.0945 -0.007,0.0211 -0.03729,0.0273 -0.04725,0.0472 -0.007,0.0141 0.007,0.0332 0,0.0473 -0.01,0.0199 -0.03729,0.0273 -0.04725,0.0472 -0.01409,0.0282 0.01409,0.0663 0,0.0945 -0.01,0.0199 -0.03898,0.0266 -0.04725,0.0473 -0.02412,0.0603 -0.0095,0.13614 -0.04725,0.18898 -0.04577,0.0641 -0.125993,0.0945 -0.188989,0.14174 -0.063,0.0788 -0.135541,0.15073 -0.188988,0.23624 -0.219213,0.35074 0.0056,0.0306 -0.04725,0.18899 -0.02682,0.0805 -0.07119,0.15469 -0.09449,0.23623 -0.0087,0.0303 0.01,0.0646 0,0.0945 -0.007,0.0211 -0.0315,0.0315 -0.04725,0.0472 -0.07032,0.0703 -0.06735,0.0533 -0.09449,0.18899 -0.0062,0.0309 0,0.063 0,0.0945 0,0.0787 0,0.15749 0,0.23623 0,0.0315 0.0076,0.0639 0,0.0945 -0.119341,0.47736 0.01706,-0.0341 -0.09449,0.18898 -0.02227,0.0446 -0.02875,0.0955 -0.04725,0.14174 -0.01308,0.0327 -0.03871,0.0603 -0.04725,0.0945 -0.0191,0.0764 0.01544,0.15902 0,0.23623 -0.03146,0.15732 -0.06751,0.0405 -0.141741,0.18899 -0.01372,0.0274 0.01393,0.25563 0,0.28348 -0.01,0.0199 -0.03729,0.0273 -0.04725,0.0472 -0.007,0.0141 0.007,0.0332 0,0.0473 -0.111555,0.22311 0.02485,-0.28838 -0.09449,0.18899 -0.01146,0.0458 0.01146,0.0959 0,0.14174 -0.0085,0.0342 -0.03611,0.0611 -0.04725,0.0945 -0.01509,0.0453 0.01459,0.19247 0,0.23624 -0.007,0.0211 -0.04184,0.0256 -0.04725,0.0472 -0.0071,0.0282 0,0.29896 0,0.33073 0,0.0315 0.01,0.0646 0,0.0945 -0.007,0.0211 -0.0402,0.0261 -0.04725,0.0472 -0.01494,0.0448 0,0.0945 0,0.14174 0,0.0945 0,0.18899 0,0.28349 0,0.36222 0,0.72445 0,1.08668 0,0.11024 0,0.22048 0,0.33073 0,0.0161 0.0085,0.16342 0,0.18899 -0.02227,0.0668 -0.07222,0.12217 -0.09449,0.18898 -0.01494,0.0448 0.01494,0.0969 0,0.14174 -0.007,0.0211 -0.03729,0.0273 -0.04725,0.0473 -0.0151,0.0302 0.01268,0.15096 0,0.18899 -0.01114,0.0334 -0.03871,0.0603 -0.04725,0.0945 -0.0058,0.023 0.01249,0.16401 0,0.18899 -0.01,0.0199 -0.03729,0.0273 -0.04725,0.0472 -0.01356,0.0271 0.01268,0.24544 0,0.28348 -0.007,0.0211 -0.03729,0.0273 -0.04725,0.0473 -0.007,0.0141 0.005,0.0323 0,0.0473 -0.01575,0.0315 -0.0315,0.063 -0.04725,0.0945 0,0.0157 0.005,0.0323 0,0.0472 -0.01114,0.0334 -0.03871,0.0603 -0.04725,0.0945 -0.01055,0.0422 0,0.18155 0,0.23624 0,0.0157 0.005,0.0323 0,0.0472 -0.01114,0.0334 -0.03611,0.0611 -0.04725,0.0945 -0.01656,0.0497 0.02261,0.20232 0,0.23623 -0.115093,0.17264 -0.06916,-0.0507 -0.141741,0.0945 -0.007,0.0141 0.007,0.0332 0,0.0472 -0.01,0.0199 -0.03333,0.0299 -0.04725,0.0473 -0.04919,0.0615 -0.101228,0.12146 -0.141741,0.18899 -0.0081,0.0135 0.002,0.0316 0,0.0472 -0.01381,0.11051 -0.02541,0.22153 -0.04725,0.33073 -0.0098,0.0488 -0.03517,0.0934 -0.04725,0.14175 -0.008,0.0322 0.01292,0.1159 0,0.14174 -0.01,0.0199 -0.0402,0.0261 -0.04725,0.0472 -0.01494,0.0448 0.01494,0.0969 0,0.14174 -0.01114,0.0334 -0.03611,0.0611 -0.04725,0.0945 -0.0085,0.0256 0,0.17289 0,0.18899 0,0.14174 0,0.28348 0,0.42522 0,0.0473 0.01755,0.0979 0,0.14174 -0.01654,0.0414 -0.06978,0.0574 -0.09449,0.0945 -0.0087,0.0131 0,0.0315 0,0.0473 0,0.0315 0,0.063 0,0.0945 0,0.0787 0,0.15749 0,0.23623 0,0.22049 0,0.44097 0,0.66146 0,0.0787 0,0.15749 0,0.23623 0,0.0158 0,0.0315 0,0.0473 0,0.0157 -0.007,0.0332 0,0.0472 0.01,0.0199 0.03729,0.0273 0.04725,0.0473 0.0189,0.0378 -0.0189,0.10394 0,0.14174 0.05838,0.11676 0.04725,-0.0163 0.04725,0.0945"
       id="path4531"
       inkscape:connector-curvature="0" />
    <path
       style="fill:none;fill-rule:evenodd;stroke:#000000;stroke-width:0.765;stroke-linecap:butt;stroke-linejoin:miter;stroke-opacity:1;stroke-miterlimit:4;stroke-dasharray:none"
       d="m 62.933034,248.05206 c 0.01574,0.0315 0.03611,0.0611 0.04725,0.0945 0.005,0.0149 0,0.0315 0,0.0472 0,0.063 0,0.12599 0,0.18899 0,0.0157 -0.007,0.0332 0,0.0472 0.115478,0.23095 0.08236,0.046 0.14174,0.28348 0.0168,0.0672 -0.02096,0.17338 0,0.23624 0.007,0.0211 0.04184,0.0256 0.04725,0.0472 0.01146,0.0458 0,0.0945 0,0.14174 0,0.0945 0,0.18899 0,0.28349 0,0.26773 0,0.53546 0,0.80319 0,0.17325 0,0.34648 0,0.51972 0,0.0315 0,0.063 0,0.0945 0,0.0315 0.01746,0.0683 0,0.0945 -0.01953,0.0293 -0.07336,0.0191 -0.09449,0.0472 -0.02988,0.0398 -0.02498,0.0972 -0.04725,0.14174 -0.01,0.0199 -0.0402,0.0261 -0.04725,0.0472 -0.02988,0.0424 0.01495,0.0969 0,0.14175 -0.0571,0.17128 -0.02241,0.0336 -0.0945,0.14174 -0.01574,0.0315 -0.0315,0.063 -0.04725,0.0945 0,0.0157 0.007,0.0332 0,0.0472 -0.0254,0.0508 -0.06528,0.0931 -0.09449,0.14174 -0.104093,0.0238 -0.02498,0.0972 -0.04725,0.14174 -0.01,0.0199 -0.03729,0.0273 -0.04725,0.0472 -0.007,0.0141 0.0058,0.0326 0,0.0472 -0.02617,0.0654 -0.06834,0.12359 -0.0945,0.18898 -0.0058,0.0146 0.007,0.0332 0,0.0472 -0.06688,0.13375 -0.179871,0.22712 -0.283482,0.33073 -0.01574,0.0157 -0.03729,0.0273 -0.04725,0.0473 -0.007,0.0141 0.007,0.0332 0,0.0472 -0.0099,0.0199 -0.0315,0.0315 -0.04725,0.0472 -0.0315,0.0473 -0.07213,0.0896 -0.09449,0.14174 -0.02558,0.0597 -0.0182,0.13091 -0.04725,0.18899 -0.153829,0.30766 -0.04735,-0.0942 -0.141743,0.18899 -0.005,0.0149 0,0.0315 0,0.0472 0,0.0703 0.007,0.0603 -0.04725,0.14174 -0.156699,0.1567 0.02228,-0.0446 -0.04725,0.0945 -0.0034,0.007 -0.09114,0.0878 -0.09449,0.0945 -0.007,0.0141 0.007,0.0332 0,0.0472 -0.01,0.0199 -0.04185,0.0256 -0.04725,0.0473 -0.01146,0.0458 0.01146,0.0959 0,0.14174 -0.0083,0.0333 -0.185505,0.13825 -0.188989,0.14174 -0.01114,0.0111 0.0038,0.032 0,0.0472 -0.01206,0.0483 -0.02875,0.0955 -0.04725,0.14174 -0.01307,0.0327 -0.02771,0.0652 -0.04725,0.0945 -0.07208,0.10812 -0.0374,-0.0295 -0.0945,0.14174 -0.005,0.0149 0.007,0.0332 0,0.0472 -0.0099,0.0199 -0.03489,0.0287 -0.04725,0.0472 -0.01953,0.0293 -0.0315,0.063 -0.04725,0.0945 -0.01574,0.0315 -0.03417,0.0618 -0.04725,0.0945 -0.01849,0.0462 -0.02498,0.0972 -0.04725,0.14174 -0.05678,0.11357 -0.12082,0.2236 -0.188989,0.33072 -0.08455,0.13287 -0.205346,0.24124 -0.283483,0.37798 -0.02471,0.0432 -0.02498,0.0972 -0.04725,0.14174 -0.0099,0.0199 -0.03544,0.0284 -0.04725,0.0472 -0.06729,0.10767 -0.123661,0.22185 -0.188987,0.33073 -0.02921,0.0487 -0.0691,0.091 -0.0945,0.14174 -0.07676,0.15352 -0.105934,0.32298 -0.188986,0.47247 0.160917,0.30429 -0.162523,0.24898 -0.236236,0.37798 -0.05242,0.0917 -0.08933,0.19175 -0.14174,0.28348 -0.01106,0.0193 -0.03729,0.0273 -0.04725,0.0473 -0.01408,0.0282 0.0076,0.0639 0,0.0945 -0.01206,0.0483 -0.02498,0.0972 -0.04725,0.14174 -0.108114,0.21623 0.01958,-0.20049 -0.09449,0.14174 -0.0099,0.0299 0.01407,0.0663 0,0.0945 -0.01992,0.0399 -0.07457,0.0547 -0.09449,0.0945 -0.007,0.0141 0.005,0.0323 0,0.0473 -0.01114,0.0334 -0.03611,0.0611 -0.04725,0.0945 -0.02053,0.0616 -0.0182,0.13091 -0.04725,0.18899 -0.01992,0.0398 -0.06299,0.063 -0.09449,0.0945 -0.0315,0.0945 -0.04995,0.1944 -0.09449,0.28349 -0.01992,0.0398 -0.07457,0.0546 -0.09449,0.0945 -0.01408,0.0282 0.0099,0.0646 0,0.0945 -0.02228,0.0668 -0.06675,0.12426 -0.0945,0.18899 -0.01963,0.0458 -0.02498,0.0972 -0.04725,0.14174 -0.01,0.0199 -0.0402,0.0261 -0.04725,0.0473 -0.0254,0.0762 -0.02519,0.15902 -0.04725,0.23623 -0.0097,0.0339 -0.03871,0.0603 -0.04725,0.0945 -0.0076,0.0306 0.0076,0.0639 0,0.0945 -0.01767,0.0707 -0.116337,0.18543 -0.141743,0.23624 -0.007,0.0141 0.0087,0.0341 0,0.0473 -0.02471,0.0371 -0.06777,0.0589 -0.09449,0.0945 -0.02114,0.0282 -0.0315,0.063 -0.04725,0.0945 -0.01574,0.0315 -0.03611,0.0611 -0.04725,0.0945 -0.02053,0.0616 -0.03451,0.12531 -0.04725,0.18898 -0.0118,0.0591 0.02363,0.0709 0,0.14175 -0.007,0.0211 -0.03729,0.0273 -0.04725,0.0472 -0.04725,0.0945 0.0945,0 0,0.14174 -0.01953,0.0293 -0.06959,0.0224 -0.09449,0.0472 -0.02228,0.0223 0.01407,0.0663 0,0.0945 -0.01,0.0199 -0.03729,0.0273 -0.04725,0.0472 -0.01408,0.0282 0.01408,0.0663 0,0.0945 -0.0099,0.0199 -0.0402,0.0261 -0.04725,0.0472 -0.009,0.0271 0,0.19188 0,0.23624 0,0.0315 0,0.063 0,0.0945 -0.01574,0.0157 -0.04185,0.0256 -0.04725,0.0473 -0.0085,0.034 0,0.23139 0,0.28348 0,0.0315 0.0076,0.0639 0,0.0945 -0.0085,0.0342 -0.03871,0.0603 -0.04725,0.0945 -0.0076,0.0306 0.0076,0.0639 0,0.0945 -0.0085,0.0342 -0.0315,0.063 -0.04725,0.0945 -0.06562,0.13125 -0.14877,0.28446 -0.188987,0.42522 -0.0087,0.0303 0,0.063 0,0.0945 0,0.0787 0.01709,0.15936 0,0.23623 -0.01529,0.0688 -0.063,0.12599 -0.09449,0.18899 -0.01574,0.0315 -0.04146,0.0598 -0.04725,0.0945 -0.01035,0.0621 0.01037,0.12685 0,0.18899 -0.0058,0.0347 -0.03611,0.0611 -0.04725,0.0945 -0.01495,0.0448 0.0093,0.0954 0,0.14175 -0.0098,0.0488 -0.03517,0.0934 -0.04725,0.14174 -0.0076,0.0306 0,0.063 0,0.0945 0,0.0787 0,0.15749 0,0.23624 0,0.0315 0.01408,0.0663 0,0.0945 -0.03522,0.0704 -0.106524,0.11856 -0.14174,0.18899 -0.01407,0.0282 0.0052,0.0634 0,0.0945 -0.01069,0.064 -0.03451,0.12532 -0.04725,0.18899 -0.02363,0.11812 0.04725,-0.0473 0,0.14174 -0.0085,0.0342 -0.03611,0.0611 -0.04725,0.0945 -0.005,0.0149 0.0031,0.0318 0,0.0472 -0.08838,0.44188 -0.0044,-0.0295 -0.09449,0.33073 -0.0038,0.0153 0,0.0315 0,0.0473 -0.01574,0.0787 -0.02777,0.15833 -0.04725,0.23623 -0.01206,0.0483 -0.02875,0.0955 -0.04725,0.14174 -0.01307,0.0327 -0.04034,0.06 -0.04725,0.0945 -0.0093,0.0463 0.0093,0.0954 0,0.14174 -0.0069,0.0345 -0.03417,0.0618 -0.04725,0.0945 -0.01849,0.0462 -0.02498,0.0972 -0.04725,0.14175 -0.0099,0.0199 -0.0402,0.0261 -0.04725,0.0472 -0.0099,0.0299 0,0.063 0,0.0945 0,0.11024 0,0.22048 0,0.33073 0,0.0787 0.01545,0.15902 0,0.23623 -0.0069,0.0345 -0.04146,0.0598 -0.04725,0.0945 -0.0136,0.0816 0,0.23392 0,0.33073 0,0.0315 0.01,0.0646 0,0.0945 -0.01574,0.0315 -0.0315,0.063 -0.04725,0.0945 0,0.0315 0.01,0.0646 0,0.0945 -0.007,0.0211 -0.03729,0.0273 -0.04725,0.0472 -0.0075,0.0151 0,0.19401 0,0.23624 0,0.23623 0,0.47247 0,0.7087 0,0.0361 0.0066,0.31744 0,0.33073 -0.01992,0.0398 -0.07457,0.0547 -0.09449,0.0945 -0.01408,0.0282 0.02228,0.0722 0,0.0945 -0.0249,0.0249 -0.07875,0.0157 -0.0945,0.0473 -0.02817,0.0563 0,0.12599 0,0.18899 0,0.12599 0,0.25198 0,0.37797 0,0.42523 0,0.85045 0,1.27567 0,0.14174 0,0.28348 0,0.42522 0,0.0112 -0.0053,0.1784 0,0.18899 0.01992,0.0398 0.07457,0.0547 0.0945,0.0945 0.01484,0.0297 -0.01484,0.15929 0,0.18899 0.0099,0.0199 0.03728,0.0273 0.04725,0.0472 0.01408,0.0282 -0.01408,0.0663 0,0.0945 0.0099,0.0199 0.03728,0.0273 0.04725,0.0472 0.007,0.0141 0,0.0315 0,0.0472 0,0.0157 0,0.0315 0,0.0473 0,0.11024 0,0.22048 0,0.33073 0,0.0173 0.0019,0.18708 0,0.18898 -0.063,0.063 -0.04534,-0.10022 -0.09449,0.0472 -0.0099,0.0299 0.0099,0.0646 0,0.0945 -0.007,0.0211 -0.03489,0.0287 -0.04725,0.0472 -0.01953,0.0293 -0.0315,0.063 -0.04725,0.0945 -0.01574,0.0315 -0.03871,0.0603 -0.04725,0.0945 -0.0076,0.0306 0,0.063 0,0.0945 0,0.0157 -0.01574,-0.0472 0,-0.0472 0.01574,0 0,0.0315 0,0.0472"
       id="path4533"
       inkscape:connector-curvature="0" />
    <path
       style="fill:none;fill-rule:evenodd;stroke:#000000;stroke-width:0.765;stroke-linecap:butt;stroke-linejoin:miter;stroke-opacity:1;stroke-miterlimit:4;stroke-dasharray:none"
       d="m 59.483947,273.13987 c 0,-0.67721 0,-1.35441 0,-2.03162 0,-0.20474 0,-0.40947 0,-0.61421 0,-0.0489 -0.009,-0.29473 0,-0.33073 0.0085,-0.0342 0.03611,-0.0611 0.04725,-0.0945 0.01,-0.0299 0,-0.063 0,-0.0945 0,-0.0945 0,-0.18898 0,-0.28348 0,-0.23624 0,-0.47247 0,-0.70871 0,-0.0315 0,-0.063 0,-0.0945 0,-0.0157 -0.005,-0.0323 0,-0.0472 0.01114,-0.0334 0.03611,-0.0611 0.04725,-0.0945 0.0076,-0.0229 0,-0.30943 0,-0.33073 0,-0.18899 0,-0.37798 0,-0.56696 0,-0.1575 0,-0.31499 0,-0.47248 0,-0.073 0.01114,-0.16943 0,-0.23623 -0.0082,-0.0491 -0.03745,-0.0929 -0.04725,-0.14174 -0.0062,-0.0309 0,-0.063 0,-0.0945 0,-0.063 0,-0.12598 0,-0.18898 0,-0.20474 0,-0.40948 0,-0.61421 0,-0.15749 0,-0.31498 0,-0.47248 0,-0.0326 -0.0072,-0.17458 0,-0.18898 0.01992,-0.0399 0.07457,-0.0546 0.09449,-0.0945 0.007,-0.014 0,-0.0315 0,-0.0472 0,-0.0361 -0.0046,-0.27199 0,-0.28349 0.01655,-0.0414 0.07458,-0.0547 0.0945,-0.0945 0.01408,-0.0282 -0.0044,-0.0633 0,-0.0945 0.05804,-0.40638 0.02121,-0.0848 0.09449,-0.37798 0.0038,-0.0152 0,-0.0315 0,-0.0472 0,-0.0787 -0.0087,-0.15793 0,-0.23623 0.0241,-0.21694 0.08022,-0.19966 0.14174,-0.42523 0.160994,-0.59031 -0.005,-0.0593 0.04725,-0.42522 0.02369,-0.16581 0.140897,-0.44674 0.188987,-0.56696 0.01308,-0.0327 0.02772,-0.0652 0.04725,-0.0945 0.01236,-0.0185 0.04185,-0.0256 0.04725,-0.0472 0.0026,-0.0103 -0.01074,-0.21474 0,-0.23624 0.01,-0.02 0.03735,-0.0274 0.04725,-0.0473 0.01138,-0.0228 -0.0065,-0.30493 0,-0.33073 0.0054,-0.0216 0.03725,-0.0273 0.04725,-0.0472 0.01889,-0.0378 -0.01889,-0.10394 0,-0.14174 0.01,-0.02 0.03725,-0.0274 0.04725,-0.0473 0.007,-0.014 0,-0.0315 0,-0.0472 0,-0.0315 0,-0.063 0,-0.0945 0,-0.0346 -0.0094,-0.23658 0,-0.28348 0.02694,-0.13471 0.10843,-0.24474 0.14174,-0.37798 0.01482,-0.0593 -0.01482,-0.12969 0,-0.18899 0.01709,-0.0683 0.07741,-0.12069 0.0945,-0.18899 0.0076,-0.0306 -0.0052,-0.0634 0,-0.0945 0.01068,-0.0641 0.03452,-0.12529 0.04725,-0.18899 0.0031,-0.0155 0,-0.0315 0,-0.0473 0,-0.0748 -0.01,-0.30807 0,-0.37797 0.0092,-0.0643 0.03151,-0.12599 0.04725,-0.18899 0.01575,-0.063 0.03151,-0.12599 0.04725,-0.18899 0.01575,-0.063 0.02315,-0.12869 0.04725,-0.18899 0.0083,-0.0206 0.03151,-0.0315 0.04725,-0.0472 0.0315,-0.0315 0.07159,-0.0563 0.0945,-0.0945 0.03412,-0.0569 0.07904,-0.28443 0.09449,-0.33073 0.02682,-0.0805 0.07118,-0.15473 0.09449,-0.23623 0.0087,-0.0303 -0.01,-0.0646 0,-0.0945 0.007,-0.0211 0.04025,-0.0261 0.04725,-0.0472 0.0254,-0.0762 0.02778,-0.15834 0.04725,-0.23624 0.01208,-0.0483 0.03357,-0.0938 0.04725,-0.14174 9e-4,-0.003 0.09422,-0.37718 0.09449,-0.37798 0.0083,-0.0206 0.04185,-0.0256 0.04725,-0.0472 0.01146,-0.0458 0,-0.0945 0,-0.14174 0,-0.0157 -0.0055,-0.0325 0,-0.0472 0.04211,-0.1123 0.11265,-0.21437 0.14174,-0.33073 0.0191,-0.0764 0,-0.15753 0,-0.23623 0,-0.0158 0,-0.0316 0,-0.0473 0,-0.0158 -0.007,-0.0332 0,-0.0473 0.01,-0.0199 0.03735,-0.0273 0.04725,-0.0472 0.007,-0.014 -0.005,-0.0323 0,-0.0472 0.01114,-0.0334 0.04145,-0.0598 0.04725,-0.0945 0.01035,-0.0621 -0.0173,-0.12839 0,-0.18899 0.0156,-0.0545 0.06909,-0.0909 0.09449,-0.14174 0.007,-0.014 -0.0026,-0.0317 0,-0.0472 0.01321,-0.0792 0.02778,-0.15834 0.04725,-0.23624 0.01208,-0.0483 0.02497,-0.0972 0.04725,-0.14174 0.01,-0.02 0.04285,-0.0254 0.04725,-0.0473 0.01236,-0.0618 -0.01035,-0.12688 0,-0.18898 0.02852,-0.17115 0.0405,-0.0337 0.0945,-0.14175 0.01408,-0.0282 -0.0076,-0.0639 0,-0.0945 0.01208,-0.0483 0.03516,-0.0934 0.04725,-0.14174 0.0076,-0.0306 -0.01408,-0.0663 0,-0.0945 0.01,-0.0199 0.03735,-0.0273 0.04725,-0.0472 0.01408,-0.0282 -0.0099,-0.0646 0,-0.0945 0.05141,-0.15423 0.06172,-0.0396 0.09449,-0.23623 0.0078,-0.0466 0,-0.0945 0,-0.14174 0,-0.0158 -0.005,-0.0324 0,-0.0473 0.03341,-0.10022 0.108333,-0.18326 0.141743,-0.28348 0.0099,-0.0299 0,-0.063 0,-0.0945 0,-0.0315 0,-0.063 0,-0.0945 0,-0.0472 -0.01146,-0.0959 0,-0.14174 0.0054,-0.0217 0.03845,-0.0268 0.04725,-0.0473 0.03923,-0.0915 0.0575,-0.19098 0.09449,-0.28348 0.02615,-0.0654 0.06675,-0.12429 0.09449,-0.18899 0.01962,-0.0457 0.02497,-0.0972 0.04725,-0.14174 0.01,-0.0199 0.04285,-0.0254 0.04725,-0.0472 0.01236,-0.0618 0,-0.12599 0,-0.18899 0,-0.0315 -0.01,-0.0646 0,-0.0945 0.007,-0.0211 0.04025,-0.0261 0.04725,-0.0472 0.01495,-0.0448 0,-0.0945 0,-0.14175 0,-0.0281 -0.0089,-0.26578 0,-0.28348 0.01992,-0.0398 0.06978,-0.0574 0.09449,-0.0945 0.0087,-0.0131 0,-0.0315 0,-0.0472 0,-0.0472 0,-0.0945 0,-0.14174 0,-0.0315 -0.0062,-0.0636 0,-0.0945 0.01953,-0.0977 0.07033,-0.18689 0.09449,-0.28349 0.0038,-0.0152 0,-0.0315 0,-0.0472 0,-0.0472 -0.0093,-0.0954 0,-0.14174 0.0069,-0.0345 0.03611,-0.0611 0.04725,-0.0945 0.005,-0.0149 -0.0031,-0.0317 0,-0.0472 0.08839,-0.44187 0.0044,0.0295 0.09449,-0.33073 0.0038,-0.0152 0,-0.0315 0,-0.0472 0,-0.063 0,-0.12599 0,-0.18899 0,-0.0787 0,-0.15753 0,-0.23623 0,-0.36223 0,-0.72446 0,-1.08669 0,-0.29923 0,-0.59846 0,-0.89769 0,-0.0961 0,-0.0943 0,-0.28348 0,-0.0315 0.01106,-0.065 0,-0.0945 -0.0371,-0.0989 -0.09449,-0.18898 -0.141743,-0.28348 -0.01575,0.0787 -0.03925,0.15633 -0.04724,0.23624 -0.01097,0.10969 0,0.22048 0,0.33073 0,0.0202 0,0.76666 0,0.8032 0,0.7402 0,1.4804 0,2.22061 0,0.27598 0.0067,0.041 -0.04725,0.47247 -0.002,0.0156 0.0026,0.0317 0,0.0472 -0.0132,0.0792 -0.03729,0.15655 -0.04725,0.23624 -0.01367,0.10939 0.01367,0.22134 0,0.33073 -0.0081,0.0644 -0.03919,0.12455 -0.04725,0.18899 -0.0078,0.0625 0,0.12599 0,0.18898 0,0.0472 0.01298,0.0963 0,0.14175 -0.01935,0.0677 -0.07514,0.12126 -0.09449,0.18898 -0.01298,0.0454 0.0067,0.095 0,0.14174 -0.0092,0.0643 -0.03919,0.12456 -0.04725,0.18899 -0.01167,0.0934 0,0.23006 0,0.33073 0,0.0472 0.0093,0.0954 0,0.14174 -0.0069,0.0345 -0.03611,0.0611 -0.04725,0.0945 -0.005,0.0149 0,0.0315 0,0.0472 0,0.126 0,0.25199 0,0.37798 0,0.004 0,0.31242 0,0.33073 0,0.0157 0.0031,0.0318 0,0.0472 -0.01273,0.0637 -0.03657,0.12493 -0.04725,0.18898 -0.01036,0.0621 0,0.126 0,0.18899 0,0.15749 0,0.31498 0,0.47247 0,0.0315 0,0.063 0,0.0945 0,0.0315 0.01,0.0646 0,0.0945 -0.007,0.0211 -0.03729,0.0273 -0.04725,0.0473 -0.007,0.0141 0,0.0315 0,0.0473 0,0.0315 0,0.063 0,0.0945 0,0.0945 0,0.18899 0,0.28348 0,0.0472 0,0.0945 0,0.14174 0,0.0158 0.0038,0.032 0,0.0473 -0.01208,0.0483 -0.03748,0.0929 -0.04725,0.14174 -0.0094,0.0469 0,0.24888 0,0.28348 0,0.17324 0,0.34648 0,0.51972 0,0.063 0,0.12599 0,0.18899 0,0.0472 0.0085,0.0952 0,0.14174 -0.02323,0.12777 -0.07126,0.2502 -0.09449,0.37798 -0.0085,0.0465 0,0.0945 0,0.14174 0,0.0945 0.0094,0.18945 0,0.28348 -0.01572,0.15715 -0.112138,0.32445 -0.141741,0.47247 -0.01235,0.0618 0,0.12599 0,0.18899 -0.063,0.17324 -0.134777,0.34353 -0.188988,0.51971 -0.0093,0.0301 0.0062,0.0636 0,0.0945 -0.0098,0.0488 -0.03748,0.0929 -0.04725,0.14174 -0.01235,0.0618 0,0.12599 0,0.18899 0,0.0787 0,0.15749 0,0.23623 0,0.0473 0,0.0945 0,0.14174 0,0.0157 0.005,0.0323 0,0.0472 -0.01114,0.0334 -0.03611,0.0611 -0.04725,0.0945 -0.005,0.0149 0.005,0.0323 0,0.0473 -0.01114,0.0334 -0.04034,0.06 -0.04725,0.0945 -0.0093,0.0463 0.02113,0.0995 0,0.14174 -0.01575,0.0315 -0.07874,0.0157 -0.09449,0.0472 -0.02817,0.0564 0,0.126 0,0.18899 0,0.12599 0,0.25199 0,0.37798 0,0.44097 0,0.88194 0,1.32291 0,0.58272 0,1.16543 0,1.74814 0,0.22049 0,0.44098 0,0.66146 0,0.0495 -0.0096,0.24506 0,0.28349 0.0085,0.0342 0.03611,0.0611 0.04725,0.0945 0.0085,0.0256 0,0.17289 0,0.18899 0,0.11024 0,0.22048 0,0.33073 0,0.33073 0,0.66145 0,0.99218 0,0.11025 0,0.22049 0,0.33073 0,0.063 -0.01235,0.12722 0,0.18899 -0.02848,0.0855 0.07654,0.0879 0.0945,0.14174 0.01,0.0299 0,0.063 0,0.0945 0,0.0158 0,0.0315 0,0.0472 0,0.063 0,0.126 0,0.18899 0,0.0315 -0.0062,0.0636 0,0.0945 0.0098,0.0488 0.03906,0.0926 0.04725,0.14174 0.0078,0.0466 0,0.0945 0,0.14174 0,0.11024 0,0.22048 0,0.33073 0,0.0315 0,0.063 0,0.0945 0,0.0157 -0.0038,0.032 0,0.0472 0.02416,0.0966 0.07496,0.18581 0.09449,0.28348 0.0062,0.0309 0,0.063 0,0.0945 0,0.0945 0,0.18899 0,0.28349 0,0.18898 0,0.37797 0,0.56696 0,0.14174 0,0.28348 0,0.42522 0,0.0452 0.0064,0.097 0,0.14174 -0.01355,0.0948 -0.02401,0.19055 -0.04725,0.28349 -0.0085,0.0342 -0.0315,0.063 -0.04725,0.0945 -0.0315,0.11024 -0.06962,0.21881 -0.0945,0.33073 -0.0068,0.0308 0.0087,0.0642 0,0.0945 -0.0233,0.0815 -0.07392,0.15396 -0.09449,0.23624 -0.01528,0.0611 0,0.12599 0,0.18899"
       id="path4535"
       inkscape:connector-curvature="0" />
    <path
       style="fill:none;fill-rule:evenodd;stroke:#000000;stroke-width:0.765;stroke-linecap:butt;stroke-linejoin:miter;stroke-opacity:1;stroke-miterlimit:4;stroke-dasharray:none"
       d="m 62.933034,248.05206 c 0.04725,0.0157 0.106527,0.012 0.141743,0.0472 0.02228,0.0223 -0.0076,0.0639 0,0.0945 0.02082,0.0833 0.111254,0.1651 0.14174,0.23624 0.02558,0.0597 0.02671,0.12738 0.04725,0.18899 0.01114,0.0334 0.03417,0.0618 0.04725,0.0945 0.01849,0.0462 0.02498,0.0972 0.04725,0.14174 0.0099,0.0199 0.03729,0.0273 0.04725,0.0473 0.007,0.0141 -0.0031,0.0318 0,0.0472 0.01273,0.0637 0.02941,0.12655 0.04725,0.18898 0.01368,0.0479 0.03517,0.0934 0.04725,0.14175 0.0038,0.0153 0,0.0315 0,0.0472 0.01574,0.063 0.02941,0.12655 0.04725,0.18899 0.01368,0.0479 0.03906,0.0926 0.04725,0.14174 0.0078,0.0466 0,0.0945 0,0.14174 0,0.12599 -0.01564,0.25296 0,0.37798 0.0062,0.0494 0.04343,0.0921 0.04725,0.14174 0.01206,0.15702 0,0.31498 0,0.47247 0,0.36223 0,0.72445 0,1.08668 0,0.8347 0,1.6694 0,2.50409 0,0.11025 0,0.22049 0,0.33073 0,0.0473 0,0.0945 0,0.14174 0,0.0315 -0.0117,0.0653 0,0.0945 0.02109,0.0527 0.07654,0.0879 0.09449,0.14174 0.01495,0.0448 0,0.0945 0,0.14174 0,0.0788 0,0.15749 0,0.23623 0,0.0157 -0.0031,0.0318 0,0.0472 0.01273,0.0637 0.03657,0.12494 0.04725,0.18899 0.0052,0.0311 0,0.063 0,0.0945 0,0.0945 0,0.18899 0,0.28349 0,0.0315 -0.0062,0.0636 0,0.0945 0.0098,0.0488 0.0402,0.0924 0.04725,0.14174 0.0089,0.0624 0,0.12599 0,0.18899 0,0.12599 0,0.25198 0,0.37798 0,0.0157 -0.0026,0.0317 0,0.0472 0.0132,0.0792 0.03729,0.15655 0.04725,0.23624 0.0058,0.0469 0,0.0945 0,0.14174 0,0.0945 0,0.18899 0,0.28348 0,0.31498 0,0.62996 0,0.94494 0,0.22049 0,0.44097 0,0.66146 0,0.0945 0.02487,0.19232 0,0.28348 -0.02416,0.0886 -0.110358,0.14993 -0.14174,0.23624 -0.03274,0.09 -0.02402,0.19054 -0.04725,0.28348 -0.02416,0.0966 -0.07496,0.18581 -0.0945,0.28348 -0.01236,0.0618 0.0035,0.12609 0,0.18899 -0.01225,0.22071 -0.03346,0.44084 -0.04725,0.66146 -0.0044,0.07 0.0066,0.17061 0,0.23623 -0.01109,0.11081 -0.038,0.21975 -0.04725,0.33073 -0.0065,0.0785 0,0.15749 0,0.23624 0,0.14174 0,0.28348 0,0.42522 0,0.12599 0,0.25198 0,0.37798 0,0.0315 -0.0076,0.0639 0,0.0945 0.0085,0.0342 0.02771,0.0652 0.04725,0.0945 0.01236,0.0185 0.04185,0.0256 0.04725,0.0473 0.02291,0.0917 -0.02291,0.19181 0,0.28348 0.0054,0.0216 0.0315,0.0315 0.04725,0.0473 0,0.0315 0,0.063 0,0.0945 0,0.063 -0.02339,0.1305 0,0.18899 0.01307,0.0327 0.07496,0.0179 0.09449,0.0472 0.01024,0.0154 0,0.20055 0,0.23624 0,0.14743 0,0.16651 0,0.28348 0,0.0472 0,0.0945 0,0.14174 0,0.0315 0.0099,0.0646 0,0.0945 -0.007,0.0211 -0.0402,0.0261 -0.04725,0.0472 -0.01,0.0299 0.0035,0.0632 0,0.0945 -0.0123,0.11068 -0.02024,0.2227 -0.04725,0.33073 -0.0054,0.0216 -0.0315,0.0315 -0.04725,0.0472 -0.01574,0.0315 -0.04336,0.0595 -0.04725,0.0945 -0.01217,0.10957 0,0.22049 0,0.33073 0,0.0315 0.0076,0.0639 0,0.0945 -0.0085,0.0342 -0.04146,0.0598 -0.04725,0.0945 -0.01035,0.0621 0,0.12599 0,0.18899 0,0.0315 0.0062,0.0636 0,0.0945 -0.0098,0.0488 -0.03517,0.0934 -0.04725,0.14174 -0.0038,0.0153 0,0.0315 0,0.0472 0,0.063 0.0063,0.1263 0,0.18899 -0.02527,0.25268 -0.06645,0.50356 -0.09449,0.75595 -0.0035,0.0313 0,0.063 0,0.0945 0,0.11025 0,0.22049 0,0.33073 0,0.14175 0,0.28349 0,0.42523 0,0.0472 -0.01011,0.19581 0,0.23623 0.01206,0.0483 0.03748,0.0929 0.04725,0.14174 0.0062,0.0309 0,0.063 0,0.0945 0.01574,0.0472 0.03517,0.0934 0.04725,0.14174 0.0038,0.0153 0,0.0315 0,0.0473 0,0.063 0,0.12599 0,0.18898 0,0.0315 -0.0099,0.0646 0,0.0945 0.007,0.0211 0.03729,0.0273 0.04725,0.0473 0.007,0.0141 -0.007,0.0332 0,0.0472 0.01,0.0199 0.03729,0.0273 0.04725,0.0472 0.007,0.0141 0,0.0315 0,0.0473 0,0.0315 -0.0076,0.0639 0,0.0945 0.0085,0.0342 0.03611,0.0611 0.04725,0.0945 0.01397,0.0419 -0.01548,0.20529 0,0.23623 0.0254,0.0508 0.0691,0.0909 0.0945,0.14174 0.01408,0.0282 -0.01,0.0646 0,0.0945 0.01114,0.0334 0.03871,0.0603 0.04725,0.0945 0.0076,0.0306 0,0.063 0,0.0945 0.01574,0.0315 0.03611,0.0611 0.04725,0.0945 0.01516,0.0455 -0.01236,0.13955 0,0.18899 0.01206,0.0483 0.03906,0.0926 0.04725,0.14174 0.0078,0.0466 0,0.0945 0,0.14174 0,0.0945 0,0.18899 0,0.28348 0,0.063 -0.01035,0.12685 0,0.18899 0.0058,0.0347 0.03611,0.0611 0.04725,0.0945 0.01468,0.0441 -0.01455,0.19257 0,0.23624 0.007,0.0211 0.0441,0.0252 0.04725,0.0472 0.01773,0.12405 0,0.29061 0,0.42523 0,0.17323 0,0.34648 0,0.51971 0,0.0132 0,0.2934 0,0.14174"
       id="path4537"
       inkscape:connector-curvature="0" />
    <path
       style="fill:none;fill-rule:evenodd;stroke:#000000;stroke-width:0.765;stroke-linecap:butt;stroke-linejoin:miter;stroke-opacity:1;stroke-miterlimit:4;stroke-dasharray:none"
       d="m 62.885793,248.38279 c -0.0029,0.13304 -0.106529,0.012 -0.141745,0.0472 -0.01114,0.0111 0.0087,0.0341 0,0.0472 -0.02471,0.0371 -0.063,0.063 -0.09449,0.0945 -0.01574,0.0157 -0.02733,0.0373 -0.04725,0.0473 -0.01408,0.007 -0.03316,-0.007 -0.04725,0 -0.01992,0.01 -0.02733,0.0373 -0.04725,0.0472 -0.01408,0.007 -0.03611,-0.0111 -0.04725,0 -0.01114,0.0111 0.01114,0.0361 0,0.0472 -0.09776,0.0978 0.0038,-0.14938 -0.09449,0.0473 -0.007,0.0141 0.01408,0.0402 0,0.0472 -0.03057,0.0153 -0.172016,-0.017 -0.188989,0 -0.0249,0.0249 -0.02771,0.0652 -0.04725,0.0945 -0.07835,0.11752 -0.01085,0.005 -0.09449,0.0472 -0.01992,0.01 -0.0315,0.0315 -0.04725,0.0472 -0.0315,0.0315 -0.063,0.063 -0.0945,0.0945 -0.0315,0.0315 -0.05886,0.0678 -0.09449,0.0945 -0.02817,0.0211 -0.06519,0.0277 -0.09449,0.0472 -0.06552,0.0437 -0.123467,0.0981 -0.188989,0.14174 -0.254606,0.16974 0.134213,-0.16904 -0.283482,0.18899 -0.05073,0.0435 -0.09449,0.0945 -0.14174,0.14174 -0.110244,0.0787 -0.22379,0.15306 -0.330729,0.23623 -0.03516,0.0274 -0.05825,0.0686 -0.09449,0.0945 -0.07473,0.0534 -0.167126,0.0813 -0.236236,0.14174 -0.09607,0.12808 -0.127018,0.18791 -0.236235,0.28348 -0.847321,0.7061 0.1921,-0.1921 -0.47247,0.47247 -0.149822,0.14982 -0.322648,0.2754 -0.472471,0.42522 -0.07131,0.0713 -0.110242,0.17324 -0.188987,0.23624 -0.0825,0.066 -0.197514,0.0803 -0.283482,0.14174 -0.02866,0.0205 -0.02771,0.0652 -0.04725,0.0945 -0.02471,0.0371 -0.08041,0.0522 -0.0945,0.0945 -0.0099,0.0299 0.01,0.0646 0,0.0945 -0.01066,0.032 -0.123695,0.10565 -0.14174,0.14174 -0.01408,0.0282 0.01408,0.0663 0,0.0945 -0.01992,0.0398 -0.06978,0.0574 -0.09449,0.0945 -0.03907,0.0586 -0.05543,0.13039 -0.0945,0.18899 -0.02471,0.0371 -0.07457,0.0547 -0.09449,0.0945 -0.007,0.0141 0,0.0315 0,0.0472 -0.01574,0.0315 -0.02524,0.067 -0.04725,0.0945 -0.220885,0.27611 -0.074,-0.004 -0.283483,0.33073 -0.05599,0.0896 -0.08314,0.19558 -0.141739,0.28349 -0.01236,0.0185 -0.0315,0.0315 -0.04725,0.0472 -0.01574,0.0315 -0.02772,0.0652 -0.04725,0.0945 -0.01236,0.0185 -0.03729,0.0273 -0.04725,0.0472 -0.007,0.0141 0,0.0315 0,0.0472 0,0.0315 0.0099,0.0646 0,0.0945 -0.007,0.0211 -0.0315,0.0315 -0.04725,0.0472 -0.04725,0.0473 -0.09449,0.0945 -0.14174,0.14174 -0.01574,0.0158 -0.03489,0.0287 -0.04725,0.0473 -0.01953,0.0293 -0.0315,0.063 -0.04725,0.0945 0,0.0473 0.02432,0.10123 0,0.14174 -0.02922,0.0487 -0.106878,0.0497 -0.14174,0.0945 -0.28304,0.36391 -0.110966,0.21644 -0.236235,0.42522 -0.02922,0.0487 -0.06401,0.0938 -0.09449,0.14174 -0.07977,0.12535 -0.156469,0.25263 -0.236236,0.37798 -0.03049,0.0479 -0.06042,0.0963 -0.09449,0.14174 -0.01336,0.0178 -0.0315,0.0315 -0.04725,0.0472 -0.04725,0.0472 -0.09449,0.0945 -0.141742,0.14174 -0.0315,0.0315 -0.06777,0.0589 -0.09449,0.0945 -0.04226,0.0564 -0.05826,0.1286 -0.09449,0.18899 -0.02922,0.0487 -0.0691,0.0909 -0.09449,0.14174 -0.007,0.0141 0.0087,0.0341 0,0.0472 -0.02471,0.0371 -0.06777,0.0589 -0.0945,0.0945 -0.02114,0.0282 -0.02771,0.0652 -0.04725,0.0945 -0.01236,0.0185 -0.0315,0.0315 -0.04725,0.0472 -0.01574,0.0315 -0.02771,0.0652 -0.04725,0.0945 -0.01294,0.0194 -0.12233,0.1288 -0.141742,0.14174 -0.0293,0.0195 -0.07336,0.0191 -0.09449,0.0473 -0.02988,0.0398 -0.02875,0.0955 -0.04725,0.14174 -0.01307,0.0327 -0.02771,0.0652 -0.04725,0.0945 -0.02471,0.0371 -0.06979,0.0574 -0.09449,0.0945 -0.01953,0.0293 -0.02913,0.0643 -0.04725,0.0945 -0.08727,0.14545 -0.201125,0.27698 -0.283479,0.42522 -0.05131,0.0924 -0.08314,0.19558 -0.141743,0.28348 -0.03706,0.0556 -0.106328,0.0851 -0.14174,0.14174 -0.04495,0.0719 -0.04955,0.16432 -0.0945,0.23624 -0.03541,0.0567 -0.10165,0.0883 -0.14174,0.14174 -0.0094,0.0126 0.007,0.0332 0,0.0473 -0.04107,0.0821 -0.09618,0.1565 -0.14174,0.23623 -0.01746,0.0306 -0.02611,0.0663 -0.04725,0.0945 -0.02673,0.0356 -0.06978,0.0574 -0.09449,0.0945 -0.0087,0.0131 0.007,0.0332 0,0.0473 -0.10754,0.10754 -0.01249,-0.01 -0.04725,0.0945 -0.01114,0.0334 -0.02771,0.0652 -0.04725,0.0945 -0.01236,0.0185 -0.0315,0.063 -0.04725,0.0472 -0.01574,-0.0157 0.04725,-0.0695 0.04725,-0.0472 0,0.0352 -0.02771,0.0652 -0.04725,0.0945 -0.04737,0.0711 -0.150778,0.0653 -0.18899,0.14174 -0.007,0.0141 0.007,0.0332 0,0.0473 -0.01,0.0199 -0.03489,0.0287 -0.04725,0.0473 -0.03907,0.0586 -0.05542,0.13038 -0.09449,0.18898 -0.01236,0.0185 -0.03729,0.0273 -0.04725,0.0473 -0.007,0.0141 0.007,0.0332 0,0.0473 -0.0254,0.0508 -0.0691,0.0909 -0.0945,0.14174 -0.144058,0.0335 -0.0182,0.13091 -0.04725,0.18899 -0.01992,0.0398 -0.07457,0.0547 -0.09449,0.0945 -0.007,0.0141 0.005,0.0323 0,0.0473 -0.01114,0.0334 -0.03871,0.0603 -0.04725,0.0945 -0.0076,0.0306 0.01408,0.0663 0,0.0945 -0.01992,0.0398 -0.06979,0.0574 -0.0945,0.0945 -0.0137,0.0206 0.01246,0.1168 0,0.14174 -0.0099,0.0199 -0.0402,0.0261 -0.04725,0.0472 -0.01495,0.0448 0.01495,0.0969 0,0.14174 -0.05429,0.16287 -0.04725,0.035 -0.04725,0.14174"
       id="path4539"
       inkscape:connector-curvature="0" />
    <path
       style="fill:none;fill-rule:evenodd;stroke:#000000;stroke-width:0.765;stroke-linecap:butt;stroke-linejoin:miter;stroke-opacity:1;stroke-miterlimit:4;stroke-dasharray:none"
       d="m 65.81519,272.00632 c 0,-0.0457 0.007,-0.26948 0,-0.28348 -0.01,-0.02 -0.04025,-0.0262 -0.04725,-0.0473 -0.0099,-0.0299 0,-0.063 0,-0.0945 0,-0.0157 0.007,-0.0331 0,-0.0472 -0.01,-0.0199 -0.04025,-0.0261 -0.04725,-0.0472 -0.01897,-0.0569 0.01662,-0.17524 0,-0.23624 -0.04326,-0.15863 -0.09449,-0.31498 -0.141743,-0.47247 -0.01575,-0.0157 -0.03735,-0.0273 -0.04725,-0.0472 -0.007,-0.014 0,-0.0315 0,-0.0472 0,-0.0472 0.0093,-0.0954 0,-0.14174 -0.0069,-0.0345 -0.03151,-0.063 -0.04725,-0.0945 -0.01575,-0.0157 -0.04205,-0.0256 -0.04725,-0.0472 -0.0901,-0.37544 -0.160516,-0.75534 -0.236236,-1.13393 -0.0031,-0.0155 0.005,-0.0324 0,-0.0473 -0.01114,-0.0334 -0.03611,-0.0611 -0.04725,-0.0945 -0.005,-0.0149 0,-0.0315 0,-0.0472 0,-0.063 0,-0.12599 0,-0.18899 0,-0.0315 0.0044,-0.0633 0,-0.0945 -0.01355,-0.0948 -0.03775,-0.18819 -0.04725,-0.28349 -0.0063,-0.0627 0,-0.12599 0,-0.18899 0,-0.14174 0,-0.28348 0,-0.42522 0,-0.2198 -0.0071,-0.44183 0,-0.66146 0.03099,-0.9607 0.06447,-1.92133 0.09449,-2.88207 0.0029,-0.0936 0,-0.18958 0,-0.28348 0,-0.0472 0.01146,-0.0959 0,-0.14174 -0.0085,-0.0342 -0.04035,-0.06 -0.04725,-0.0945 -0.01,-0.0499 0,-0.26243 0,-0.33073 0,-0.25198 0,-0.50397 0,-0.75595 0,-0.063 0,-0.12599 0,-0.18899 0,-0.0315 0.0076,-0.0639 0,-0.0945 -0.11933,-0.47737 0.01706,0.0341 -0.09449,-0.18899 -0.02905,-0.0581 0.09681,-0.15549 -0.04725,-0.18899 -0.07204,-0.14374 -0.03746,0.0864 -0.0945,-0.14174 -0.01146,-0.0458 0,-0.0945 0,-0.14174 0,-0.11025 0,-0.22049 0,-0.33073 0,-0.33049 -0.02246,-0.66688 0.04725,-0.99219 0.0895,-0.41765 0.09096,-0.21151 0.14174,-0.56696 0.02006,-0.14032 -0.07016,-0.28847 0,-0.42523 0.0126,-0.0693 0.0819,-0.11969 0.09449,-0.18899 0.02535,-0.13945 0,-0.28348 0,-0.42522 0,-0.15749 0,-0.31498 0,-0.47247 0,-0.063 0.0089,-0.12659 0,-0.18899 -0.0071,-0.0493 -0.03745,-0.0929 -0.04725,-0.14174 -0.0062,-0.0309 0,-0.063 0,-0.0945 0,-0.0158 0.007,-0.0332 0,-0.0473 -0.02539,-0.0507 -0.06909,-0.0909 -0.09449,-0.14174 -0.007,-0.014 0.005,-0.0323 0,-0.0472 -0.01114,-0.0334 -0.03418,-0.0618 -0.04725,-0.0945 -0.03603,-0.0901 -0.07659,-0.24113 -0.0945,-0.33073 -0.0062,-0.0309 0,-0.063 0,-0.0945 0,-0.0945 0,-0.18899 0,-0.28349 0,-0.89769 0,-1.79539 0,-2.69308 0,-0.26773 0,-0.53546 0,-0.8032 0,-0.11024 0,-0.22048 0,-0.33073 0,-0.0472 0.0093,-0.0954 0,-0.14174 -0.0069,-0.0345 -0.04145,-0.0598 -0.04725,-0.0945 -0.01034,-0.0621 0.01037,-0.12689 0,-0.18899 -0.0058,-0.0348 -0.03611,-0.0611 -0.04725,-0.0945 -0.005,-0.015 0.005,-0.0324 0,-0.0473 -0.01114,-0.0334 -0.04035,-0.06 -0.04725,-0.0945 -0.0093,-0.0463 0.0059,-0.0948 0,-0.14174 -0.0275,-0.22004 -0.05403,-0.2229 -0.09449,-0.42522 -0.0031,-0.0155 0.0038,-0.032 0,-0.0473 -0.01208,-0.0483 -0.03905,-0.0926 -0.04725,-0.14174 -0.0078,-0.0466 0,-0.0945 0,-0.14174 0,-0.17324 0,-0.34648 0,-0.51972 0,-0.0945 0.02596,-0.19258 0,-0.28348 -0.0097,-0.0338 -0.086,-0.013 -0.0945,-0.0472 -0.02674,-0.10696 0.01368,-0.22134 0,-0.33073 -0.0028,-0.0221 -0.04285,-0.0254 -0.04725,-0.0472 -0.01236,-0.0618 0.0078,-0.12649 0,-0.18899 -0.0081,-0.0644 -0.03452,-0.12529 -0.04725,-0.18899 -0.01879,-0.0939 -0.02402,-0.19058 -0.04725,-0.28348 -0.0085,-0.0342 -0.03418,-0.0618 -0.04725,-0.0945 -0.0185,-0.0462 -0.03519,-0.0934 -0.04725,-0.14174 -0.0038,-0.0153 0.005,-0.0324 0,-0.0473 -0.03974,-0.11922 -0.120819,-0.14534 -0.188989,-0.23624 -0.08048,-0.1073 -0.140426,-0.23493 -0.236236,-0.33073 -0.04015,-0.0402 -0.10159,-0.0543 -0.14174,-0.0945 -0.02489,-0.0249 -0.02611,-0.0663 -0.04725,-0.0945 -0.02673,-0.0356 -0.07159,-0.0563 -0.0945,-0.0945 -0.02563,-0.0427 -0.0067,-0.11274 -0.04725,-0.14174 -0.18922,-0.13516 -0.409475,-0.22049 -0.614212,-0.33073 0.0945,0.0157 0.188989,0.0315 0.283484,0.0472 0.01575,0.0157 0.02733,0.0373 0.04725,0.0472 0.01409,0.007 0.0315,0 0.04725,0 0.01575,0 0.0315,0 0.04725,0 0.01575,0 0.03611,-0.0111 0.04725,0 0.146991,0.14699 -0.06825,0.0577 0.141741,0.14174 0.130569,0.0522 0.100197,0.0473 0.188988,0.0473 0.04725,0 0.09692,-0.0149 0.141742,0 0.05391,0.0359 0.163593,0.11752 0.236235,0.14174 0.0616,0.0205 0.128697,0.0231 0.188988,0.0472 0.02068,0.008 0.02871,0.0349 0.04725,0.0472 0.07641,0.0509 0.156503,0.0962 0.236235,0.14174 0.06115,0.035 0.128593,0.0583 0.188988,0.0945 0.04869,0.0292 0.09305,0.0653 0.141741,0.0945 0.0082,0.005 0.187293,0.0928 0.188988,0.0945 0.04015,0.0402 0.05434,0.10159 0.09449,0.14174 0.04015,0.0402 0.09305,0.0653 0.141741,0.0945 0.0302,0.0181 0.06959,0.0223 0.09449,0.0472 0.0249,0.0249 0.02913,0.0643 0.04725,0.0945 0.02921,0.0487 0.05434,0.10159 0.09449,0.14174 0.04015,0.0402 0.09631,0.0604 0.141741,0.0945 0.01782,0.0134 0.0315,0.0315 0.04725,0.0472 0.04725,0.0473 0.09449,0.0945 0.141742,0.14174 0.063,0.063 0.133334,0.11942 0.188988,0.18899 0.022,0.0275 0.02771,0.0652 0.04725,0.0945 0.02471,0.0371 0.08041,0.0522 0.09449,0.0945 0.01,0.0299 -0.0076,0.0639 0,0.0945 0.01708,0.0683 0.07222,0.12217 0.09449,0.18899 0.005,0.0149 -0.0031,0.0318 0,0.0472 0.01273,0.0637 0.03919,0.12455 0.04725,0.18899 0.0078,0.0625 0,0.12599 0,0.18898 0,0.0148 0,0.32735 0,0.33073 0,0.0315 -0.0045,0.0633 0,0.0945 0.01136,0.0795 0.03998,0.15626 0.04725,0.23623 0.0086,0.0941 0,0.18899 0,0.28349 0,0.17323 0,0.34647 0,0.51971 0,0.29923 0,0.59846 0,0.8977 0,0.12599 0.009,0.2523 0,0.37797 -0.0068,0.0956 -0.0399,0.18797 -0.04725,0.28348 -0.0085,0.10992 0.0061,0.22066 0,0.33073 -0.0096,0.17369 -0.0364,0.34611 -0.04725,0.51972 -0.0069,0.11003 0,0.22049 0,0.33073 0,0.31498 0,0.62996 0,0.94494 0,0.26773 0,0.53547 0,0.8032 0,0.12599 0,0.25198 0,0.37798 0,0.0472 -0.0093,0.0954 0,0.14174 0.0069,0.0345 0.03611,0.0611 0.04725,0.0945 0.005,0.0149 -0.0022,0.0317 0,0.0472 0.01355,0.0948 0.03667,0.18827 0.04725,0.28348 0.01044,0.0939 -0.01336,0.18994 0,0.28348 -0.04886,0.12192 0.07496,0.18581 0.09449,0.28348 0.01853,0.0927 -0.01553,0.19028 0,0.28349 0.0082,0.0491 0.03517,0.0934 0.04725,0.14174 0.01146,0.0458 -0.0093,0.0954 0,0.14174 0.0098,0.0488 0.03748,0.0929 0.04725,0.14174 0.0062,0.0309 0,0.063 0,0.0945 0,0.0473 0,0.0945 0,0.14174 0,0.25199 0,0.50397 0,0.75596 0,0.15749 0,0.31498 0,0.47247 0,0.0945 0,0.18899 0,0.28348 0,0.0157 0.0026,0.0317 0,0.0473 -0.0132,0.0792 -0.03729,0.15655 -0.04725,0.23623 -0.0059,0.0469 0,0.0945 0,0.14174 0,0.0945 0,0.18899 0,0.28348 0,0.26774 0,0.53547 0,0.8032 0,0.20474 0,0.40948 0,0.61422 0,0.10846 0,0.14838 0,0.28348 0,0.0472 -0.0093,0.0954 0,0.14174 0.07956,0.3978 7.3e-4,0.001 0.09449,0.18899 0.007,0.0141 -0.007,0.0332 0,0.0472 0.01992,0.0399 0.06979,0.0574 0.09449,0.0945 0.01953,0.0293 0.02235,0.0696 0.04725,0.0945 0.0249,0.0249 0.06959,0.0223 0.09449,0.0472 0.03085,0.0308 0.0908,0.21409 0.09449,0.23623 0.0078,0.0466 -0.0093,0.0954 0,0.14175 0.0069,0.0345 0.03611,0.0611 0.04725,0.0945 0.005,0.0149 -0.005,0.0323 0,0.0472 0.01114,0.0334 0.03611,0.0611 0.04725,0.0945 0.01,0.0299 0,0.063 0,0.0945 0,0.063 -0.01036,0.12685 0,0.18899 0.0058,0.0347 0.03611,0.0611 0.04725,0.0945 0.005,0.0149 0,0.0315 0,0.0472 0,0.063 0,0.126 0,0.18899 0,0.0258 0,0.24748 0,0.28348 0,0.29924 0,0.59847 0,0.8977 0,0.12599 0,0.25198 0,0.37797 0,0.0473 0,0.0945 0,0.14174 0,0.0157 -0.0038,0.032 0,0.0472 0.09832,0.39326 -0.0033,-0.057 0.09449,0.23624 0.005,0.0149 -0.005,0.0323 0,0.0472 0.01114,0.0334 0.03871,0.0603 0.04725,0.0945 0.0078,0.0313 0,0.4054 0,0.42522 0,0.0158 -0.005,0.0323 0,0.0473 0.133844,0.26768 -0.01761,-0.0704 0.04725,0.18899 0.0085,0.0342 0.03871,0.0603 0.04725,0.0945 0.01528,0.0611 -0.01235,0.12722 0,0.18899 0.0098,0.0488 0.03517,0.0934 0.04725,0.14174 0.0076,0.0306 0,0.063 0,0.0945 0,0.063 0,0.126 0,0.18899 0,0.20474 0,0.40948 0,0.61421 0,0.15749 0,0.31498 0,0.47247 0,0.0166 0.0095,0.28317 0,0.33073 -0.01273,0.0637 -0.02941,0.12655 -0.04725,0.18899 -0.01368,0.0479 -0.03748,0.0929 -0.04725,0.14174 -0.0062,0.0309 0,0.063 0,0.0945 0,0.063 0,0.12599 0,0.18898 0,0.0315 0.0062,0.0636 0,0.0945 -0.0098,0.0488 -0.03748,0.0929 -0.04725,0.14174 -0.0062,0.0309 0,0.063 0,0.0945 0,0.11025 0,0.22049 0,0.33073 0,0.28348 0,0.56697 0,0.85045"
       id="path4541"
       inkscape:connector-curvature="0" />
    <path
       style="fill:none;fill-rule:evenodd;stroke:#000000;stroke-width:0.765;stroke-linecap:butt;stroke-linejoin:miter;stroke-opacity:1;stroke-miterlimit:4;stroke-dasharray:none"
       d="m 62.933034,248.05206 c 0.07874,-0.0473 0.154099,-0.10067 0.236236,-0.14174 0.01408,-0.007 0.0315,0 0.04725,0 0.0315,0 0.063,0 0.0945,0 0.07874,0 0.157488,0 0.236233,0 0.01574,0 0.0315,0 0.04725,0 0.01574,0 0.03316,-0.007 0.04725,0 0.01992,0.01 0.02732,0.0373 0.04725,0.0472 0.01408,0.007 0.0315,0 0.04725,0 0.0315,0 0.06394,-0.008 0.09449,0 0.03417,0.009 0.06109,0.0361 0.09449,0.0472 0.04509,0.015 0.183914,-0.0131 0.236236,0 0.04832,0.0121 0.09342,0.0352 0.141742,0.0472 0.01527,0.004 0.0315,0 0.04725,0 0.04725,0 0.09541,-0.009 0.14174,0 0.03453,0.007 0.06109,0.0361 0.09449,0.0472 0.01495,0.005 0.03316,-0.007 0.04725,0 0.05079,0.0254 0.08902,0.0734 0.14174,0.0945 0.02925,0.0117 0.063,0 0.09449,0 0.01807,0 0.233834,0 0.236236,0 0.01574,0 0.03197,-0.004 0.04725,0 0.04832,0.0121 0.0972,0.025 0.141743,0.0472 0.144081,0.072 -0.08641,0.0375 0.14174,0.0945 0.03056,0.008 0.06461,-0.01 0.09449,0 0.06682,0.0223 0.125992,0.063 0.188989,0.0945 0.0315,0.0157 0.06033,0.0387 0.09449,0.0472 0.164666,0.0412 0.03241,-0.075 0.236236,0.0472 0.0382,0.0229 0.05743,0.0698 0.09449,0.0945 0.0131,0.009 0.03231,-0.005 0.04725,0 0.03341,0.0111 0.06109,0.0361 0.0945,0.0472 0.02988,0.01 0.06632,-0.0141 0.09449,0 0.03984,0.0199 0.05743,0.0698 0.09449,0.0945 0.28684,0.19122 -0.147937,-0.13601 0.236236,0.0945 0.06998,0.042 0.209536,0.25011 0.236235,0.28348 0.05317,0.0665 0.145855,0.1171 0.188987,0.18899 0.02561,0.0427 0.02162,0.099 0.04725,0.14174 0.02291,0.0382 0.06777,0.0589 0.0945,0.0945 0.02114,0.0282 0.02771,0.0652 0.04725,0.0945 0.01236,0.0185 0.03897,0.0266 0.04725,0.0473 0.0241,0.0603 0.01503,0.13261 0.04725,0.18898 0.03315,0.058 0.10165,0.0883 0.141739,0.14175 0.0094,0.0126 -0.0043,0.0321 0,0.0472 0.02737,0.0958 0.05404,0.19246 0.0945,0.28349 0.02307,0.0519 0.07456,0.0886 0.09449,0.14174 0.0282,0.0752 0.03404,0.15702 0.04725,0.23623 0.0026,0.0155 -0.0087,0.0342 0,0.0473 0.02471,0.0371 0.07457,0.0546 0.09449,0.0945 0.01407,0.0282 0,0.063 0,0.0945 0,0.063 -0.01236,0.12721 0,0.18898 0.0044,0.0219 0.03729,0.0273 0.04725,0.0473 0.007,0.0141 0,0.0315 0,0.0472 0,0.0472 -0.0093,0.0954 0,0.14174 0.0069,0.0345 0.0315,0.063 0.04725,0.0945 0.01574,0.063 0.03657,0.12494 0.04725,0.18899 0.0052,0.0311 0,0.063 0,0.0945 0,0.11024 -0.02162,0.22262 0,0.33073 0.01381,0.0691 0.07514,0.12126 0.09449,0.18898 0.02024,0.0708 -0.01889,0.25519 0,0.33073 0.0085,0.0342 0.04146,0.0598 0.04725,0.0945 0.01037,0.0621 0,0.12599 0,0.18899 0,0.0472 0,0.0945 0,0.14174 0,0.31498 0,0.62996 0,0.94494 0,0.089 -0.0097,0.30047 0,0.37797 0.008,0.0644 0.03451,0.12532 0.04725,0.18899 0.01037,0.0519 0,0.17919 0,0.23624 0,0.12599 0,0.25198 0,0.37797 0,0.11025 0,0.22049 0,0.33073 0,0.0315 0,0.063 0,0.0945 0,0.0157 -0.0058,0.0326 0,0.0472 0.02617,0.0654 0.07222,0.12217 0.0945,0.18899 0.0092,0.0276 0,0.24293 0,0.28348 0,0.23624 0,0.47247 0,0.70871 0,0.063 0,0.12599 0,0.18899 0,0.0472 0,0.0945 0,0.14174 0,0.0157 -0.0038,0.032 0,0.0472 0.06717,0.26867 0.04725,0.007 0.04725,0.33072 0,0.39373 0,0.78746 0,1.18118 0,0.11024 0,0.22049 0,0.33073 0,0.063 -0.01527,0.12787 0,0.18899 0.0054,0.0216 0.0402,0.0261 0.04725,0.0472 0.01889,0.0567 -0.0118,0.12996 0,0.18899 0.01273,0.0637 0.03451,0.12532 0.04725,0.18899 0.0108,0.054 0,0.1825 0,0.23624 0,0.12599 0,0.25198 0,0.37797 0,0.0788 -0.01294,0.15856 0,0.23624 0.0082,0.0491 0.03517,0.0934 0.04725,0.14174 0.0076,0.0306 0,0.063 0,0.0945 0,0.0788 0,0.15749 0,0.23624 0,0.18899 0,0.37797 0,0.56696 0,0.12599 0,0.25199 0,0.37798 0,0.0472 0.0078,0.0951 0,0.14174 -0.0082,0.0491 -0.03517,0.0934 -0.04725,0.14174 -0.0038,0.0153 0,0.0315 0,0.0472 0,0.0315 0,0.063 0,0.0945 0,0.14174 0,0.28348 0,0.42522 0,0.11025 0,0.22049 0,0.33073 0,0.0315 0.0076,0.0639 0,0.0945 -0.0085,0.0342 -0.03871,0.0603 -0.04725,0.0945 -0.0076,0.0306 0,0.063 0,0.0945 0,0.0945 0,0.18899 0,0.28349 0,0.18899 0,0.37797 0,0.56696 0,0.0788 0.02164,0.16052 0,0.23624 -0.01225,0.0428 -0.07457,0.0546 -0.09449,0.0945 -0.01408,0.0282 0,0.063 0,0.0945 0,0.0315 0,0.063 0,0.0945 0,0.14174 0,0.28348 0,0.42522 0,0.20474 0,0.40948 0,0.61421 0,0.0615 -0.0095,0.23614 0,0.28349 0.0069,0.0345 0.0315,0.063 0.04725,0.0945 0.01574,0.0315 0.02771,0.0652 0.04725,0.0945 0.01236,0.0185 0.04358,0.0253 0.04725,0.0473 0.01294,0.0777 0,0.15749 0,0.23624 0,0.0472 -0.01146,0.0959 0,0.14174 0.0054,0.0216 0.04358,0.0253 0.04725,0.0472 0.01294,0.0777 0,0.15749 0,0.23624 0,0.0315 -0.01169,0.0653 0,0.0945 0.02109,0.0527 0.07341,0.089 0.0945,0.14174 0.0117,0.0292 0,0.063 0,0.0945 0,0.0157 -0.007,0.0332 0,0.0472 0.0099,0.0199 0.03729,0.0273 0.04725,0.0473 0.02228,0.0446 0.03517,0.0934 0.04725,0.14174 0.0038,0.0153 -0.007,0.0332 0,0.0472 0.0099,0.0199 0.04184,0.0256 0.04725,0.0473 0.01146,0.0458 -0.01146,0.0959 0,0.14174 0.0054,0.0216 0.0402,0.0261 0.04725,0.0473 0.01495,0.0448 -0.01495,0.0969 0,0.14174 0.01114,0.0334 0.03871,0.0603 0.04725,0.0945 0.0076,0.0306 -0.0099,0.0646 0,0.0945 0.007,0.0211 0.0402,0.0261 0.04725,0.0473 0.0099,0.0299 0,0.063 0,0.0945 0.01574,0.0315 0.03611,0.0611 0.04725,0.0945 0.0099,0.0299 -0.01408,0.0663 0,0.0945 0.0254,0.0508 0.0691,0.091 0.09449,0.14174 0.01569,0.0314 -0.01744,0.16284 0,0.18899 0.01953,0.0293 0.07874,0.0157 0.09449,0.0472 0.125992,0.25198 -0.042,0.063 0,0.18899 0.01114,0.0334 0.03611,0.0611 0.04725,0.0945 0.01516,0.0455 -0.01236,0.13955 0,0.18899 0.09832,0.39326 -0.0033,-0.057 0.0945,0.23623 0.005,0.0149 0,0.0315 0,0.0473 0,0.0472 0,0.0945 0,0.14174 0,0.11025 0,0.22049 0,0.33073 0,0.0315 -0.0062,0.0636 0,0.0945 0.0098,0.0488 0.03516,0.0934 0.04725,0.14174 0.0038,0.0153 -0.005,0.0323 0,0.0472 0.01114,0.0334 0.03871,0.0603 0.04725,0.0945 0.0076,0.0306 -0.0099,0.0646 0,0.0945 0.007,0.0211 0.0402,0.0261 0.04725,0.0473 0.01495,0.0448 0,0.0945 0,0.14174 0,0.12599 0,0.25199 0,0.37798 0,0.15749 0,0.31498 0,0.47247 0,0.0112 -0.0053,0.17839 0,0.18899 0.01992,0.0398 0.08369,0.0513 0.09449,0.0945 0.01146,0.0458 -0.01146,0.0959 0,0.14174 0.0054,0.0216 0.03729,0.0273 0.04725,0.0473 0.0062,0.0124 0,0.16428 0,0.18898"
       id="path4543"
       inkscape:connector-curvature="0" />
    <path
       style="fill:none;fill-rule:evenodd;stroke:#000000;stroke-width:0.765;stroke-linecap:butt;stroke-linejoin:miter;stroke-opacity:1;stroke-miterlimit:4;stroke-dasharray:none"
       d="m 51.971725,272.99849 c 0,0.0315 0.0315,0.0945 0,0.0945 -0.0315,0 -0.0315,-0.0945 0,-0.0945 0.01881,0 0.289515,0.12398 0.377976,0.0945 0.03341,-0.0111 0.06109,-0.0361 0.0945,-0.0472 0.04602,-0.0154 0.191228,0.015 0.236233,0 0.03341,-0.0111 0.06033,-0.0387 0.0945,-0.0473 0.03686,-0.009 0.228335,0 0.283483,0 0.09449,0 0.188986,0 0.283479,0 0.04725,0 0.09591,0.0115 0.141743,0 0.157819,-0.0395 0.08741,-0.1382 0.188987,-0.18899 0.01407,-0.007 0.0315,0 0.04725,0 0.01574,0 0.0315,0 0.04725,0 0.09449,0 0.188986,0 0.283482,0 0.01574,0 0.0315,0 0.04725,0 0.01574,0 0.03611,-0.0111 0.04725,0 0.0249,0.0249 0.02233,0.0696 0.04725,0.0945 0.0016,0.002 0.130283,0 0.14174,0 0.125992,0 0.251984,0 0.377978,0 0.04725,0 0.09692,-0.0149 0.14174,0 0.02114,0.007 0.02611,0.0402 0.04725,0.0472 0.02988,0.01 0.06394,-0.008 0.09449,0 0.03417,0.009 0.06109,0.0361 0.0945,0.0473 0.01495,0.005 0.03316,-0.007 0.04725,0 0.01992,0.01 0.02733,0.0373 0.04725,0.0473 0.02019,0.0101 0.217559,0 0.236236,0 0.157488,0 0.314979,0 0.472469,0 0.02471,0 0.176565,-0.006 0.18899,0 0.01992,0.01 0.02611,0.0402 0.04725,0.0472 0.02612,0.009 0.235903,0 0.283483,0 0.01574,0 0.0315,0 0.04725,0 0.01574,0 0.03611,-0.0111 0.04725,0 0.01114,0.0111 -0.01114,0.0361 0,0.0472 0.01114,0.0111 0.0315,0 0.04725,0 0.09449,0 0.188989,0 0.283482,0 0.02641,0 0.208354,0.009 0.236236,0 0.03341,-0.0111 0.06108,-0.0361 0.09449,-0.0472 0.01495,-0.005 0.0315,0 0.04725,0 0.032,0 0.309205,0.007 0.330729,0 0.02114,-0.007 0.02733,-0.0373 0.04725,-0.0472 0.01408,-0.007 0.0315,0 0.04725,0 0.0315,0 0.063,0 0.0945,0 0.09449,0 0.188986,0 0.283482,0 0.0315,0 0.063,0 0.09449,0 0.01574,0 0.03197,0.004 0.04725,0 0.04832,-0.0121 0.09342,-0.0352 0.14174,-0.0473 0.04271,-0.0107 0.227954,0 0.283482,0 0.063,0 0.125992,0 0.18899,0 0.0315,0 0.06829,0.0175 0.09449,0 0.0293,-0.0195 0.02236,-0.0696 0.04725,-0.0945 0.02228,-0.0223 0.06632,0.0141 0.0945,0 0.01992,-0.01 0.02732,-0.0373 0.04725,-0.0473 0.01506,-0.008 0.194009,0 0.236233,0 0.27187,0 0.254199,0 0.519719,0 0.03862,0 0.306781,0.008 0.330729,0 0.147473,-0.0492 -0.01574,-0.0315 0.04725,-0.0945 0.01114,-0.0111 0.0315,0 0.04725,0 0.0445,0 0.20936,0.009 0.236236,0 0.02114,-0.007 0.02733,-0.0373 0.04725,-0.0473 0.01408,-0.007 0.03316,0.007 0.04725,0 0.01992,-0.01 0.02733,-0.0373 0.04725,-0.0473 0.01408,-0.007 0.03316,0.007 0.04725,0 0.01992,-0.01 0.02732,-0.0373 0.04725,-0.0472 0.02817,-0.0141 0.06632,0.0141 0.09449,0 0.01992,-0.01 0.02733,-0.0373 0.04725,-0.0472 0.02788,-0.0139 0.109244,0.0108 0.141742,0 0.342228,-0.11408 -0.07449,0.0136 0.14174,-0.0945 0.01408,-0.007 0.0315,0 0.04725,0 0.0315,0 0.06461,0.01 0.09449,0 0.02114,-0.007 0.02733,-0.0373 0.04725,-0.0472 0.01407,-0.007 0.03316,0.007 0.04725,0 0.03984,-0.0199 0.05465,-0.0746 0.09449,-0.0945 0.01407,-0.007 0.0315,0 0.04725,0 0.0315,-0.0157 0.06519,-0.0277 0.09449,-0.0473 0.03706,-0.0247 0.05465,-0.0746 0.0945,-0.0945 0.084,-0.042 0.02625,0.0263 0.04725,0.0473 0.01114,0.0111 0.04725,-0.0157 0.04725,0 0,0.0157 -0.05429,-0.0141 -0.04725,0 0.01992,0.0398 0.063,0.063 0.09449,0.0945 0.01574,0.0157 0.02611,0.0402 0.04725,0.0472 0.0281,0.009 0.227674,0 0.283483,0 0.188989,0 0.377975,0 0.566965,0 0.663538,0 1.092125,0 1.795385,0 0.141743,0 0.283483,0 0.425225,0 0.0315,0 0.063,0 0.09449,0 0.04725,0 0.09948,0.0211 0.14174,0 0.0315,-0.0157 0.02236,-0.0696 0.04725,-0.0945 4.5e-5,-4e-5 0.141529,8e-5 0.141743,0 0.02114,-0.007 0.02733,-0.0373 0.04725,-0.0472 0.01408,-0.007 0.0315,0 0.04725,0 0.01574,0 0.0315,0 0.04725,0 0.07874,0 0.15749,0 0.236236,0 0.01574,0 0.03316,0.007 0.04725,0 0.104466,-0.0522 0.01466,-0.0293 0.04725,-0.0945 0.01992,-0.0398 0.08041,-0.0522 0.0945,-0.0945 0.0099,-0.0299 -0.01408,-0.0663 0,-0.0945 0.01408,-0.0282 0.07222,0.0223 0.09449,0 0.01114,-0.0111 -0.01114,-0.0361 0,-0.0473 0.01114,-0.0111 0.0315,0 0.04725,0 0.07874,0 0.15749,0 0.236236,0 0.188986,0 0.377976,0 0.566962,0 0.0315,0 0.063,0 0.0945,0 0.01574,0 0.04725,-0.0157 0.04725,0 0,0.0157 -0.063,0 -0.04725,0 0.063,0 0.125992,0 0.188987,0 0.01574,0 0.03611,-0.0111 0.04725,0 0.0249,0.0249 0.02236,0.0696 0.04725,0.0945 0.01114,0.0111 0.03316,-0.007 0.04725,0 0.01992,0.01 0.02733,0.0373 0.04725,0.0472 0.01408,0.007 0.0315,0 0.04725,0 0.01574,0 0.0315,0 0.04725,0 0.02127,0 0.127363,-0.007 0.141743,0 0.01992,0.01 0.02611,0.0402 0.04725,0.0473 0.02988,0.01 0.063,0 0.09449,0 0.01574,0 0.03316,-0.007 0.04725,0 0.01992,0.01 0.02733,0.0373 0.04725,0.0472 0.02817,0.0141 0.06461,-0.01 0.0945,0 0.03341,0.0111 0.06108,0.0361 0.09449,0.0473 0.01495,0.005 0.0315,0 0.04725,0 0.09449,0 0.188989,0 0.283482,0 0.0315,0 0.06394,-0.008 0.09449,0 0.03417,0.009 0.06109,0.0361 0.09449,0.0473 0.0396,0.0132 0.157678,-0.0157 0.188989,0 0.01992,0.01 0.02733,0.0373 0.04725,0.0472 0.02817,0.0141 0.09449,-0.0315 0.09449,0 0,0.0157 -0.063,0 -0.04725,0 0.355352,0 0.395418,0 0.566965,0 0.0315,0 0.063,0 0.09449,0 0.01574,0 0.04725,-0.0157 0.04725,0 0,0.0157 -0.06299,0 -0.04725,0 0.110212,0 0.125992,7e-5 0.04734,-9e-5"
       id="path4547"
       inkscape:connector-curvature="0" />
  </g>
</svg>
