<?xml version="1.0" encoding="UTF-8" standalone="no"?>
<!-- Created with Inkscape (http://www.inkscape.org/) -->

<svg
   xmlns:dc="http://purl.org/dc/elements/1.1/"
   xmlns:cc="http://creativecommons.org/ns#"
   xmlns:rdf="http://www.w3.org/1999/02/22-rdf-syntax-ns#"
   xmlns:svg="http://www.w3.org/2000/svg"
   xmlns="http://www.w3.org/2000/svg"
   xmlns:sodipodi="http://sodipodi.sourceforge.net/DTD/sodipodi-0.dtd"
   xmlns:inkscape="http://www.inkscape.org/namespaces/inkscape"
   width="480"
   height="480"
   viewBox="0 0 127 127"
   version="1.1"
   id="svg8"
   inkscape:version="0.92.2 5c3e80d, 2017-08-06"
   sodipodi:docname="king.svg">
  <defs
     id="defs2" />
  <sodipodi:namedview
     id="base"
     pagecolor="#ffffff"
     bordercolor="#666666"
     borderopacity="1.0"
     inkscape:pageopacity="0.0"
     inkscape:pageshadow="2"
     inkscape:zoom="1.4"
     inkscape:cx="208.98571"
     inkscape:cy="191.34481"
     inkscape:document-units="mm"
     inkscape:current-layer="layer1"
     showgrid="false"
     units="px"
     inkscape:window-width="1280"
     inkscape:window-height="976"
     inkscape:window-x="0"
     inkscape:window-y="28"
     inkscape:window-maximized="1" />
  <metadata
     id="metadata5">
    <rdf:RDF>
      <cc:Work
         rdf:about="">
        <dc:format>image/svg+xml</dc:format>
        <dc:type
           rdf:resource="http://purl.org/dc/dcmitype/StillImage" />
        <dc:title />
      </cc:Work>
    </rdf:RDF>
  </metadata>
  <g
     inkscape:label="Layer 1"
     inkscape:groupmode="layer"
     id="layer1"
     transform="translate(0,-169.99998)">
    <path
       style="fill:#008000;fill-rule:evenodd;stroke:#000000;stroke-width:2.28153515;stroke-linecap:butt;stroke-linejoin:miter;stroke-miterlimit:4;stroke-dasharray:none;stroke-opacity:1"
       d="m 32.950372,235.48135 c 17.060932,-9.49248 35.902122,-13.89527 60.918173,-0.64432 35.384675,32.56949 14.156245,37.93069 -9.561152,11.81264 3.468071,5.75786 13.229004,6.9818 2.174581,22.95871 l 1.649881,17.41904 c -5.604237,5.62322 -10.580985,15.09453 -19.668646,-0.64433 l -5.19034,-16.32292 -3.551283,16.10815 c -5.592262,8.69265 -12.094419,12.2346 -21.3077,0.42955 l 1.769492,-15.71242 c -12.62932,-9.48465 -4.728485,-17.51808 2.874495,-25.52444 -26.639576,33.68648 -39.3596092,21.03543 -10.107501,-9.87966 z"
       id="path885"
       inkscape:connector-curvature="0"
       sodipodi:nodetypes="cccccccccccc" />
    <path
       style="fill:#abd400;fill-opacity:1;fill-rule:evenodd;stroke:#000000;stroke-width:1.26467299;stroke-linecap:butt;stroke-linejoin:miter;stroke-miterlimit:4;stroke-dasharray:none;stroke-opacity:1"
       d="m 43.394918,171.50256 1.1949,32.15345 c 8.258473,-18.52162 31.224611,-15.98469 36.907107,0 l 1.472627,-31.79033 c -1.446817,-0.0136 -2.652136,13.70512 -4.110726,13.69161 -1.76713,-0.0164 -3.789506,-13.76498 -5.563186,-13.78119 -1.661289,-0.0152 -3.073836,13.70198 -4.730894,13.68694 -1.889789,-0.0172 -4.022721,-13.7665 -5.893573,-13.78344 -2.151604,-0.0195 -4.036915,13.6935 -6.143114,13.67435 -2.021131,-0.0184 -4.265375,-13.7689 -6.225044,-13.78696 -1.034127,-0.009 -1.809322,13.7133 -2.82224,13.70387 -1.298524,-0.0121 -2.827492,-13.75638 -4.085857,-13.7683 z"
       id="path6486"
       inkscape:connector-curvature="0"
       sodipodi:nodetypes="ccccsssssssc" />
    <path
       style="fill:#008000;fill-rule:evenodd;stroke:#000000;stroke-width:1.87270093;stroke-linecap:butt;stroke-linejoin:miter;stroke-miterlimit:4;stroke-dasharray:none;stroke-opacity:1"
       d="m 49.151314,194.84422 c 15.761043,-11.40617 21.759657,-3.64392 29.70104,0.30374 l 8.353418,-8.20092 c 3.477931,10.38015 6.361105,21.03331 -0.928158,30.67755 -18.917641,25.06567 -33.277568,13.58947 -47.33603,-0.30374 -6.823306,-9.62206 -11.280269,-19.34512 0.61877,-29.76633 z"
       id="path812"
       inkscape:connector-curvature="0"
       sodipodi:nodetypes="ccccccc" />
    <path
       style="fill:#ff0000;fill-rule:evenodd;stroke:#000000;stroke-width:1.88150144;stroke-linecap:butt;stroke-linejoin:miter;stroke-miterlimit:4;stroke-dasharray:none;stroke-opacity:1"
       d="m 44.510527,213.67599 c 11.728649,1.05371 23.762988,1.65726 37.126298,0.30374 -13.347077,15.27089 -25.417633,10.13606 -37.126298,-0.30374 z"
       id="path814"
       inkscape:connector-curvature="0"
       sodipodi:nodetypes="ccc" />
    <path
       style="fill:#ffffff;fill-rule:evenodd;stroke:#000000;stroke-width:0.60693598;stroke-linecap:butt;stroke-linejoin:miter;stroke-miterlimit:4;stroke-dasharray:none;stroke-opacity:1"
       d="m 52.554559,214.28347 1.237543,5.77101 1.856316,-5.46728 1.237544,6.37851 1.546928,-6.68224 1.67508,7.50766 1.400011,-7.11496 1.275076,7.34656 1.529772,-7.23917 1.271859,7.20391 1.96731,-7.18549 1.181242,6.6317 3.312626,-6.84648 0.618773,5.16356 2.475085,-4.85982 z"
       id="path816"
       inkscape:connector-curvature="0"
       sodipodi:nodetypes="cccccccccccccccc" />
    <ellipse
       style="opacity:1;fill:#ffffff;fill-opacity:1;stroke:#000000;stroke-width:0.60693598;stroke-linecap:round;stroke-linejoin:round;stroke-miterlimit:4;stroke-dasharray:none;stroke-dashoffset:161.19683838;stroke-opacity:0.99043059"
       id="path822"
       cx="54.874954"
       cy="200.00778"
       rx="5.7236385"
       ry="5.1635504" />
    <ellipse
       style="opacity:1;fill:#ffffff;fill-opacity:1;stroke:#000000;stroke-width:0.60693598;stroke-linecap:round;stroke-linejoin:round;stroke-miterlimit:4;stroke-dasharray:none;stroke-dashoffset:161.19683838;stroke-opacity:0.99043059"
       id="path822-3"
       cx="70.808327"
       cy="200.00778"
       rx="5.723639"
       ry="5.1635504" />
    <ellipse
       style="opacity:1;fill:none;stroke:none;stroke-width:2.6363852;stroke-miterlimit:4;stroke-dasharray:none;stroke-opacity:1"
       id="path4140"
       cx="54.200939"
       cy="200.51082"
       rx="1.3921174"
       ry="3.9540362" />
    <ellipse
       style="opacity:1;fill:#ff0000;fill-opacity:1;fill-rule:evenodd;stroke:#00000c;stroke-width:0.17151752;stroke-linejoin:round;stroke-miterlimit:4;stroke-dasharray:none;stroke-opacity:1"
       id="path5743"
       cx="54.682831"
       cy="200.05447"
       rx="2.05316"
       ry="4.8356504" />
    <path
       sodipodi:type="star"
       style="opacity:1;fill:#000000;fill-opacity:1;fill-rule:evenodd;stroke:none;stroke-width:50;stroke-linejoin:round;stroke-miterlimit:4;stroke-dasharray:none;stroke-opacity:1"
       id="path5747"
       sodipodi:sides="75"
       sodipodi:cx="3473.7068"
       sodipodi:cy="-605.30334"
       sodipodi:r1="790.2049"
       sodipodi:r2="221.25737"
       sodipodi:arg1="0.7050031"
       sodipodi:arg2="0.746891"
       inkscape:flatsided="false"
       inkscape:rounded="0.04"
       inkscape:randomized="0"
       d="m 4075.5344,-93.221975 c -14.755,17.340845 -423.9998,-378.475585 -439.4679,-361.767815 -15.4682,16.70776 410.6615,394.286141 394.5073,410.331508 -16.1542,16.045368 -390.8427,-412.627598 -407.6547,-397.272778 -16.8119,15.35483 376.2283,427.266606 358.7881,441.90394939 C 3964.267,14.610232 3626.763,-443.91245 3608.7252,-430.01826 c -18.0379,13.89418 339.1561,457.250094 320.5522,470.376742 -18.6039,13.126649 -316.556,-472.029532 -335.6932,-459.693442 -19.1373,12.33608 299.7049,484.026302 280.0679,495.550182 -19.6371,11.523879 -275.9474,-496.862782 -296.0498,-486.171322 -20.1024,10.69146 258.1515,507.407418 237.6191,517.2477 -20.5325,9.84028 -233.4032,-518.2109 -254.3297,-509.23906 -20.9265,8.97184 214.7874,527.22944 193.5035,535.31709 -21.2838,8.08766 -189.2218,-535.92413 -210.8257,-528.73484 -21.6038,7.18928 169.9167,543.35331 148.0308,549.63162 -21.886,6.2783 -143.7133,-549.87825 -165.8429,-544.52194 -22.1297,5.35631 123.8541,555.66596 101.5195,560.09088 -22.3345,4.42491 -97.1966,-559.97536 -119.6968,-556.4896 -22.5003,3.48575 76.9228,564.08101 54.2963,566.62149 -22.6265,2.54049 -49.9982,-566.14464 -72.7112,-564.55388 -22.7131,1.59076 29.452,568.53943 6.6922,569.17767 -22.7597,0.63824 -2.449,-568.34284 -25.2155,-568.65823 -22.7665,-0.3154 -18.2255,569.00996 -40.9588,567.74148 -22.7333,-1.26848 45.1172,-566.55451 22.457,-568.77386 -22.6603,-2.21934 -65.7751,565.4893 -88.3226,562.32299 -22.5474,-3.16631 92.3671,-560.79221 69.972,-564.89993 -22.3951,-4.10772 -112.8633,558.00213 -135.0667,552.96021 -22.2034,-5.04193 138.969,-551.09636 116.9962,-557.06365 -21.9728,-5.96728 -159.1599,546.60098 -180.8636,539.71881 -21.7036,-6.88218 184.5962,-537.53496 163.1998,-545.31996 -21.3965,-7.785 -204.3401,531.36582 -225.3918,522.69166 -21.0516,-8.67415 228.9285,-520.20314 208.2586,-529.75124 -20.6699,-9.5481 -248.087,512.40351 -268.339,501.998215 -20.252,-10.40529 271.6551,-499.222465 251.8567,-510.466695 -19.7985,-11.24423 -290.0938,489.847046 -309.404,477.783606 -19.3103,-12.06344 312.4762,-474.740106 293.688,-487.601596 -18.7881,-12.86149 -330.0656,463.854663 -348.2987,450.21769 -18.2331,-13.636973 351.1055,-446.92779 333.4595,-461.31632 -17.6461,-14.38854 -367.7225,434.60867264 -384.7505,419.49382 -17.028,-15.114852 387.2722,-415.98059 370.892,-431.79525 -16.3802,-15.81465 -402.7999,402.314223 -418.5035,385.827511 -15.7035,-16.486712 420.7223,-382.115591 405.723,-399.245441 -14.9994,-17.12985 -435.0521,367.197822 -449.321,349.45489 -14.2689,-17.74293 451.2214,-345.57032 437.708,-363.89521 -13.5133,-18.32488 -464.2525,329.50579 -476.9867,310.6311 -12.7341,-18.87469 478.5555,-306.60113 466.6229,-325.99252 -11.9326,-19.39138 -490.1967,289.50252 -501.3068,269.62845 -11.1101,-19.87406 502.5328,-265.48135 492.2647,-285.80322 -10.2682,-20.32187 -512.7025,247.46859 -522.1106,226.73456 -9.4081,-20.73404 522.9853,-222.49941 514.4536,-243.60923 -8.5316,-21.10981 -531.6119,203.69885 -539.2521,182.25028 -7.6401,-21.44856 539.7694,-177.95679 533.0341,-199.70648 -6.7353,-21.74968 -546.7926,158.5003 -552.6112,136.48765 -5.8186,-22.01266 552.7674,-132.16594 547.8757,-154.40294 -4.8917,-22.237 -558.1379,112.18999 -562.0941,89.76765 -3.9562,-22.42234 561.888,-85.44803 558.8743,-108.01637 -3.0138,-22.56834 -565.5683,65.09275 -567.6344,42.418 -2.066,-22.67474 567.0676,-38.13077 565.9529,-60.87214 -1.1148,-22.74138 -569.0316,17.53892 -569.193,-5.22918 -0.1615,-22.76811 568.2694,9.45395 569.0616,-13.30095 0.7921,-22.7549 -568.5035,-30.13792 -566.7592,-52.83968 1.7443,-22.70177 565.4854,56.97236 568.1788,34.36354 2.6934,-22.60881 -563.9878,-77.60336 -560.35,-100.07955 3.6378,-22.47619 558.7348,104.09115 563.3107,81.78701 4.5758,-22.30414 -555.5162,-124.52448 -550.0104,-146.61744 5.5059,-22.09296 548.0652,150.47981 554.4913,128.63679 6.4262,-21.84302 -543.1479,-170.57215 -535.8127,-192.12691 7.3352,-21.55476 533.5512,195.81297 541.7826,174.58428 8.2314,-21.22869 -526.9699,-215.42337 -517.8568,-236.28875 9.1131,-20.86537 515.2947,239.77264 525.2736,219.30719 9.9789,-20.46545 -507.0956,-258.76356 -496.2684,-278.79319 10.8271,-20.02958 493.4238,282.05047 505.0802,262.49181 11.6564,-19.55867 -483.6643,-300.28869 -471.1991,-319.34209 12.4652,-19.0534 468.092,322.34992 481.3441,303.83523 13.2521,-18.51468 -456.8406,-339.70753 -442.8247,-357.65103 14.0158,-17.9435 439.4767,360.38832 454.2317,343.04747 14.7549,-17.34084 -426.8124,-376.74357 -411.3443,-393.45137 15.4682,-16.7077 407.779,395.89891 423.9332,379.85354 16.1542,-16.04537 -393.7904,-411.13704 -376.9784,-426.49184 16.812,-15.3548 373.2208,428.63245 390.6611,413.99511 17.4402,-14.63734 -358.0063,-442.64661 -339.9684,-456.54081 18.0378,-13.8942 336.0448,458.35949 354.6487,445.23284 18.6039,-13.12664 -319.7109,-471.05134 -300.5737,-483.38744 19.1372,-12.3361 296.5118,484.87144 316.1488,473.34756 19.637,-11.52388 -279.1731,-496.15206 -259.0707,-506.84356 20.1023,-10.6914 254.8988,507.98245 275.4313,498.14217 20.5325,-9.84028 -236.6771,-517.77257 -215.7506,-526.74447 20.9265,-8.9718 211.4981,527.53028 232.7819,519.44262 21.2839,-8.08765 -192.5209,-535.76132 -170.917,-542.95062 21.6038,-7.1893 166.6136,543.37783 188.4996,537.09953 21.886,-6.27831 -147.0144,-549.99203 -124.8847,-555.34843 22.1297,-5.3563 120.5607,555.41404 142.8952,550.98912 22.3346,-4.42491 -100.4766,-560.36502 -77.9763,-563.85082 22.5003,-3.4857 73.662,563.55438 96.2885,561.01389 22.6265,-2.54049 -53.2341,-566.80739 -30.5211,-568.39819 22.7131,-1.5907 26.2467,567.74177 49.0064,567.10353 22.7597,-0.63824 -5.6182,-569.27403 17.1483,-568.95863 22.7665,0.3154 -21.3528,567.94684 1.3805,569.21532 22.7333,1.26848 42.0372,-567.74762 64.6974,-565.52832 22.6603,2.2194 -68.8025,564.16825 -46.255,567.33456 22.5474,3.16631 89.3976,-562.23886 111.7927,-558.13116 22.395,4.1077 -115.7696,556.43236 -93.5662,561.47429 22.2034,5.04192 136.131,-552.78649 158.1038,-546.81919 21.9728,5.9673 -161.9246,544.79356 -140.2209,551.67574 21.7036,6.88218 181.9095,-539.45664 203.306,-531.67164 21.3964,7.785 -206.9439,529.33341 -185.8923,538.00756 21.0517,8.67416 226.4122,-522.34286 247.0821,-512.79476 20.67,9.5481 -250.5115,510.16032 -230.2596,520.56561 20.252,10.40529 269.3267,-501.56521 289.1251,-490.32101 19.7985,11.2442 -292.3221,487.40884 -273.0118,499.47228 19.3103,12.06344 310.3519,-477.26948 329.1401,-464.40798 18.7882,12.8615 -332.0822,461.2385 -313.8491,474.87547 18.2331,13.63697 349.2004,-449.62607 366.8464,-435.23757 17.6461,14.3886 -369.513,431.83302 -352.4849,446.94787 17.028,15.11485 385.5994,-418.82887 401.9795,-403.01417 16.3802,15.8146 -404.3519,399.39843 -388.6483,415.88514 15.7035,16.48671 419.2937,-385.09384 434.2931,-367.96394 14.9994,17.1298 -436.3546,364.16236 -422.0857,381.90529 14.2689,17.74293 450.0471,-348.65759 463.5605,-330.33279 13.5133,18.3249 -465.2966,326.37205 -452.5624,345.24674 12.7341,18.87469 477.6436,-309.77584 489.5762,-290.38444 11.9326,19.3913 -490.9748,286.29232 -479.8647,306.16638 11.1101,19.87406 501.8898,-268.72126 512.1579,-248.39939 10.2681,20.32187 -513.2092,244.20459 -503.8011,264.93862 9.4081,20.73403 522.6156,-225.78177 531.1473,-204.67195 8.5316,21.10982 -531.8439,200.40389 -524.2037,221.85245 7.6401,21.44857 539.6757,-181.25856 546.4109,-159.50888 6.7353,21.74969 -546.7479,155.1975 -540.9293,177.21016 5.8186,22.01265 552.9503,-135.46397 557.8419,-113.22697 4.8917,22.237 -557.817,108.90251 -553.8608,131.32485 3.9562,22.42233 562.3464,-88.71919 565.3602,-66.15086 3.0138,22.56834 -564.9734,61.84365 -562.9074,84.5184 2.0661,22.67475 567.798,-41.35211 568.9127,-18.61074 1.1148,22.74138 -568.1669,14.351 -568.0054,37.11911 0.1615,22.76811 569.2669,6.30503 568.4747,29.05992 -0.7921,22.7549 -567.3751,-33.24231 -569.1194,-10.54054 -1.7443,22.70176 566.7428,53.91793 564.0494,76.52674 -2.6934,22.60881 -562.6036,-80.60245 -566.2415,-58.12626 -3.6378,22.47619 560.2434,101.15265 555.6676,123.45679 -4.5758,22.30414 -553.8858,-127.39723 -559.3916,-105.30427 -5.5059,22.09296 549.8142,147.67785 543.3881,169.52087 -6.4261,21.84302 -541.283,-173.2984 -548.6182,-151.74364 -7.3351,21.55476 535.5287,193.1672 527.2973,214.39589 -8.2314,21.22869 -524.8833,-217.98401 -533.9965,-197.11864 -9.1131,20.86537 517.4867,237.30162 507.5078,257.76707 -9.9789,20.46545 -504.8021,-261.14062 -515.6292,-241.11099 -10.8272,20.02963 495.8149,279.77154 484.1585,299.3302 -11.6564,19.55867 -481.18,-302.46551 -493.6452,-283.41212 -12.4652,19.05339 470.6653,320.27906 457.4131,338.79375 -13.2521,18.51469 -454.1827,-341.66883 -468.1986,-323.72532 -14.0158,17.9435 442.2144,358.54005 427.4595,375.880895 z"
       transform="matrix(0.00250981,0,0,0.00588607,45.970407,203.59355)"
       inkscape:export-xdpi="90"
       inkscape:export-ydpi="90"
       inkscape:transform-center-y="-8.3417322e-06"
       inkscape:transform-center-x="2.9003432e-05" />
    <ellipse
       style="opacity:1;fill:none;stroke:none;stroke-width:2.6363852;stroke-miterlimit:4;stroke-dasharray:none;stroke-opacity:1"
       id="path4140-7"
       cx="70.400543"
       cy="200.55136"
       rx="1.3921174"
       ry="3.9540362" />
    <ellipse
       style="opacity:1;fill:#ff0000;fill-opacity:1;fill-rule:evenodd;stroke:#00000c;stroke-width:0.17151752;stroke-linejoin:round;stroke-miterlimit:4;stroke-dasharray:none;stroke-opacity:1"
       id="path5743-5"
       cx="70.882423"
       cy="200.09503"
       rx="2.05316"
       ry="4.8356504" />
    <path
       sodipodi:type="star"
       style="opacity:1;fill:#000000;fill-opacity:1;fill-rule:evenodd;stroke:none;stroke-width:50;stroke-linejoin:round;stroke-miterlimit:4;stroke-dasharray:none;stroke-opacity:1"
       id="path5747-3"
       sodipodi:sides="75"
       sodipodi:cx="3473.7068"
       sodipodi:cy="-605.30334"
       sodipodi:r1="790.2049"
       sodipodi:r2="221.25737"
       sodipodi:arg1="0.7050031"
       sodipodi:arg2="0.746891"
       inkscape:flatsided="false"
       inkscape:rounded="0.04"
       inkscape:randomized="0"
       d="m 4075.5344,-93.221975 c -14.755,17.340845 -423.9998,-378.475585 -439.4679,-361.767815 -15.4682,16.70776 410.6615,394.286141 394.5073,410.331508 -16.1542,16.045368 -390.8427,-412.627598 -407.6547,-397.272778 -16.8119,15.35483 376.2283,427.266606 358.7881,441.90394939 C 3964.267,14.610232 3626.763,-443.91245 3608.7252,-430.01826 c -18.0379,13.89418 339.1561,457.250094 320.5522,470.376742 -18.6039,13.126649 -316.556,-472.029532 -335.6932,-459.693442 -19.1373,12.33608 299.7049,484.026302 280.0679,495.550182 -19.6371,11.523879 -275.9474,-496.862782 -296.0498,-486.171322 -20.1024,10.69146 258.1515,507.407418 237.6191,517.2477 -20.5325,9.84028 -233.4032,-518.2109 -254.3297,-509.23906 -20.9265,8.97184 214.7874,527.22944 193.5035,535.31709 -21.2838,8.08766 -189.2218,-535.92413 -210.8257,-528.73484 -21.6038,7.18928 169.9167,543.35331 148.0308,549.63162 -21.886,6.2783 -143.7133,-549.87825 -165.8429,-544.52194 -22.1297,5.35631 123.8541,555.66596 101.5195,560.09088 -22.3345,4.42491 -97.1966,-559.97536 -119.6968,-556.4896 -22.5003,3.48575 76.9228,564.08101 54.2963,566.62149 -22.6265,2.54049 -49.9982,-566.14464 -72.7112,-564.55388 -22.7131,1.59076 29.452,568.53943 6.6922,569.17767 -22.7597,0.63824 -2.449,-568.34284 -25.2155,-568.65823 -22.7665,-0.3154 -18.2255,569.00996 -40.9588,567.74148 -22.7333,-1.26848 45.1172,-566.55451 22.457,-568.77386 -22.6603,-2.21934 -65.7751,565.4893 -88.3226,562.32299 -22.5474,-3.16631 92.3671,-560.79221 69.972,-564.89993 -22.3951,-4.10772 -112.8633,558.00213 -135.0667,552.96021 -22.2034,-5.04193 138.969,-551.09636 116.9962,-557.06365 -21.9728,-5.96728 -159.1599,546.60098 -180.8636,539.71881 -21.7036,-6.88218 184.5962,-537.53496 163.1998,-545.31996 -21.3965,-7.785 -204.3401,531.36582 -225.3918,522.69166 -21.0516,-8.67415 228.9285,-520.20314 208.2586,-529.75124 -20.6699,-9.5481 -248.087,512.40351 -268.339,501.998215 -20.252,-10.40529 271.6551,-499.222465 251.8567,-510.466695 -19.7985,-11.24423 -290.0938,489.847046 -309.404,477.783606 -19.3103,-12.06344 312.4762,-474.740106 293.688,-487.601596 -18.7881,-12.86149 -330.0656,463.854663 -348.2987,450.21769 -18.2331,-13.636973 351.1055,-446.92779 333.4595,-461.31632 -17.6461,-14.38854 -367.7225,434.60867264 -384.7505,419.49382 -17.028,-15.114852 387.2722,-415.98059 370.892,-431.79525 -16.3802,-15.81465 -402.7999,402.314223 -418.5035,385.827511 -15.7035,-16.486712 420.7223,-382.115591 405.723,-399.245441 -14.9994,-17.12985 -435.0521,367.197822 -449.321,349.45489 -14.2689,-17.74293 451.2214,-345.57032 437.708,-363.89521 -13.5133,-18.32488 -464.2525,329.50579 -476.9867,310.6311 -12.7341,-18.87469 478.5555,-306.60113 466.6229,-325.99252 -11.9326,-19.39138 -490.1967,289.50252 -501.3068,269.62845 -11.1101,-19.87406 502.5328,-265.48135 492.2647,-285.80322 -10.2682,-20.32187 -512.7025,247.46859 -522.1106,226.73456 -9.4081,-20.73404 522.9853,-222.49941 514.4536,-243.60923 -8.5316,-21.10981 -531.6119,203.69885 -539.2521,182.25028 -7.6401,-21.44856 539.7694,-177.95679 533.0341,-199.70648 -6.7353,-21.74968 -546.7926,158.5003 -552.6112,136.48765 -5.8186,-22.01266 552.7674,-132.16594 547.8757,-154.40294 -4.8917,-22.237 -558.1379,112.18999 -562.0941,89.76765 -3.9562,-22.42234 561.888,-85.44803 558.8743,-108.01637 -3.0138,-22.56834 -565.5683,65.09275 -567.6344,42.418 -2.066,-22.67474 567.0676,-38.13077 565.9529,-60.87214 -1.1148,-22.74138 -569.0316,17.53892 -569.193,-5.22918 -0.1615,-22.76811 568.2694,9.45395 569.0616,-13.30095 0.7921,-22.7549 -568.5035,-30.13792 -566.7592,-52.83968 1.7443,-22.70177 565.4854,56.97236 568.1788,34.36354 2.6934,-22.60881 -563.9878,-77.60336 -560.35,-100.07955 3.6378,-22.47619 558.7348,104.09115 563.3107,81.78701 4.5758,-22.30414 -555.5162,-124.52448 -550.0104,-146.61744 5.5059,-22.09296 548.0652,150.47981 554.4913,128.63679 6.4262,-21.84302 -543.1479,-170.57215 -535.8127,-192.12691 7.3352,-21.55476 533.5512,195.81297 541.7826,174.58428 8.2314,-21.22869 -526.9699,-215.42337 -517.8568,-236.28875 9.1131,-20.86537 515.2947,239.77264 525.2736,219.30719 9.9789,-20.46545 -507.0956,-258.76356 -496.2684,-278.79319 10.8271,-20.02958 493.4238,282.05047 505.0802,262.49181 11.6564,-19.55867 -483.6643,-300.28869 -471.1991,-319.34209 12.4652,-19.0534 468.092,322.34992 481.3441,303.83523 13.2521,-18.51468 -456.8406,-339.70753 -442.8247,-357.65103 14.0158,-17.9435 439.4767,360.38832 454.2317,343.04747 14.7549,-17.34084 -426.8124,-376.74357 -411.3443,-393.45137 15.4682,-16.7077 407.779,395.89891 423.9332,379.85354 16.1542,-16.04537 -393.7904,-411.13704 -376.9784,-426.49184 16.812,-15.3548 373.2208,428.63245 390.6611,413.99511 17.4402,-14.63734 -358.0063,-442.64661 -339.9684,-456.54081 18.0378,-13.8942 336.0448,458.35949 354.6487,445.23284 18.6039,-13.12664 -319.7109,-471.05134 -300.5737,-483.38744 19.1372,-12.3361 296.5118,484.87144 316.1488,473.34756 19.637,-11.52388 -279.1731,-496.15206 -259.0707,-506.84356 20.1023,-10.6914 254.8988,507.98245 275.4313,498.14217 20.5325,-9.84028 -236.6771,-517.77257 -215.7506,-526.74447 20.9265,-8.9718 211.4981,527.53028 232.7819,519.44262 21.2839,-8.08765 -192.5209,-535.76132 -170.917,-542.95062 21.6038,-7.1893 166.6136,543.37783 188.4996,537.09953 21.886,-6.27831 -147.0144,-549.99203 -124.8847,-555.34843 22.1297,-5.3563 120.5607,555.41404 142.8952,550.98912 22.3346,-4.42491 -100.4766,-560.36502 -77.9763,-563.85082 22.5003,-3.4857 73.662,563.55438 96.2885,561.01389 22.6265,-2.54049 -53.2341,-566.80739 -30.5211,-568.39819 22.7131,-1.5907 26.2467,567.74177 49.0064,567.10353 22.7597,-0.63824 -5.6182,-569.27403 17.1483,-568.95863 22.7665,0.3154 -21.3528,567.94684 1.3805,569.21532 22.7333,1.26848 42.0372,-567.74762 64.6974,-565.52832 22.6603,2.2194 -68.8025,564.16825 -46.255,567.33456 22.5474,3.16631 89.3976,-562.23886 111.7927,-558.13116 22.395,4.1077 -115.7696,556.43236 -93.5662,561.47429 22.2034,5.04192 136.131,-552.78649 158.1038,-546.81919 21.9728,5.9673 -161.9246,544.79356 -140.2209,551.67574 21.7036,6.88218 181.9095,-539.45664 203.306,-531.67164 21.3964,7.785 -206.9439,529.33341 -185.8923,538.00756 21.0517,8.67416 226.4122,-522.34286 247.0821,-512.79476 20.67,9.5481 -250.5115,510.16032 -230.2596,520.56561 20.252,10.40529 269.3267,-501.56521 289.1251,-490.32101 19.7985,11.2442 -292.3221,487.40884 -273.0118,499.47228 19.3103,12.06344 310.3519,-477.26948 329.1401,-464.40798 18.7882,12.8615 -332.0822,461.2385 -313.8491,474.87547 18.2331,13.63697 349.2004,-449.62607 366.8464,-435.23757 17.6461,14.3886 -369.513,431.83302 -352.4849,446.94787 17.028,15.11485 385.5994,-418.82887 401.9795,-403.01417 16.3802,15.8146 -404.3519,399.39843 -388.6483,415.88514 15.7035,16.48671 419.2937,-385.09384 434.2931,-367.96394 14.9994,17.1298 -436.3546,364.16236 -422.0857,381.90529 14.2689,17.74293 450.0471,-348.65759 463.5605,-330.33279 13.5133,18.3249 -465.2966,326.37205 -452.5624,345.24674 12.7341,18.87469 477.6436,-309.77584 489.5762,-290.38444 11.9326,19.3913 -490.9748,286.29232 -479.8647,306.16638 11.1101,19.87406 501.8898,-268.72126 512.1579,-248.39939 10.2681,20.32187 -513.2092,244.20459 -503.8011,264.93862 9.4081,20.73403 522.6156,-225.78177 531.1473,-204.67195 8.5316,21.10982 -531.8439,200.40389 -524.2037,221.85245 7.6401,21.44857 539.6757,-181.25856 546.4109,-159.50888 6.7353,21.74969 -546.7479,155.1975 -540.9293,177.21016 5.8186,22.01265 552.9503,-135.46397 557.8419,-113.22697 4.8917,22.237 -557.817,108.90251 -553.8608,131.32485 3.9562,22.42233 562.3464,-88.71919 565.3602,-66.15086 3.0138,22.56834 -564.9734,61.84365 -562.9074,84.5184 2.0661,22.67475 567.798,-41.35211 568.9127,-18.61074 1.1148,22.74138 -568.1669,14.351 -568.0054,37.11911 0.1615,22.76811 569.2669,6.30503 568.4747,29.05992 -0.7921,22.7549 -567.3751,-33.24231 -569.1194,-10.54054 -1.7443,22.70176 566.7428,53.91793 564.0494,76.52674 -2.6934,22.60881 -562.6036,-80.60245 -566.2415,-58.12626 -3.6378,22.47619 560.2434,101.15265 555.6676,123.45679 -4.5758,22.30414 -553.8858,-127.39723 -559.3916,-105.30427 -5.5059,22.09296 549.8142,147.67785 543.3881,169.52087 -6.4261,21.84302 -541.283,-173.2984 -548.6182,-151.74364 -7.3351,21.55476 535.5287,193.1672 527.2973,214.39589 -8.2314,21.22869 -524.8833,-217.98401 -533.9965,-197.11864 -9.1131,20.86537 517.4867,237.30162 507.5078,257.76707 -9.9789,20.46545 -504.8021,-261.14062 -515.6292,-241.11099 -10.8272,20.02963 495.8149,279.77154 484.1585,299.3302 -11.6564,19.55867 -481.18,-302.46551 -493.6452,-283.41212 -12.4652,19.05339 470.6653,320.27906 457.4131,338.79375 -13.2521,18.51469 -454.1827,-341.66883 -468.1986,-323.72532 -14.0158,17.9435 442.2144,358.54005 427.4595,375.880895 z"
       transform="matrix(0.00250981,0,0,0.00588607,62.170008,203.6341)"
       inkscape:export-xdpi="90"
       inkscape:export-ydpi="90"
       inkscape:transform-center-y="-6.8308234e-06"
       inkscape:transform-center-x="2.863474e-05" />
  </g>
</svg>
