<?xml version="1.0" encoding="UTF-8" standalone="no"?>
<!-- Created with Inkscape (http://www.inkscape.org/) -->

<svg
   xmlns:dc="http://purl.org/dc/elements/1.1/"
   xmlns:cc="http://creativecommons.org/ns#"
   xmlns:rdf="http://www.w3.org/1999/02/22-rdf-syntax-ns#"
   xmlns:svg="http://www.w3.org/2000/svg"
   xmlns="http://www.w3.org/2000/svg"
   xmlns:sodipodi="http://sodipodi.sourceforge.net/DTD/sodipodi-0.dtd"
   xmlns:inkscape="http://www.inkscape.org/namespaces/inkscape"
   width="480"
   height="480"
   viewBox="0 0 127 127"
   version="1.1"
   id="svg8"
   inkscape:version="0.92.2 5c3e80d, 2017-08-06"
   sodipodi:docname="pawn_back.svg">
  <defs
     id="defs2" />
  <sodipodi:namedview
     id="base"
     pagecolor="#ffffff"
     bordercolor="#666666"
     borderopacity="1.0"
     inkscape:pageopacity="0.0"
     inkscape:pageshadow="2"
     inkscape:zoom="1.4"
     inkscape:cx="138.29275"
     inkscape:cy="220.0102"
     inkscape:document-units="mm"
     inkscape:current-layer="layer1"
     showgrid="false"
     units="px"
     inkscape:window-width="1920"
     inkscape:window-height="956"
     inkscape:window-x="1280"
     inkscape:window-y="0"
     inkscape:window-maximized="1" />
  <metadata
     id="metadata5">
    <rdf:RDF>
      <cc:Work
         rdf:about="">
        <dc:format>image/svg+xml</dc:format>
        <dc:type
           rdf:resource="http://purl.org/dc/dcmitype/StillImage" />
        <dc:title></dc:title>
      </cc:Work>
    </rdf:RDF>
  </metadata>
  <g
     inkscape:label="Layer 1"
     inkscape:groupmode="layer"
     id="layer1"
     transform="translate(0,-169.99998)">
    <path
       style="fill:#432d00;fill-opacity:1;fill-rule:evenodd;stroke:#000000;stroke-width:2.52862716;stroke-linecap:butt;stroke-linejoin:miter;stroke-miterlimit:4;stroke-dasharray:none;stroke-opacity:1"
       d="m 125.76038,229.44451 -32.823878,0.3047 8.192508,9.07367 -8.558989,-0.22594 0.168667,17.11295 9.832222,2.64763 -9.780151,2.6356 0.07046,7.14858 7.306711,6.9742 9.5265,-18.98413 -5.22815,23.08686 4.71841,4.50369 11.13566,-6.58837 -2.96937,-10.45749 8.48469,2.07464 -0.0348,-17.26314 -9.58794,-6.33217 9.25921,-5.43857 z"
       id="path12846"
       inkscape:connector-curvature="0"
       sodipodi:nodetypes="ccccccccccccccccccc" />
    <path
       style="fill:#008000;fill-rule:evenodd;stroke:#000000;stroke-width:2.006217;stroke-linecap:butt;stroke-linejoin:miter;stroke-miterlimit:4;stroke-dasharray:none;stroke-opacity:1"
       d="m 94.599409,182.15237 c -15.751344,-13.09864 -21.746268,-4.18461 -29.682764,0.34881 l -8.348279,-9.41779 c -3.475791,11.92038 -6.357191,24.15427 0.927588,35.22953 18.906,28.78496 33.257092,15.6059 47.306906,-0.34881 6.8191,-11.04979 11.27333,-22.21557 -0.61839,-34.1831 z"
       id="path812"
       inkscape:connector-curvature="0"
       sodipodi:nodetypes="ccccccc" />
    <path
       style="fill:#432d00;fill-opacity:1;fill-rule:evenodd;stroke:#000000;stroke-width:1.67518699;stroke-linecap:butt;stroke-linejoin:miter;stroke-miterlimit:4;stroke-dasharray:none;stroke-opacity:1"
       d="m 54.813846,238.7222 -44.128734,36.65035 c -5.6677504,13.34563 -12.6407704,27.73742 12.1814,16.6458 l 36.009783,-48.6869 z"
       id="path6530"
       inkscape:connector-curvature="0"
       sodipodi:nodetypes="ccccc" />
    <path
       style="fill:#008000;fill-rule:evenodd;stroke:#000000;stroke-width:2.18729973;stroke-linecap:butt;stroke-linejoin:miter;stroke-miterlimit:4;stroke-dasharray:none;stroke-opacity:1"
       d="m 104.7476,228.38525 c -13.654593,-10.90099 -28.734007,-15.95708 -48.755427,-0.73993 -28.319871,37.4022 -11.329851,43.5589 7.6522,13.56542 l -3.06088,46.36906 c 4.485311,6.4576 8.468416,17.33428 15.741662,-0.73993 l 4.154052,-18.74495 2.842244,18.49831 c 4.475727,9.98248 9.679683,14.04999 17.053469,0.49329 l -3.716784,-47.35565 c 21.320794,38.68493 31.501184,24.1567 8.089464,-11.34562 z"
       id="path885"
       inkscape:connector-curvature="0"
       sodipodi:nodetypes="cccccccccc" />
    <ellipse
       style="opacity:1;fill:none;stroke:none;stroke-width:2.82434869;stroke-miterlimit:4;stroke-dasharray:none;stroke-opacity:1"
       id="path4140"
       cx="-89.552887"
       cy="188.65979"
       rx="1.391261"
       ry="4.5407424"
       transform="scale(-1,1)" />
    <ellipse
       style="opacity:1;fill:none;stroke:none;stroke-width:2.82434869;stroke-miterlimit:4;stroke-dasharray:none;stroke-opacity:1"
       id="path4140-7"
       cx="-73.363258"
       cy="188.70636"
       rx="1.391261"
       ry="4.5407424"
       transform="scale(-1,1)" />
  </g>
</svg>
